<svg width="74" height="72" viewBox="0 0 74 72" fill="none" xmlns="http://www.w3.org/2000/svg" xmlns:xlink="http://www.w3.org/1999/xlink">
<path d="M36.85,0C16.494,0 -0.013,16.504 -0.013,36.863C-0.013,53.151 10.549,66.969 25.196,71.843C27.039,72.185 27.715,71.044 27.715,70.07C27.715,69.191 27.681,66.287 27.665,63.207C17.409,65.437 15.245,58.857 15.245,58.857C13.569,54.596 11.152,53.464 11.152,53.464C7.808,51.175 11.404,51.222 11.404,51.222C15.106,51.483 17.056,55.021 17.056,55.021C20.343,60.657 25.679,59.028 27.783,58.086C28.114,55.703 29.069,54.077 30.123,53.156C21.935,52.224 13.328,49.063 13.328,34.938C13.328,30.914 14.768,27.625 17.126,25.044C16.744,24.115 15.482,20.366 17.483,15.288C17.483,15.288 20.579,14.297 27.623,19.067C30.564,18.25 33.717,17.84 36.85,17.826C39.983,17.84 43.139,18.25 46.085,19.067C53.121,14.297 56.213,15.288 56.213,15.288C58.219,20.366 56.957,24.115 56.574,25.044C58.937,27.625 60.368,30.914 60.368,34.938C60.368,49.097 51.744,52.215 43.535,53.127C44.858,54.271 46.036,56.515 46.036,59.954C46.036,64.886 45.993,68.856 45.993,70.07C45.993,71.051 46.656,72.2 48.525,71.838C63.164,66.958 73.713,53.145 73.713,36.863C73.713,16.504 57.209,0 36.85,0Z" fill="#161614"/>
<path d="M13.793,52.513C13.713,52.696 13.424,52.751 13.162,52.625C12.894,52.505 12.744,52.255 12.831,52.071C12.91,51.883 13.199,51.83 13.466,51.957C13.734,52.077 13.886,52.329 13.793,52.513ZM15.607,54.131C15.431,54.294 15.087,54.218 14.854,53.96C14.613,53.703 14.568,53.36 14.746,53.194C14.927,53.031 15.261,53.108 15.502,53.365C15.744,53.625 15.79,53.966 15.607,54.131M16.851,56.201C16.625,56.358 16.255,56.211 16.027,55.883C15.801,55.555 15.801,55.162 16.032,55.004C16.261,54.847 16.625,54.988 16.856,55.314C17.082,55.647 17.082,56.04 16.851,56.201M18.954,58.598C18.752,58.821 18.322,58.761 18.007,58.457C17.685,58.16 17.595,57.738 17.798,57.515C18.002,57.292 18.435,57.355 18.752,57.656C19.072,57.953 19.17,58.378 18.954,58.598ZM21.673,59.408C21.585,59.696 21.17,59.828 20.752,59.705C20.336,59.579 20.063,59.24 20.147,58.949C20.234,58.658 20.65,58.521 21.07,58.653C21.487,58.778 21.76,59.114 21.673,59.408ZM24.768,59.751C24.778,60.055 24.424,60.307 23.986,60.313C23.545,60.322 23.189,60.076 23.184,59.777C23.184,59.47 23.53,59.221 23.971,59.213C24.409,59.205 24.768,59.449 24.768,59.751ZM27.808,59.635C27.86,59.931 27.556,60.236 27.12,60.317C26.693,60.395 26.297,60.212 26.242,59.918C26.189,59.614 26.499,59.309 26.926,59.23C27.362,59.155 27.752,59.333 27.808,59.635Z" fill="#161614"/>
</svg>
