<svg width="482" height="480" viewBox="0 0 482 480" fill="none" xmlns="http://www.w3.org/2000/svg" xmlns:xlink="http://www.w3.org/1999/xlink">
<g opacity="0.3">
<path d="M4.362,464.673C83.484,485.109 396.515,485.109 475.637,464.673C482.957,462.783 481.171,454.304 473.463,454.304L6.536,454.304C-1.171,454.304 -2.957,462.782 4.362,464.673Z" transform="rotate(360 240 467.152)" fill="#000072"/>
</g>
<path d="M26.578,453.175C35.474,451.437 44.369,450.974 53.265,450.785C62.16,450.542 71.055,450.671 79.951,450.803C88.846,450.906 97.741,450.933 106.637,450.916L133.323,450.916L240.068,450.916L346.812,450.916L400.184,450.916L413.528,450.912C417.976,450.914 422.422,450.759 426.87,450.688C435.766,450.648 444.662,450.749 453.556,453.175C454.18,453.345 454.548,453.988 454.378,454.612C454.266,455.025 453.942,455.327 453.556,455.433C444.662,457.858 435.766,457.959 426.87,457.92C422.422,457.848 417.976,457.692 413.528,457.695L400.184,457.692L346.812,457.692L240.068,457.692L133.323,457.692L106.637,457.692C97.741,457.675 88.846,457.701 79.951,457.804C71.055,457.936 62.16,458.065 53.265,457.822C44.369,457.633 35.473,457.171 26.578,455.433C25.954,455.311 25.548,454.706 25.669,454.083C25.762,453.61 26.133,453.262 26.578,453.175Z" transform="rotate(360 240.034 454.304)" fill="#000072"/>
<path d="M347.304,430.182L348.71,430.016C387.902,425.356 414.73,388.177 406.796,349.514L392.07,277.753C385.352,245.007 356.532,221.5 323.102,221.5L237.424,221.5L239.848,221.5L154.17,221.5C120.742,221.5 91.922,245.007 85.202,277.753L70.477,349.514C62.544,388.177 89.37,425.356 128.563,430.016L129.968,430.182L347.304,430.182Z" transform="rotate(360 238.636 325.841)" fill="#4D5A6A"/>
<path d="M347.337,430.722L129.969,430.722L128.501,430.552C109.669,428.312 92.506,418.209 81.41,402.831C70.316,387.453 66.138,367.981 69.95,349.406L84.674,277.645C91.415,244.801 120.642,220.962 154.171,220.962L323.103,220.962C356.631,220.962 385.857,244.801 392.599,277.645L407.323,349.406C411.135,367.982 406.957,387.455 395.861,402.832C384.765,418.209 367.603,428.312 348.773,430.552L347.337,430.722ZM154.171,222.039C121.151,222.039 92.367,245.516 85.73,277.862L71.006,349.623C67.254,367.903 71.365,387.067 82.285,402.201C93.204,417.335 110.095,427.278 128.627,429.482L130.032,429.648L347.273,429.644L348.647,429.482C367.177,427.278 384.069,417.335 394.987,402.202C405.907,387.068 410.019,367.904 406.267,349.623L391.543,277.862C384.905,245.516 356.123,222.039 323.103,222.039L154.171,222.039Z" transform="rotate(360 238.637 325.842)" fill="#000072"/>
<g opacity="0.3">
<path d="M343.411,430.022L342.009,430.185L124.67,430.185L123.269,430.022C98.192,427.043 78.184,410.738 69.085,389.27C79.037,398.217 91.756,404.303 106.146,406.019L107.547,406.183L324.887,406.183L326.289,406.019C365.487,401.359 392.315,364.182 384.373,325.521L369.657,253.76C368.663,248.936 367.191,244.323 365.299,239.943C375.975,249.684 383.695,262.742 386.767,277.751L401.495,349.512C409.427,388.172 382.597,425.361 343.411,430.022Z" transform="rotate(360 235.987 335.064)" fill="#000072"/>
</g>
<g opacity="0.55">
<path d="M408.192,230.669C400.168,227.503 391.454,225.787 382.402,225.787L213.476,225.787C180.048,225.787 151.222,249.287 144.506,282.037L129.778,353.798C123.728,383.29 137.896,411.906 162.353,425.898C132.523,414.288 114.069,382.437 120.82,349.512L135.548,277.75C142.264,245.012 171.09,221.5 204.518,221.5L373.444,221.5C385.988,221.5 397.878,224.805 408.192,230.669Z" transform="rotate(360 263.81 323.699)" fill="#FFFFFF"/>
</g>
<path d="M347.304,433.687L129.968,433.687C129.83,433.687 129.693,433.679 129.556,433.663L128.151,433.497C108.497,431.159 90.585,420.615 79.006,404.566C67.426,388.518 63.067,368.195 67.044,348.81L81.769,277.05C88.79,242.832 119.239,217.997 154.171,217.997L323.102,217.997C358.032,217.997 388.482,242.831 395.504,277.05L410.228,348.811C414.206,368.196 409.846,388.519 398.266,404.567C386.686,420.617 368.774,431.159 349.124,433.497L347.718,433.663C347.58,433.679 347.442,433.687 347.304,433.687ZM130.175,426.679L347.098,426.679L348.298,426.537C366.006,424.431 382.148,414.929 392.584,400.466C403.018,386.004 406.948,367.689 403.362,350.219L388.638,278.458C382.282,247.485 354.72,225.004 323.102,225.004L154.17,225.004C122.551,225.004 94.99,247.485 88.634,278.458L73.91,350.219C70.324,367.689 74.253,386.003 84.688,400.465C95.124,414.929 111.266,424.431 128.976,426.537L130.175,426.679Z" transform="rotate(360 238.636 325.842)" fill="#000072"/>
<path d="M366.145,168.497C365.933,169.314 365.711,170.144 365.489,170.949C365.315,171.568 365.139,172.176 364.965,172.783C364.895,173.017 364.835,173.239 364.755,173.472C364.613,173.975 364.451,174.477 364.299,174.967C364.099,175.61 363.889,176.241 363.679,176.871C363.587,177.151 363.493,177.432 363.399,177.701C363.095,178.611 362.781,179.511 362.441,180.399C362.091,181.38 361.717,182.349 361.331,183.307C360.957,184.276 360.561,185.234 360.153,186.192C359.755,187.138 359.335,188.095 358.903,189.03C358.493,189.941 358.073,190.84 357.641,191.74C357.583,191.857 357.525,191.973 357.465,192.09C357.069,192.931 356.649,193.761 356.217,194.59C356.205,194.613 356.193,194.636 356.181,194.66C355.713,195.582 355.235,196.482 354.745,197.393C354.161,198.467 353.565,199.53 352.945,200.581C352.525,201.317 352.093,202.041 351.661,202.766C351.637,202.789 351.625,202.812 351.625,202.824C351.089,203.712 350.539,204.588 349.979,205.464C349.045,206.924 348.087,208.372 347.095,209.808C346.661,210.438 346.217,211.058 345.775,211.676C345.401,212.202 345.027,212.716 344.641,213.242C344.069,214.024 343.485,214.796 342.901,215.566C342.329,216.314 341.757,217.038 341.173,217.774C340.845,218.182 340.519,218.592 340.191,218.988C339.981,219.246 339.771,219.502 339.561,219.76C339.163,220.226 338.777,220.694 338.381,221.162C337.307,222.422 336.209,223.672 335.087,224.91C334.549,225.518 333.989,226.114 333.429,226.71C333.019,227.142 332.611,227.586 332.201,228.018C331.617,228.624 331.045,229.22 330.449,229.804C329.609,230.656 328.745,231.51 327.881,232.35C327.179,233.028 326.479,233.694 325.767,234.348C325.661,234.452 325.555,234.558 325.451,234.64C324.727,235.328 323.991,235.994 323.243,236.66C321.877,237.886 320.487,239.078 319.073,240.258C318.723,240.55 318.373,240.842 318.011,241.146C317.297,241.73 316.573,242.314 315.839,242.898C313.291,244.918 310.687,246.868 308.024,248.748C307.977,248.784 307.919,248.818 307.872,248.854C297.489,256.166 286.194,261.596 274.468,265.16C270.403,266.398 266.28,267.414 262.122,268.208C243.703,271.712 224.618,270.788 206.549,265.462C194.402,261.888 182.71,256.318 171.977,248.75C171.136,248.154 170.295,247.546 169.454,246.938C169.372,246.868 169.29,246.81 169.197,246.752C168.367,246.132 167.538,245.514 166.721,244.894C165.868,244.24 165.015,243.576 164.163,242.898L164.151,242.898C163.31,242.22 162.481,241.542 161.652,240.866C160.811,240.176 159.993,239.476 159.176,238.774C158.358,238.074 157.552,237.374 156.758,236.66C155.952,235.936 155.158,235.224 154.375,234.488C153.593,233.764 152.822,233.028 152.051,232.28C151.28,231.544 150.521,230.798 149.773,230.038C149.026,229.278 148.278,228.52 147.542,227.748C146.807,226.966 146.071,226.184 145.335,225.39C144.634,224.618 143.945,223.848 143.256,223.054C142.719,222.446 142.181,221.828 141.656,221.208C140.126,219.398 138.631,217.552 137.182,215.672C136.598,214.9 136.002,214.13 135.442,213.348C135.36,213.254 135.29,213.148 135.22,213.056C134.823,212.53 134.437,211.992 134.064,211.456C133.199,210.24 132.358,209.026 131.541,207.788C131.085,207.11 130.63,206.422 130.198,205.732C129.532,204.692 128.878,203.654 128.235,202.591C127.792,201.843 127.336,201.084 126.892,200.325C126.285,199.262 125.689,198.175 125.093,197.089C124.661,196.272 124.229,195.454 123.809,194.637C123.377,193.807 122.956,192.966 122.559,192.125C122.489,192.008 122.431,191.892 122.384,191.775C121.496,189.964 120.667,188.131 119.896,186.285C119.849,186.203 119.814,186.133 119.791,186.052C119.405,185.141 119.031,184.23 118.669,183.307C118.284,182.349 117.91,181.379 117.56,180.399C117.198,179.429 116.847,178.448 116.52,177.467C116.275,176.743 116.03,176.007 115.796,175.271C115.609,174.687 115.434,174.103 115.259,173.519C115.177,173.262 115.095,172.993 115.025,172.736C114.85,172.164 114.687,171.603 114.535,171.031C114.301,170.19 114.079,169.349 113.857,168.497C105.121,106.827 161.196,38.434 217.224,9.106C231.474,1.642 248.526,1.642 262.776,9.106C264.037,9.76 265.287,10.461 266.549,11.185L266.56,11.196C321.305,42.663 374.683,108.217 366.145,168.497Z" transform="rotate(360 240.001 136.899)" fill="#4D5A6A"/>
<g opacity="0.4">
<path d="M219.637,268.088C221.225,267.674 222.808,267.24 224.379,266.762C236.106,263.198 247.4,257.768 257.783,250.456C257.83,250.42 257.889,250.386 257.936,250.35C260.598,248.47 263.203,246.52 265.75,244.5C266.485,243.916 267.21,243.33 267.922,242.748C268.284,242.444 268.634,242.152 268.985,241.86C270.398,240.68 271.788,239.488 273.154,238.262C273.902,237.596 274.638,236.93 275.362,236.242C275.467,236.16 275.572,236.054 275.677,235.95C276.39,235.296 277.09,234.63 277.791,233.952C278.655,233.11 279.519,232.258 280.361,231.406C280.957,230.822 281.529,230.226 282.113,229.618C282.521,229.186 282.93,228.742 283.339,228.31C283.899,227.714 284.461,227.12 284.998,226.512C286.119,225.274 287.217,224.024 288.291,222.762C288.688,222.296 289.074,221.828 289.471,221.362C289.681,221.104 289.892,220.848 290.102,220.59C290.429,220.192 290.755,219.784 291.083,219.376C291.667,218.64 292.239,217.916 292.811,217.168C293.395,216.396 293.979,215.626 294.551,214.844C294.937,214.318 295.311,213.804 295.685,213.278C296.128,212.66 296.572,212.04 297.004,211.409C297.997,209.973 298.955,208.525 299.889,207.065C300.45,206.189 300.999,205.313 301.536,204.425C301.536,204.413 301.548,204.39 301.571,204.367C302.003,203.642 302.435,202.918 302.856,202.182C303.475,201.131 304.071,200.068 304.655,198.994C305.145,198.083 305.624,197.184 306.091,196.261C306.103,196.238 306.115,196.214 306.126,196.191C306.559,195.362 306.979,194.532 307.376,193.691C307.435,193.574 307.493,193.457 307.551,193.341C307.983,192.442 308.404,191.542 308.813,190.631C309.245,189.697 309.666,188.739 310.063,187.793C310.471,186.835 310.868,185.877 311.242,184.908C311.628,183.95 312.002,182.981 312.352,182C312.691,181.112 313.006,180.213 313.31,179.302C313.403,179.033 313.497,178.752 313.59,178.472C313.8,177.842 314.011,177.211 314.209,176.568C314.361,176.078 314.525,175.576 314.665,175.073C314.746,174.84 314.805,174.618 314.875,174.384C315.05,173.777 315.226,173.17 315.4,172.55C315.622,171.745 315.844,170.915 316.055,170.097C324.487,110.557 272.515,45.869 218.484,13.97C256.493,48.541 285.252,96.981 278.819,142.428C278.609,143.246 278.387,144.075 278.165,144.881C277.99,145.5 277.814,146.107 277.639,146.714C277.569,146.948 277.511,147.17 277.429,147.404C277.289,147.905 277.125,148.408 276.974,148.898C276.775,149.541 276.565,150.172 276.354,150.802C276.261,151.083 276.168,151.363 276.074,151.632C275.771,152.543 275.456,153.442 275.117,154.33C274.766,155.311 274.392,156.28 274.007,157.238C273.633,158.208 273.236,159.165 272.828,160.123C272.43,161.069 272.01,162.027 271.578,162.961C271.169,163.872 270.748,164.772 270.316,165.671C270.258,165.788 270.2,165.905 270.141,166.021C269.744,166.862 269.324,167.692 268.891,168.521C268.879,168.544 268.868,168.568 268.856,168.59C268.389,169.513 267.91,170.413 267.419,171.324C266.835,172.399 266.24,173.462 265.621,174.513C265.2,175.249 264.768,175.973 264.336,176.697C264.313,176.72 264.301,176.744 264.301,176.755C263.764,177.643 263.214,178.519 262.654,179.395C261.72,180.855 260.762,182.303 259.769,183.74C259.337,184.37 258.893,184.989 258.449,185.609C258.075,186.134 257.702,186.648 257.316,187.174C256.744,187.956 256.16,188.727 255.576,189.498C255.004,190.246 254.432,190.97 253.848,191.705C253.52,192.114 253.193,192.523 252.866,192.92C252.656,193.177 252.446,193.434 252.235,193.691C251.838,194.159 251.453,194.626 251.056,195.093C249.981,196.354 248.884,197.604 247.762,198.842C247.224,199.45 246.664,200.045 246.103,200.641C245.695,201.073 245.286,201.517 244.877,201.949C244.293,202.556 243.72,203.152 243.125,203.736C242.284,204.589 241.42,205.441 240.555,206.282C239.854,206.96 239.154,207.626 238.441,208.28C238.336,208.385 238.231,208.49 238.126,208.572C237.402,209.261 236.666,209.926 235.919,210.592C234.552,211.818 233.162,213.01 231.749,214.19C231.398,214.482 231.048,214.774 230.686,215.078C229.973,215.662 229.249,216.246 228.513,216.83C225.967,218.85 223.363,220.8 220.699,222.68C220.653,222.716 220.594,222.752 220.548,222.786C210.164,230.098 198.87,235.53 187.143,239.092C183.079,240.33 178.956,241.346 174.798,242.14C174.997,242.102 175.194,242.058 175.393,242.018C172.875,242.672 170.34,243.254 167.79,243.74C152.551,246.638 136.858,246.498 121.66,243.35C121.483,243.212 121.307,243.076 121.129,242.936C121.966,243.6 122.803,244.254 123.639,244.896C124.457,245.516 125.286,246.134 126.116,246.754C126.209,246.812 126.291,246.87 126.373,246.94C127.214,247.548 128.055,248.156 128.895,248.752C139.63,256.32 151.321,261.892 163.468,265.466C181.537,270.79 200.622,271.714 219.041,268.21C221.215,267.794 223.378,267.316 225.529,266.78C223.575,267.264 221.61,267.7 219.637,268.088Z" transform="rotate(360 219.044 142.13)" fill="#000072"/>
</g>
<g opacity="0.55">
<path d="M365.88,24.993C361.57,22.073 357.213,19.351 352.856,16.84L352.845,16.828C351.583,16.104 350.334,15.403 349.072,14.749C334.823,7.286 317.77,7.286 303.521,14.749C247.492,44.078 191.417,112.475 200.153,174.145C200.375,174.998 200.597,175.839 200.831,176.68C200.983,177.252 201.146,177.813 201.321,178.385C201.391,178.642 201.473,178.911 201.555,179.168C201.73,179.752 201.905,180.336 202.092,180.92C202.326,181.655 202.571,182.391 202.816,183.116C203.143,184.097 203.494,185.078 203.856,186.047C204.206,187.028 204.58,187.998 204.965,188.956C205.327,189.878 205.701,190.789 206.087,191.7C206.11,191.782 206.145,191.852 206.192,191.934C206.963,193.779 207.792,195.613 208.68,197.423C208.726,197.54 208.785,197.657 208.855,197.774C209.252,198.615 209.672,199.456 210.104,200.285C210.525,201.103 210.957,201.92 211.389,202.738C211.985,203.824 212.581,204.91 213.188,205.974C213.632,206.732 214.087,207.492 214.531,208.24C215.173,209.302 215.828,210.342 216.493,211.382C216.925,212.07 217.381,212.76 217.837,213.436C218.654,214.676 219.495,215.89 220.359,217.104C220.733,217.642 221.119,218.18 221.516,218.704C221.586,218.798 221.656,218.904 221.738,218.996C222.298,219.78 222.894,220.55 223.478,221.32C224.926,223.202 226.421,225.046 227.951,226.858C228.477,227.476 229.014,228.096 229.552,228.702C230.241,229.496 230.93,230.268 231.631,231.038C232.366,231.832 233.102,232.616 233.838,233.398C234.574,234.168 235.321,234.928 236.069,235.688C236.817,236.446 237.576,237.194 238.347,237.93C239.117,238.676 239.888,239.412 240.671,240.138C241.453,240.874 242.248,241.586 243.054,242.31C243.848,243.022 244.654,243.722 245.471,244.424C246.289,245.124 247.107,245.826 247.948,246.514C248.777,247.192 249.606,247.87 250.447,248.546L250.459,248.546C251.311,249.224 252.164,249.89 253.016,250.544C253.776,251.116 254.547,251.688 255.317,252.272C254.348,251.642 253.39,250.988 252.432,250.31C251.591,249.714 250.75,249.108 249.909,248.5C249.828,248.43 249.746,248.372 249.652,248.312C248.823,247.694 247.994,247.074 247.176,246.456C246.324,245.802 245.471,245.136 244.618,244.458L244.607,244.458C243.766,243.782 242.937,243.104 242.107,242.426C241.266,241.738 240.449,241.036 239.631,240.336C238.814,239.634 238.008,238.934 237.213,238.222C236.407,237.498 235.613,236.784 234.831,236.048C234.048,235.324 233.277,234.59 232.506,233.842C231.735,233.106 230.976,232.358 230.229,231.598C229.481,230.84 228.734,230.08 227.998,229.31C227.262,228.528 226.526,227.744 225.79,226.95C225.089,226.18 224.4,225.408 223.711,224.614C223.174,224.008 222.637,223.388 222.111,222.77C220.581,220.958 219.086,219.114 217.638,217.232C217.054,216.462 216.458,215.692 215.897,214.908C215.816,214.816 215.746,214.71 215.676,214.616C215.278,214.09 214.893,213.554 214.519,213.016C213.655,211.802 212.814,210.586 211.996,209.348C211.541,208.672 211.085,207.982 210.653,207.294C209.987,206.254 209.333,205.214 208.691,204.151C208.247,203.404 207.792,202.644 207.348,201.885C206.74,200.822 206.145,199.736 205.549,198.65C205.117,197.832 204.685,197.014 204.264,196.197C203.832,195.368 203.411,194.527 203.015,193.686C202.945,193.569 202.886,193.452 202.839,193.335C201.952,191.525 201.122,189.691 200.351,187.846C200.305,187.764 200.27,187.694 200.246,187.612C199.861,186.701 199.487,185.79 199.125,184.867C198.74,183.91 198.366,182.94 198.015,181.959C197.653,180.99 197.303,180.009 196.976,179.027C196.731,178.303 196.485,177.567 196.252,176.832C196.065,176.248 195.89,175.664 195.715,175.08C195.633,174.823 195.551,174.554 195.481,174.297C195.306,173.725 195.142,173.164 194.99,172.592C194.757,171.751 194.535,170.91 194.313,170.057C185.576,108.387 241.652,39.99 297.68,10.662C311.93,3.198 328.982,3.198 343.232,10.662C344.493,11.316 345.743,12.016 347.004,12.74L347.016,12.752C353.359,16.396 359.678,20.496 365.88,24.993Z" transform="rotate(360 279.644 128.668)" fill="#FFFFFF"/>
</g>
<path d="M240,273.774C215.446,273.776 190.898,266.388 169.957,251.614C169.101,251.008 168.251,250.394 167.401,249.778C167.357,249.748 167.314,249.714 167.271,249.68C167.213,249.642 167.156,249.602 167.099,249.56C166.218,248.902 165.405,248.294 164.604,247.688C163.777,247.054 162.964,246.418 162.152,245.774C162.083,245.728 162.018,245.68 161.954,245.628C161.133,244.966 160.323,244.304 159.512,243.642C158.569,242.87 157.731,242.152 156.895,241.436C156.057,240.716 155.23,239.998 154.417,239.268L154.303,239.166C153.515,238.458 152.74,237.76 151.974,237.04C151.193,236.316 150.402,235.562 149.611,234.796C148.834,234.054 148.049,233.282 147.276,232.496C146.484,231.692 145.739,230.936 145.006,230.166C144.247,229.36 143.506,228.572 142.765,227.772C142.023,226.954 141.315,226.164 140.608,225.35C140.077,224.75 139.523,224.112 138.982,223.472C137.378,221.576 135.839,219.672 134.405,217.81L134.019,217.3C133.561,216.698 133.104,216.096 132.664,215.486C132.583,215.386 132.507,215.282 132.433,215.18C132.001,214.608 131.588,214.032 131.188,213.458C130.25,212.14 129.402,210.908 128.617,209.72C128.157,209.034 127.68,208.314 127.229,207.594C126.563,206.556 125.893,205.49 125.236,204.4L124.824,203.708C124.504,203.172 124.182,202.632 123.867,202.092C123.264,201.038 122.689,199.991 122.115,198.944L122.022,198.775C121.556,197.896 121.117,197.066 120.691,196.237C120.269,195.425 119.848,194.585 119.448,193.744C119.352,193.569 119.263,193.391 119.188,193.213C118.244,191.262 117.437,189.483 116.724,187.785C116.656,187.649 116.581,187.486 116.513,187.298C116.133,186.398 115.764,185.497 115.407,184.585C115.016,183.614 114.625,182.601 114.259,181.576C113.9,180.616 113.537,179.595 113.196,178.574C112.949,177.844 112.696,177.088 112.455,176.331C112.265,175.732 112.084,175.13 111.902,174.527C111.822,174.274 111.727,173.961 111.646,173.662C111.486,173.144 111.31,172.542 111.147,171.927C110.92,171.109 110.693,170.25 110.466,169.379C110.433,169.251 110.407,169.12 110.388,168.988C105.098,131.642 122.692,97.081 138.384,74.664C158.213,46.335 186.357,21.309 215.599,6.002C230.879,-2.001 249.122,-2.001 264.401,6.002C293.644,21.309 321.788,46.336 341.616,74.664C357.308,97.081 374.902,131.643 369.612,168.988C369.594,169.117 369.568,169.244 369.536,169.37C369.322,170.206 369.094,171.054 368.868,171.879L368.266,173.97C368.214,174.151 368.162,174.33 368.1,174.513C367.996,174.881 367.88,175.25 367.766,175.614L367.646,176C367.454,176.621 367.252,177.229 367.05,177.836L367.004,177.974C366.904,178.275 366.806,178.57 366.706,178.853C366.402,179.767 366.07,180.713 365.714,181.647C365.374,182.602 364.984,183.615 364.58,184.616C364.212,185.573 363.798,186.569 363.376,187.565C362.968,188.532 362.53,189.528 362.082,190.5C361.678,191.402 361.244,192.329 360.798,193.257L360.596,193.663C360.218,194.467 359.776,195.338 359.322,196.209C358.826,197.191 358.334,198.116 357.83,199.052C357.22,200.174 356.604,201.272 355.966,202.358C355.556,203.076 355.112,203.818 354.668,204.56C354.664,204.568 354.66,204.576 354.654,204.584C354.644,204.602 354.634,204.62 354.622,204.638C354.07,205.55 353.506,206.452 352.93,207.352C351.902,208.958 350.936,210.412 349.976,211.8C349.538,212.44 349.08,213.08 348.622,213.718C348.244,214.248 347.862,214.774 347.468,215.312C346.884,216.11 346.288,216.896 345.694,217.682C345.098,218.46 344.512,219.202 343.914,219.954C343.57,220.384 343.232,220.806 342.894,221.216L341.05,223.432C339.95,224.722 338.818,226.01 337.682,227.262C337.168,227.846 336.598,228.454 336.028,229.06L334.744,230.426C334.104,231.092 333.514,231.706 332.902,232.308C332.086,233.134 331.206,234.004 330.322,234.862C329.61,235.552 328.904,236.222 328.186,236.882C328.052,237.014 327.916,237.142 327.782,237.258C327.058,237.946 326.32,238.61 325.572,239.278C324.12,240.568 322.69,241.802 321.318,242.946L320.264,243.828C319.506,244.45 318.766,245.046 318.018,245.642C315.436,247.69 312.754,249.698 310.046,251.612C310.024,251.626 309.954,251.674 309.916,251.7C309.906,251.706 309.896,251.714 309.888,251.72C288.98,266.424 264.487,273.774 240,273.774ZM171.593,244.162C172.396,244.742 173.199,245.322 174.002,245.89C213.411,273.694 266.4,273.736 305.858,245.988L305.858,245.988C305.912,245.95 305.971,245.908 306.006,245.886C308.606,244.05 311.182,242.12 313.66,240.154C314.38,239.58 315.09,239.008 315.788,238.436L316.828,237.568C318.142,236.47 319.518,235.282 320.914,234.042C321.632,233.404 322.34,232.764 323.034,232.102C323.094,232.044 323.158,231.988 323.222,231.936L323.288,231.87C323.324,231.834 323.36,231.8 323.398,231.766C324.088,231.132 324.766,230.488 325.444,229.832C326.284,229.016 327.13,228.18 327.954,227.344C328.56,226.75 329.102,226.186 329.654,225.612L330.88,224.304C331.442,223.706 331.962,223.154 332.46,222.59C333.578,221.358 334.662,220.122 335.714,218.888L337.472,216.776C337.802,216.376 338.118,215.982 338.436,215.586C339,214.874 339.56,214.166 340.118,213.436C340.68,212.696 341.252,211.94 341.814,211.172C342.19,210.66 342.554,210.158 342.92,209.644C343.356,209.036 343.786,208.438 344.204,207.826C345.124,206.496 346.046,205.108 347.028,203.574C347.572,202.724 348.104,201.874 348.626,201.012C348.634,200.998 348.644,200.984 348.652,200.97C349.074,200.264 349.494,199.558 349.904,198.841C350.524,197.787 351.1,196.759 351.664,195.72C352.134,194.847 352.6,193.974 353.054,193.077C353.06,193.065 353.102,192.982 353.108,192.97C353.518,192.182 353.918,191.394 354.296,190.596L354.512,190.161C354.9,189.35 355.308,188.48 355.704,187.597C356.136,186.661 356.54,185.742 356.922,184.834C357.32,183.898 357.702,182.978 358.062,182.047C358.45,181.082 358.806,180.156 359.14,179.22C359.488,178.307 359.788,177.455 360.076,176.591L360.4,175.629C360.586,175.067 360.774,174.504 360.95,173.931L361.08,173.517C361.182,173.191 361.286,172.861 361.378,172.532C361.398,172.457 361.422,172.383 361.448,172.31C361.482,172.212 361.508,172.117 361.536,172.021L362.118,169.993C362.312,169.292 362.512,168.549 362.702,167.812C366.508,140.483 356.986,108.84 335.876,78.682C316.668,51.243 289.433,27.014 261.151,12.21C247.908,5.273 232.094,5.273 218.851,12.21C190.568,27.014 163.332,51.242 144.124,78.682C123.016,108.839 113.495,140.481 117.299,167.809C117.5,168.576 117.701,169.335 117.911,170.093C118.063,170.665 118.215,171.184 118.377,171.713C118.463,172.025 118.533,172.25 118.6,172.464C118.784,173.076 118.954,173.641 119.134,174.207C119.363,174.925 119.602,175.64 119.84,176.343C120.159,177.3 120.495,178.242 120.842,179.173C121.195,180.158 121.552,181.084 121.92,182C122.282,182.922 122.645,183.804 123.018,184.687C123.025,184.703 123.032,184.719 123.038,184.736C123.071,184.802 123.101,184.869 123.129,184.934C123.818,186.584 124.606,188.322 125.538,190.248C125.561,190.295 125.583,190.341 125.603,190.389C125.647,190.466 125.689,190.546 125.727,190.627C126.105,191.427 126.505,192.228 126.916,193.017C127.34,193.841 127.766,194.646 128.191,195.451L128.257,195.571C128.813,196.584 129.369,197.595 129.935,198.587C130.223,199.079 130.534,199.602 130.843,200.12L131.248,200.8C131.861,201.816 132.5,202.828 133.149,203.842C133.579,204.528 134.013,205.186 134.449,205.832C135.204,206.976 136.007,208.142 136.918,209.424C137.287,209.952 137.645,210.452 138.015,210.94C138.031,210.962 138.102,211.06 138.118,211.082L138.071,211.03C138.15,211.12 138.223,211.212 138.292,211.308C138.713,211.896 139.156,212.478 139.598,213.058L139.976,213.556C141.328,215.312 142.799,217.132 144.332,218.946C144.839,219.542 145.359,220.142 145.88,220.732C146.574,221.532 147.246,222.282 147.929,223.034C148.635,223.796 149.365,224.572 150.095,225.35C150.785,226.072 151.505,226.802 152.224,227.532C152.993,228.314 153.726,229.034 154.471,229.746C155.243,230.494 155.993,231.21 156.756,231.916C157.504,232.62 158.24,233.282 158.988,233.952L159.1,234.054C159.873,234.748 160.66,235.432 161.457,236.116C162.254,236.798 163.052,237.484 163.873,238.156C164.684,238.818 165.431,239.428 166.184,240.036C166.237,240.074 166.291,240.112 166.342,240.154C167.18,240.818 168.016,241.472 168.854,242.116C169.616,242.692 170.407,243.284 171.198,243.874C171.337,243.966 171.466,244.06 171.593,244.162ZM323.304,231.87C323.296,231.878 323.286,231.884 323.278,231.89C323.286,231.884 323.296,231.878 323.304,231.87ZM123.161,185.095C123.162,185.097 123.162,185.099 123.163,185.1C123.162,185.099 123.162,185.097 123.161,185.095ZM122.947,184.563C122.948,184.564 122.948,184.565 122.949,184.566C122.948,184.565 122.948,184.564 122.947,184.563Z" transform="rotate(360 240 136.887)" fill="#000072"/>
<path d="M167.254,186.197C167.039,186.853 166.805,187.518 166.561,188.202C160.067,204.837 147.331,213.702 139.618,203.666L144.219,181.071L147.349,165.711C159.382,157.492 175.427,161.184 167.254,186.197Z" transform="rotate(360 154.551 184.841)" fill="#FDBD91"/>
<path d="M147.365,208.317C144.305,208.317 141.545,206.816 139.32,203.92L139.204,203.769L147.007,165.461L147.147,165.366C153.716,160.879 161.109,160.101 165.542,163.427C168.429,165.593 172.546,171.448 167.683,186.326C167.468,186.986 167.232,187.655 166.987,188.343C162.647,199.461 155.489,207.258 148.748,208.218C148.281,208.284 147.82,208.317 147.365,208.317ZM140.099,203.56C142.441,206.527 145.382,207.851 148.631,207.391C155.078,206.472 161.977,198.881 166.205,188.05C166.444,187.381 166.677,186.72 166.891,186.067C170.374,175.406 169.717,167.604 165.041,164.095C160.924,161.006 153.995,161.76 147.758,165.961L140.099,203.56Z" transform="rotate(360 154.567 184.848)" fill="#000072"/>
<g opacity="0.3">
<path d="M169.484,186.197C169.268,186.853 169.034,187.518 168.79,188.202C162.296,204.837 149.56,213.702 141.847,203.665L146.448,181.071C147.526,180.986 148.173,180.939 148.173,180.939C152.849,195.569 159.644,196.871 168.556,184.838C168.556,184.838 168.893,185.335 169.484,186.197Z" transform="rotate(360 155.665 194.42)" fill="#000072"/>
</g>
<path d="M147.368,210.707C143.57,210.707 140.081,208.856 137.408,205.379C136.91,204.733 136.719,203.903 136.882,203.104L144.613,165.149C144.759,164.432 145.178,163.801 145.782,163.388C153.288,158.263 161.861,157.552 167.111,161.624C170.633,164.354 175.592,171.562 169.224,189.158C164.484,201.302 156.772,209.487 149.074,210.585C148.499,210.667 147.93,210.707 147.368,210.707ZM142.664,202.887C144.319,204.621 146.169,205.318 148.28,205.019C153.801,204.231 160.102,197.062 163.961,187.18C167.702,176.839 167.604,169.12 163.666,166.068C160.588,163.682 155.035,164.264 149.888,167.427L142.664,202.887Z" transform="rotate(360 154.56 184.851)" fill="#000072"/>
<path d="M312.722,186.197C312.938,186.853 313.172,187.518 313.416,188.202C319.91,204.837 332.646,213.702 340.359,203.666L335.758,181.071L332.627,165.711C320.594,157.492 304.55,161.184 312.722,186.197Z" transform="rotate(360 325.426 184.841)" fill="#FDBD91"/>
<path d="M332.601,208.484C332.138,208.484 331.668,208.45 331.191,208.382C324.393,207.414 317.183,199.576 312.826,188.415C312.574,187.709 312.338,187.039 312.12,186.379L312.12,186.378C307.228,171.401 311.399,165.486 314.322,163.294C318.812,159.925 326.282,160.701 332.91,165.228L333.105,165.362L340.939,203.81L340.776,204.021C338.517,206.96 335.714,208.484 332.601,208.484ZM313.231,186.015C313.444,186.667 313.678,187.327 313.92,188.006C318.12,198.765 324.967,206.316 331.356,207.226C334.562,207.681 337.362,206.435 339.687,203.517L332.056,166.061C325.892,161.931 319.068,161.191 315.023,164.228C310.408,167.691 309.772,175.427 313.231,186.015Z" transform="rotate(360 325.403 184.849)" fill="#000072"/>
<g opacity="0.55">
<path d="M336.516,207.624C330.565,205.637 324.426,198.459 320.528,188.478C320.284,187.794 320.05,187.129 319.834,186.472C311.662,161.46 327.706,157.767 339.739,165.986L339.796,166.267C328.915,162.153 317.941,167.861 324.989,189.443C325.204,190.099 325.439,190.765 325.682,191.449C328.447,198.543 332.355,204.222 336.516,207.624Z" transform="rotate(360 328.7 184.84)" fill="#FFFFFF"/>
</g>
<path d="M332.602,210.708C332.039,210.708 331.47,210.667 330.896,210.585C323.198,209.488 315.486,201.303 310.771,189.225C304.378,171.562 309.337,164.354 312.859,161.624C318.11,157.554 326.681,158.263 334.187,163.389C334.79,163.801 335.21,164.433 335.355,165.149L343.088,203.104C343.251,203.903 343.059,204.733 342.562,205.379C339.888,208.856 336.4,210.708 332.602,210.708ZM321.182,164.604C319.268,164.604 317.575,165.083 316.304,166.068C312.366,169.12 312.268,176.839 316.034,187.246C319.868,197.063 326.169,204.232 331.689,205.019C333.803,205.319 335.649,204.621 337.306,202.888L330.081,167.427C327.061,165.571 323.899,164.604 321.182,164.604Z" transform="rotate(360 325.413 184.852)" fill="#000072"/>
<path d="M311.212,181.642L311.212,194.631C311.212,216.973 300.519,238.162 282.104,250.814C281.841,250.992 281.579,251.161 281.326,251.339C253.239,270.166 216.465,270.166 188.379,251.348C188.125,251.17 187.863,250.992 187.601,250.814C169.176,238.172 158.483,216.983 158.483,194.631L158.483,181.643C158.483,181.643 158.53,180.809 158.624,179.309C159.317,167.454 162.457,114.261 162.963,112.902C179.682,67.899 346.833,78.93 311.212,181.642Z" transform="rotate(360 237.33 176.604)" fill="#FDBD91"/>
<path d="M234.786,266.117C218.497,266.117 202.21,261.356 187.996,251.833C187.76,251.667 187.526,251.508 187.292,251.348C168.823,238.676 157.842,217.493 157.842,194.631L157.842,181.642C157.843,181.609 157.891,180.774 157.984,179.273C159.127,159.718 161.842,114.083 162.36,112.698C166.747,100.885 181.625,92.133 203.176,88.686C223.979,85.358 248.212,87.614 267.997,94.718C287.752,101.812 331.537,124.488 311.738,181.74L311.738,194.631C311.738,217.481 300.762,238.664 282.377,251.295L282.075,251.497C281.916,251.603 281.758,251.708 281.604,251.816C267.383,261.35 251.083,266.117 234.786,266.117ZM222.895,88.345C216.215,88.345 209.632,88.836 203.361,89.839C182.237,93.218 167.692,101.698 163.455,113.105C163.05,114.602 160.882,149.726 159.15,179.343C159.056,180.841 159.009,181.674 159.009,181.675L159.01,194.631C159.01,217.108 169.801,237.93 187.875,250.332C188.188,250.545 188.428,250.708 188.659,250.87C216.684,269.647 252.913,269.642 280.944,250.853C281.096,250.747 281.261,250.636 281.428,250.525L281.72,250.33C299.785,237.919 310.572,217.096 310.572,194.631L310.603,181.451C330.141,125.115 287.041,102.797 267.603,95.817C253.959,90.917 238.179,88.345 222.895,88.345Z" transform="rotate(360 237.302 176.647)" fill="#000072"/>
<g opacity="0.3">
<path d="M283.829,181.642L283.829,194.631C283.829,216.973 273.136,238.162 254.721,250.814C254.459,250.992 254.196,251.161 253.943,251.339C225.857,270.166 189.083,270.166 160.996,251.348C160.743,251.17 160.481,250.992 160.218,250.814C159.637,250.411 159.056,249.999 158.485,249.577C184.913,262.426 216.588,260.514 241.451,243.842C241.704,243.664 241.967,243.495 242.229,243.317C260.644,230.665 271.337,209.476 271.337,187.134L272.448,170.761C284.537,135.908 272.162,115.001 251.357,99.875C279.668,113.83 298.159,140.314 283.829,181.642Z" transform="rotate(360 223.639 182.668)" fill="#000072"/>
</g>
<g opacity="0.3">
<path d="M311.072,181.642L311.072,186.919C302.675,174.548 301.053,140.792 301.053,140.792C293.712,148.764 252.481,157.956 223.545,142.584C221.984,141.755 220.272,143.413 221.055,144.997C221.408,145.711 221.551,145.952 221.551,145.952C217.745,148.308 199.818,146.012 190.093,140.353C187.389,138.779 183.939,140.484 183.455,143.576C181.276,157.479 174.354,167.158 159.542,181.643C159.177,180.865 158.821,180.087 158.483,179.309C159.177,167.454 162.316,114.261 162.822,112.902C179.542,67.899 346.693,78.93 311.072,181.642Z" transform="rotate(360 237.26 137.333)" fill="#000072"/>
</g>
<g opacity="0.55">
<path d="M316.177,259.22C290.78,269.632 261.391,267.008 238.018,251.348C237.765,251.17 237.503,250.992 237.241,250.814C218.816,238.171 208.123,216.982 208.123,194.631L208.123,181.642C208.123,181.642 212.031,114.429 212.603,112.902C216.117,103.446 226.266,96.464 239.79,92.284C229.621,96.53 222.152,102.668 219.238,110.503C218.666,112.04 214.758,179.243 214.758,179.243L214.758,192.232C214.758,214.583 225.451,235.773 243.876,248.424C244.139,248.593 244.428,248.736 244.663,248.949C262.899,265.46 292.411,266.689 316.177,259.22Z" transform="rotate(360 262.15 178.871)" fill="#FFFFFF"/>
</g>
<path d="M234.823,268.349C218.101,268.349 201.382,263.46 186.793,253.682C186.523,253.503 186.254,253.32 185.985,253.136C166.987,240.1 155.646,218.229 155.646,194.631L155.646,181.642C155.646,181.588 155.647,181.534 155.65,181.479C159.581,113.898 160.124,112.398 160.302,111.919C170.591,84.236 228.554,78.173 268.79,92.625C287.956,99.509 302.468,110.427 310.758,124.196C320.513,140.402 321.602,159.886 313.997,182.113L313.997,194.631C313.997,218.223 302.658,240.092 283.665,253.13L282.865,253.673C268.273,263.457 251.547,268.348 234.823,268.349ZM161.268,181.724L161.268,194.631C161.268,216.375 171.698,236.512 189.167,248.5C189.418,248.672 189.668,248.841 189.92,249.01C217.203,267.295 252.456,267.292 279.73,249.005L280.48,248.496C297.947,236.505 308.374,216.369 308.374,194.631L308.374,181.643C308.374,181.329 308.427,181.017 308.529,180.721C327.417,126.269 285.7,104.674 266.888,97.917C226.113,83.272 174.226,91.382 165.649,113.675C165.129,117.306 162.76,156.098 161.268,181.724ZM165.593,113.823C165.587,113.839 165.579,113.859 165.574,113.875C165.579,113.86 165.586,113.843 165.593,113.823Z" transform="rotate(360 237.317 176.693)" fill="#000072"/>
<path d="M315.856,85.349C336.942,112.293 334.318,159.179 316.558,183.751C302.97,176.254 302.07,140.792 302.07,140.792C269.907,149.545 237.359,144.203 207.848,118.778C207.22,128.768 215.589,138.036 215.589,138.036C211.794,137.924 208.392,137.371 205.337,136.452C194.662,133.257 188.308,125.525 184.419,115.807C180.671,149.545 180.436,157.042 164.008,181.642C147.608,146.499 144.59,103.155 171.927,90.194C133.813,77.074 147.87,50.515 180.67,74.103C164.58,50.984 184.888,42.071 189.105,67.543C212.824,24.218 317.027,39.429 331.15,88.629L315.893,85.359C315.865,85.349 315.856,85.349 315.856,85.349Z" transform="rotate(360 240.093 112.914)" fill="#AC3D50"/>
<path d="M316.484,184.512L316.031,184.262C303.243,177.207 301.478,146.84 301.266,141.546C267.101,150.627 235.784,143.386 208.154,120.016C208.244,129.182 215.699,137.557 215.778,137.645L216.694,138.66L215.327,138.62C211.608,138.51 208.108,137.969 204.923,137.012C195.691,134.248 188.994,128.048 184.51,118.089L184.305,119.94C180.97,150.149 180.074,158.269 164.248,181.967L163.672,182.829L163.233,181.889C146.716,146.492 143.97,104.043 170.19,90.286C154.795,84.697 148.742,77.169 148.241,71.893C147.979,69.138 149.162,66.858 151.573,65.475C156.091,62.881 165.383,63.345 178.304,71.925C172.89,63.069 173.043,56.659 174.998,53.721C176.143,52 177.939,51.255 179.904,51.68C183.194,52.386 187.255,56.501 189.147,65.871C202.191,44.199 233.66,39.406 259.142,42.239C289.506,45.614 323.644,61.217 331.466,88.468L331.735,89.404L317.031,86.253C337.49,113.927 333.938,160.361 316.786,184.093L316.484,184.512ZM302.39,140.033L302.409,140.777C302.418,141.124 303.432,175.194 316.147,182.979C333.053,159.088 336.239,112.656 315.151,85.709L314.412,84.765L315.839,84.807L330.062,87.851C321.878,61.7 288.636,46.692 259.013,43.4C233.372,40.549 201.612,45.469 189.372,67.823L188.56,69.307L188.284,67.638C186.641,57.717 182.612,53.456 179.659,52.822C178.16,52.502 176.85,53.047 175.971,54.368C174.039,57.272 174.172,64.095 180.905,73.77L182.851,76.568L180.084,74.578C166.314,64.676 156.429,64.031 152.155,66.488C150.165,67.63 149.188,69.51 149.403,71.783C149.863,76.612 156.022,84.187 171.872,89.642L173.227,90.109L171.932,90.722C145.318,103.34 147.718,145.221 163.855,180.45C178.966,157.655 179.875,149.425 183.144,119.813L183.851,113.427L184.717,115.59C189.047,126.41 195.766,133.052 205.258,135.893C207.969,136.708 210.92,137.212 214.047,137.395C211.883,134.677 206.499,127.023 207.02,118.741L207.094,117.569L207.983,118.336C235.72,142.232 267.24,149.6 301.671,140.228L302.39,140.033Z" transform="rotate(360 239.97 113.006)" fill="#000072"/>
<g opacity="0.3">
<path d="M317.684,109.933C319.081,112.63 320.356,115.67 321.2,119.274C317.798,150.097 317.021,157.904 301.173,181.642C299.317,177.659 297.631,173.582 296.15,169.45C309.162,149.265 310.684,137.863 313.69,110.668C313.921,108.578 316.716,108.066 317.684,109.933Z" transform="rotate(360 308.675 145.211)" fill="#000072"/>
</g>
<g opacity="0.55">
<path d="M331.148,70.102C310.511,61.358 303.042,76.474 323.144,88.077C294.13,75.425 304.476,54.826 331.148,70.102Z" transform="rotate(360 318.428 76.381)" fill="#FFFFFF"/>
</g>
<g opacity="0.55">
<path d="M326.296,90.522C326.315,90.531 326.334,90.54 326.354,90.549C328.951,91.697 329.501,95.106 327.314,96.92C308.643,112.401 309.353,147.235 321.676,177.603C320.851,178.896 319.97,180.246 319.033,181.642C302.764,146.78 299.662,103.858 326.296,90.522Z" transform="rotate(360 317.605 136.082)" fill="#FFFFFF"/>
</g>
<g opacity="0.55">
<path d="M300.145,73.728L300.082,73.693C289.192,56.928 299.1,47.273 305.716,55.004C302.062,55.544 299.892,61.195 303.95,70.137C305.027,72.509 302.431,74.977 300.145,73.728Z" transform="rotate(360 300.472 63.182)" fill="#FFFFFF"/>
</g>
<g opacity="0.55">
<path d="M289.346,63.326C271.39,55.042 247.343,49.503 225.517,49.4C222.152,55.857 210.812,55.538 206.042,50.946C193.766,53.149 183.372,57.797 176.887,65.547C175.032,67.768 171.405,67.618 169.943,65.116C169.859,64.985 169.784,64.844 169.718,64.685C190.054,38.754 258.654,36.617 289.346,63.326Z" transform="rotate(360 229.532 55.677)" fill="#FFFFFF"/>
</g>
<path d="M316.557,186.563C316.096,186.563 315.629,186.449 315.201,186.213C302.802,179.372 300.033,154.114 299.422,144.376C267.413,152.139 237.909,145.774 211.56,125.435C213.464,131.399 217.623,136.093 217.68,136.155C218.431,136.993 218.613,138.199 218.138,139.219C217.676,140.214 216.68,140.847 215.59,140.847C215.561,140.847 215.533,140.847 215.504,140.846C202.595,140.45 192.772,135.238 186.194,125.323C183.225,151.836 181.534,160.461 166.346,183.204C165.783,184.047 164.816,184.52 163.795,184.446C162.782,184.368 161.89,183.752 161.461,182.831C145.344,148.295 142.235,107.107 165.477,90.711C152.184,84.935 146.784,77.52 146.269,72.104C145.925,68.481 147.543,65.36 150.71,63.543C154.964,61.098 162.784,60.92 173.278,66.255C170.963,59.958 171.569,55.223 173.39,52.487C175.045,50.001 177.751,48.885 180.618,49.502C184.747,50.389 188.174,54.413 190.293,60.632C205.159,41.542 235.119,37.303 259.634,40.025C290.736,43.482 325.747,59.612 333.853,87.853C334.126,88.803 333.88,89.826 333.206,90.548C332.532,91.27 331.529,91.584 330.561,91.378L322.196,89.584C329.807,102.068 333.816,118.077 333.587,135.476C333.333,154.583 327.958,172.779 318.838,185.398C318.292,186.153 317.434,186.563 316.557,186.563ZM302.069,137.98C302.668,137.98 303.258,138.171 303.749,138.536C304.441,139.052 304.858,139.857 304.881,140.72C305.107,149.455 307.547,172.155 315.861,179.79C331.178,156.057 333.6,112.584 313.643,87.082C312.913,86.15 312.845,84.862 313.473,83.859C314.1,82.855 315.284,82.352 316.447,82.6L326.823,84.826C317.08,61.904 286.471,48.666 259.013,45.614C227.688,42.135 201.22,51.271 191.572,68.893C190.995,69.945 189.816,70.517 188.634,70.315C187.452,70.114 186.528,69.186 186.332,68.002C184.767,58.553 181.138,55.366 179.438,55C179.021,54.911 178.532,54.91 178.071,55.602C176.913,57.343 176.448,63.114 182.978,72.498C183.761,73.622 183.619,75.146 182.644,76.107C181.666,77.067 180.14,77.184 179.029,76.386C166.947,67.697 157.505,66.126 153.509,68.42C152.27,69.131 151.733,70.162 151.867,71.572C152.294,76.072 158.946,82.753 172.843,87.536C173.924,87.908 174.672,88.897 174.735,90.039C174.798,91.18 174.165,92.246 173.132,92.735C158.428,99.707 154.816,115.598 154.377,127.702C153.855,142.052 157.513,159.334 164.482,175.791C177.15,156.041 178.048,147.906 181.176,119.568L181.626,115.496C181.769,114.215 182.765,113.195 184.043,113.021C185.324,112.847 186.552,113.567 187.031,114.763C191.558,126.085 198.989,132.618 209.656,134.599C207.24,130.608 204.654,124.791 205.043,118.602C205.11,117.537 205.774,116.601 206.758,116.187C207.741,115.772 208.875,115.95 209.684,116.648C236.827,140.031 267.658,147.242 301.332,138.079C301.575,138.012 301.823,137.98 302.069,137.98Z" transform="rotate(360 240.093 112.92)" fill="#000072"/>
<path d="M167.373,143.604C166.133,143.604 164.997,142.777 164.66,141.522C164.256,140.022 165.145,138.48 166.645,138.076C170.137,137.137 173.667,136.01 177.139,134.725C178.596,134.186 180.213,134.929 180.752,136.385C181.29,137.841 180.547,139.459 179.091,139.998C175.458,141.343 171.763,142.523 168.105,143.506C167.861,143.572 167.615,143.604 167.373,143.604Z" transform="rotate(360 172.745 139.076)" fill="#000072"/>
<g opacity="0.3">
<path d="M269.017,183.751C255.428,176.254 254.528,140.791 254.528,140.791C222.365,149.545 189.818,144.203 160.306,118.778C159.679,128.768 168.047,138.036 168.047,138.036C164.252,137.924 160.85,137.371 157.795,136.452C142.407,111.093 148.958,105.114 171.084,112.911C232.486,132.722 277.189,135.825 268.314,85.349C289.4,112.293 286.776,159.179 269.017,183.751Z" transform="rotate(360 216.322 134.55)" fill="#000072"/>
</g>
<g opacity="0.2">
<path d="M216.464,108.781C216.464,113.04 208.126,116.492 197.84,116.492C187.554,116.492 179.216,113.04 179.216,108.781C179.216,104.522 187.554,104.412 197.84,104.412C208.126,104.411 216.464,104.522 216.464,108.781Z" transform="rotate(360 197.84 110.452)" fill="#FEFEFE"/>
</g>
<path d="M261.551,233.631C261.551,233.631 257.518,236.206 247.009,236.206C244.729,236.364 238.204,236.006 229.959,228.478C229.959,228.478 233.768,239.456 246.763,239.456C246.763,239.456 254.157,240.128 261.551,233.631Z" transform="rotate(360 245.755 233.977)" fill="#000072"/>
<path d="M260.698,184.84C261.581,181.973 263.693,179.587 266.296,177.964C268.913,176.343 272.049,175.513 275.158,175.545C278.271,175.567 281.362,176.459 283.95,178.072C286.527,179.689 288.641,182.008 289.629,184.841C286.801,183.869 284.392,183.093 282.014,182.593C279.652,182.083 277.375,181.831 275.101,181.799C272.826,181.776 270.557,181.977 268.216,182.474C265.86,182.961 263.48,183.756 260.698,184.84Z" transform="rotate(360 275.163 180.193)" fill="#000072"/>
<path d="M217.799,184.84C215.017,183.756 212.637,182.961 210.28,182.474C207.94,181.977 205.67,181.776 203.396,181.799C201.122,181.83 198.845,182.083 196.483,182.593C194.105,183.093 191.696,183.869 188.868,184.841C189.855,182.008 191.97,179.689 194.547,178.072C197.134,176.459 200.226,175.567 203.339,175.545C206.448,175.513 209.584,176.343 212.201,177.964C214.804,179.587 216.916,181.973 217.799,184.84Z" transform="rotate(360 203.333 180.193)" fill="#000072"/>
<path d="M272.337,214.717C277.675,214.717 282.002,209.009 282.002,201.967C282.002,194.926 277.675,189.217 272.337,189.217C266.999,189.217 262.672,194.926 262.672,201.967C262.672,209.009 266.999,214.717 272.337,214.717Z" transform="rotate(360 272.337 201.967)" fill="#000072"/>
<path d="M269.868,203.291C271.481,203.291 272.788,201.374 272.788,199.01C272.788,196.645 271.481,194.729 269.868,194.729C268.256,194.729 266.948,196.645 266.948,199.01C266.948,201.374 268.256,203.291 269.868,203.291Z" transform="rotate(360 269.868 199.01)" fill="#FFFFFF"/>
<path d="M269.869,203.875C267.903,203.875 266.364,201.738 266.364,199.009C266.364,196.281 267.903,194.144 269.869,194.144C271.834,194.144 273.372,196.281 273.372,199.009C273.372,201.738 271.834,203.875 269.869,203.875ZM269.869,195.312C268.603,195.312 267.532,197.005 267.532,199.009C267.532,201.013 268.603,202.707 269.869,202.707C271.135,202.707 272.205,201.013 272.205,199.009C272.205,197.005 271.135,195.312 269.869,195.312Z" transform="rotate(360 269.868 199.01)" fill="#000072"/>
<path d="M205.511,214.717C210.848,214.717 215.176,209.009 215.176,201.967C215.176,194.926 210.848,189.217 205.511,189.217C200.173,189.217 195.846,194.926 195.846,201.967C195.846,209.009 200.173,214.717 205.511,214.717Z" transform="rotate(360 205.511 201.967)" fill="#000072"/>
<path d="M207.979,203.291C209.592,203.291 210.899,201.374 210.899,199.01C210.899,196.645 209.592,194.729 207.979,194.729C206.367,194.729 205.059,196.645 205.059,199.01C205.059,201.374 206.367,203.291 207.979,203.291Z" transform="rotate(360 207.979 199.01)" fill="#FFFFFF"/>
<path d="M207.98,203.875C206.014,203.875 204.476,201.738 204.476,199.009C204.476,196.281 206.014,194.144 207.98,194.144C209.945,194.144 211.483,196.281 211.483,199.009C211.483,201.738 209.945,203.875 207.98,203.875ZM207.98,195.312C206.714,195.312 205.643,197.005 205.643,199.009C205.643,201.013 206.714,202.707 207.98,202.707C209.246,202.707 210.316,201.013 210.316,199.009C210.316,197.005 209.246,195.312 207.98,195.312Z" transform="rotate(360 207.979 199.01)" fill="#000072"/>
<path d="M375.882,428.806C374.384,436.217 370.374,442.594 364.844,447.121C359.314,451.637 352.264,454.304 344.698,454.304L129.859,454.304C114.727,454.304 101.683,443.638 98.676,428.806L375.882,428.806Z" transform="rotate(360 237.279 441.555)" fill="#C6D3E3"/>
<path d="M344.699,454.888L129.859,454.888C114.51,454.888 101.154,443.967 98.103,428.922L97.961,428.221L376.595,428.221L376.453,428.921C374.977,436.222 370.985,442.846 365.213,447.572C359.437,452.289 352.151,454.888 344.699,454.888ZM99.398,429.39C102.606,443.53 115.302,453.719 129.859,453.719L344.699,453.719C351.883,453.719 358.907,451.215 364.473,446.668C369.853,442.263 373.629,436.149 375.159,429.39L99.398,429.39Z" transform="rotate(360 237.279 441.554)" fill="#000072"/>
<path d="M344.695,457.808L129.853,457.808C113.119,457.808 98.563,445.905 95.239,429.505C95.03,428.474 95.295,427.405 95.96,426.591C96.626,425.777 97.621,425.305 98.673,425.305L375.877,425.305C376.929,425.305 377.923,425.777 378.589,426.591C379.255,427.405 379.519,428.474 379.311,429.505C375.987,445.905 361.429,457.808 344.695,457.808ZM103.304,432.313C107.359,443.243 117.915,450.8 129.854,450.8L344.695,450.8C356.633,450.8 367.189,443.242 371.247,432.313L103.304,432.313Z" transform="rotate(360 237.275 441.556)" fill="#000072"/>
<g opacity="0.3">
<path d="M262.746,428.806C261.247,436.217 257.237,442.594 251.707,447.121C246.178,451.637 239.129,454.304 231.563,454.304L98.676,454.304C120.515,453.27 139.874,447.245 156.535,435.751C156.535,435.751 157.683,432.95 160.225,428.806L262.746,428.806Z" transform="rotate(360 180.711 441.555)" fill="#000072"/>
</g>
<path d="M375.788,294.089L364.574,421.963C363.892,429.767 357.36,435.751 349.526,435.751L125.011,435.751C117.187,435.751 110.655,429.767 109.962,421.963L98.758,294.089C97.652,281.531 107.554,270.72 120.153,270.72L354.382,270.72C358.506,270.72 362.342,271.877 365.598,273.872C372.294,277.986 376.532,285.645 375.788,294.089Z" transform="rotate(360 237.273 353.235)" fill="#C6D3E3"/>
<path d="M349.522,436.336L125.009,436.336C116.822,436.336 110.102,430.179 109.378,422.015L98.174,294.14C97.633,287.992 99.714,281.854 103.884,277.3C108.053,272.747 113.983,270.136 120.151,270.136L354.38,270.136C358.458,270.136 362.44,271.256 365.9,273.375C373.096,277.795 377.106,285.752 376.368,294.141L376.368,294.141L365.154,422.015C364.44,430.179 357.72,436.336 349.522,436.336ZM120.151,271.304C114.309,271.304 108.694,273.777 104.745,278.089C100.795,282.401 98.824,288.215 99.338,294.038L110.542,421.913C111.212,429.469 117.431,435.167 125.009,435.167L349.522,435.167C357.11,435.167 363.33,429.469 363.99,421.913L375.204,294.038C375.906,286.094 372.106,278.557 365.29,274.37C362.016,272.364 358.242,271.304 354.38,271.304L120.151,271.304Z" transform="rotate(360 237.272 353.236)" fill="#000072"/>
<g opacity="0.75">
<path d="M375.873,280.208C373.135,278.926 370.075,278.213 366.829,278.213L132.6,278.213C120,278.213 110.098,289.025 111.205,301.582L122.408,429.457C122.584,431.451 123.142,433.322 124.01,435.007C118.388,433.188 114.171,428.144 113.623,421.963L102.419,294.089C101.313,281.531 111.215,270.72 123.814,270.72L358.043,270.72C365.507,270.72 372.029,274.513 375.873,280.208Z" transform="rotate(360 239.104 352.863)" fill="#FFFFFF"/>
</g>
<path d="M349.534,439.251L125.018,439.251C115.299,439.251 107.329,431.949 106.479,422.267L95.267,294.391C94.657,287.429 97.013,280.48 101.735,275.327C106.456,270.174 113.172,267.218 120.161,267.218L354.39,267.218C361.378,267.218 368.096,270.174 372.816,275.327C377.538,280.48 379.894,287.429 379.284,294.391L368.072,422.266C367.224,431.949 359.254,439.251 349.534,439.251ZM120.161,274.226C115.058,274.226 110.349,276.298 106.902,280.061C103.455,283.823 101.802,288.695 102.248,293.779L113.461,421.654C113.991,427.691 118.959,432.243 125.018,432.243L349.534,432.243C355.594,432.243 360.562,427.691 361.09,421.654L372.302,293.779C372.748,288.695 371.096,283.824 367.65,280.061C364.202,276.298 359.494,274.226 354.39,274.226L120.161,274.226Z" transform="rotate(360 237.275 353.234)" fill="#000072"/>
<g opacity="0.3">
<path d="M327.456,294.089L316.242,421.963C315.56,429.767 309.028,435.751 301.194,435.751L98.674,435.751C223.292,425.943 300.398,375.597 317.224,273.862L317.266,273.872C323.964,277.986 328.2,285.645 327.456,294.089Z" transform="rotate(360 213.107 354.807)" fill="#000072"/>
</g>
<g opacity="0.3">
<path d="M339.416,378.053L325.351,379.369C321.705,379.711 318.472,377.031 318.13,373.384L313.299,321.758C312.957,318.111 315.637,314.878 319.284,314.537L333.348,313.221C336.995,312.879 340.228,315.559 340.569,319.206L345.401,370.832C345.742,374.478 343.062,377.712 339.416,378.053Z" transform="rotate(360 329.35 346.295)" fill="#FFFFFF"/>
</g>
<path d="M274.828,351.938L262.156,344.906C261.406,344.531 260.562,344.531 259.812,344.906L254.75,347.766L254.75,328.219L217.25,328.219L217.25,347.766L212.187,344.906C211.438,344.531 210.594,344.531 209.844,344.906L197.172,351.938C196.469,352.359 196,353.156 196,354C196,354.844 196.469,355.641 197.172,356.063L206.188,361.031L230.141,381.844L241.859,381.844L265.812,361.031L274.828,356.063C275.531,355.641 276,354.844 276,354C276,353.156 275.531,352.359 274.828,351.938ZM236,358.359L224.135,351.656L247.865,351.656L236,358.359Z" fill="url(#pf_0_2_1063)"/>
<path d="M274.828,366L265.812,361.031L237.172,377.156C236.797,377.344 236.375,377.438 236,377.438C235.625,377.438 235.203,377.344 234.828,377.156L206.188,361.031L197.172,366C196.469,366.422 196,367.219 196,368.062C196,368.906 196.469,369.703 197.172,370.125L234.828,391.219C235.203,391.406 235.625,391.5 236,391.5C236.375,391.5 236.797,391.406 237.172,391.219L274.828,370.125C275.531,369.703 276,368.906 276,368.062C276,367.219 275.531,366.422 274.828,366ZM197.172,342L234.828,363.094C235.203,363.281 235.625,363.375 236,363.375C236.375,363.375 236.797,363.281 237.172,363.094L274.828,342C275.531,341.578 276,340.781 276,339.938C276,339.094 275.531,338.297 274.828,337.875L237.172,316.781C236.422,316.406 235.578,316.406 234.828,316.781L197.172,337.875C196.469,338.297 196,339.094 196,339.938C196,340.781 196.469,341.578 197.172,342ZM243.735,336.89C242.797,336 242.797,334.5 243.735,333.609C244.625,332.672 246.125,332.672 247.016,333.609L251.703,338.297C252.641,339.187 252.641,340.687 251.703,341.578L247.016,346.265C246.173,347.203 244.578,347.203 243.735,346.265C242.797,345.375 242.797,343.875 243.735,342.984L246.734,339.938L243.735,336.89ZM232.531,344.062L234.875,334.688C235.203,333.422 236.469,332.672 237.734,333C239,333.281 239.75,334.547 239.469,335.812L237.125,345.187C236.726,346.718 234.996,347.24 234.266,346.875C233,346.594 232.25,345.328 232.531,344.062ZM220.297,338.297L224.985,333.609C225.875,332.672 227.375,332.672 228.266,333.609C229.203,334.5 229.203,336 228.266,336.89L225.266,339.938L228.265,342.984C229.203,343.875 229.203,345.375 228.265,346.265C227.422,347.203 225.828,347.203 224.984,346.265L220.297,341.578C219.359,340.687 219.359,339.187 220.297,338.297Z" fill="url(#pf_0_2_1066)"/>
<defs>
<linearGradient id="pf_0_2_1063" x1="236" y1="381.844" x2="236" y2="328.219" gradientUnits="userSpaceOnUse">
<stop stop-color="#ADDCFF"/>
<stop offset="0.503" stop-color="#EAF6FF"/>
<stop offset="1" stop-color="#EAF6FF"/>
</linearGradient>
<linearGradient id="pf_0_2_1066" x1="236" y1="391.5" x2="236" y2="316.5" gradientUnits="userSpaceOnUse">
<stop stop-color="#5558FF"/>
<stop offset="1" stop-color="#000072"/>
</linearGradient>
</defs>
</svg>
