<svg width="448" height="418" viewBox="0 0 448 418" fill="none" xmlns="http://www.w3.org/2000/svg" xmlns:xlink="http://www.w3.org/1999/xlink">
<path d="M222.939,417.707C315.286,417.707 390.148,414.562 390.148,410.682C390.148,406.802 315.286,403.657 222.939,403.657C130.592,403.657 55.73,406.802 55.73,410.682C55.73,414.562 130.592,417.707 222.939,417.707Z" fill="#E7ECFF"/>
<path d="M249.713,259.39C249.713,259.39 257.26,252.536 259.348,254.757C260.711,256.208 255.874,259.943 255.874,259.943C255.874,259.943 263.475,259.299 267.025,259.466C273.529,259.772 271.956,275.887 250.749,269.28L249.713,259.39Z" fill="#FDCCC5"/>
<path d="M195.803,209.357C193.496,210.452 189.856,216.31 188.838,223.106C187.044,235.072 191.972,261.952 202.925,269.411C212.755,276.106 250.47,269.855 250.47,269.855C252.5,269.685 251.594,258.877 249.564,259.047C249.564,259.047 220.522,259.78 213.714,253.081C206.779,246.257 208.818,224.18 204.134,215.362C203.042,213.308 197.904,208.359 195.803,209.357Z" fill="url(#pf_0_7_1608)"/>
<path d="M275.206,384.989C274.16,389.528 275.088,393.244 276.672,396.688L266.277,397.99L264.811,386.292L275.206,384.989Z" fill="#FDCCC5"/>
<path d="M298.41,400.628C298.411,400.636 298.411,400.636 298.411,400.636L298.414,400.659C298.636,401.87 298.084,403.091 297.011,403.728C294.945,404.951 290.894,406.721 285.224,406.333C276.746,405.742 269.137,407.651 266.11,408.336C265.043,408.58 264.263,407.11 263.829,405.023C263.81,404.932 263.791,404.84 263.779,404.748C263.145,401.377 263.427,396.622 264.93,394.85C265.026,394.736 265.123,394.638 265.229,394.546C265.357,394.436 265.494,394.348 265.643,394.283C267.841,393.302 272.906,398.437 275.238,395.087C275.499,394.726 275.328,394.112 275.096,393.388C274.993,393.064 274.878,392.71 274.778,392.354C274.685,392.007 274.73,391.628 274.84,391.264C275.125,390.328 276.27,389.973 277.074,390.531C277.713,390.976 278.616,391.579 279.842,392.347C280.063,392.484 280.28,392.652 280.505,392.82C280.66,392.926 280.815,393.04 280.978,393.153C281.549,393.576 282.12,393.943 282.678,394.265C282.915,394.408 283.151,394.535 283.378,394.663C283.981,394.972 284.564,395.244 285.15,395.476C285.398,395.579 285.645,395.673 285.899,395.759C290.923,397.497 295.005,396.413 296.649,397.587C297.69,398.319 298.17,399.521 298.396,400.575C298.405,400.589 298.408,400.613 298.41,400.628Z" fill="url(#pf_0_7_1616)"/>
<path d="M265.237,405.644C265.237,405.644 263.247,402.115 265.105,398.354C265.105,398.354 268.523,401.305 271.443,400.678C274.363,400.051 277.06,395.984 277.06,395.984C277.06,395.984 277.261,397.255 276.244,399.29C276.244,399.29 278.002,398.996 279.216,397.013C279.216,397.013 279.465,398.597 278.072,400.258C278.072,400.258 280.169,399.769 281.693,398.278C281.693,398.278 281.291,399.975 280.017,401.08C280.017,401.08 282.675,403.052 284.14,402.882L280.447,405.315L266.534,407.433L265.237,405.644Z" fill="#070159"/>
<path d="M297.015,403.729C294.948,404.947 290.893,406.717 285.227,406.331C276.746,405.739 269.139,407.65 266.108,408.34C265.045,408.579 264.26,407.106 263.829,405.026C263.811,404.934 263.793,404.843 263.781,404.746C268.467,401.972 276.12,401.394 282.439,403.356C289.355,405.5 296.616,402.934 298.392,400.63C298.397,400.625 298.403,400.625 298.408,400.631C298.413,400.636 298.408,400.636 298.408,400.636C298.413,400.642 298.412,400.652 298.412,400.658C298.64,401.869 298.087,403.095 297.015,403.729Z" fill="#070159"/>
<path d="M280.507,392.818C280.134,393.589 279.393,394.677 278.033,395.471C277.926,395.537 277.791,395.54 277.683,395.495C277.604,395.463 277.534,395.406 277.486,395.328C277.373,395.137 277.439,394.893 277.629,394.78C278.89,394.044 279.534,393.008 279.839,392.348C280.057,392.494 280.28,392.655 280.507,392.818Z" fill="#FFFFFF"/>
<path d="M283.38,394.66C282.98,395.397 282.15,396.547 280.626,397.291C280.517,397.345 280.402,397.344 280.298,397.301C280.209,397.265 280.133,397.198 280.09,397.106C279.991,396.909 280.074,396.666 280.275,396.569C281.611,395.916 282.341,394.898 282.68,394.269C282.916,394.412 283.148,394.536 283.38,394.66Z" fill="#FFFFFF"/>
<path d="M285.899,395.756C285.593,396.503 284.859,397.842 283.275,398.776C283.165,398.846 283.031,398.849 282.923,398.804C282.843,398.772 282.774,398.715 282.727,398.632C282.615,398.441 282.681,398.197 282.871,398.084C284.247,397.279 284.886,396.115 285.147,395.477C285.402,395.575 285.651,395.672 285.899,395.756Z" fill="#FFFFFF"/>
<path d="M275.466,394.588C275.492,395.299 275.238,396.028 274.711,396.51C274.337,396.847 273.844,397.042 273.346,397.128C272.839,397.215 272.327,397.193 271.826,397.138C271.191,397.076 270.558,396.968 269.942,396.809C268.833,396.525 267.759,396.095 266.757,395.539C266.259,395.256 265.781,394.948 265.323,394.605C265.297,394.585 265.263,394.565 265.229,394.546C265.356,394.436 265.494,394.348 265.643,394.283C267.841,393.302 272.906,398.437 275.238,395.088C275.499,394.726 275.328,394.112 275.096,393.388C275.343,393.734 275.451,394.159 275.466,394.588Z" fill="#070159"/>
<path d="M276.943,388.588C277.099,389.918 263.617,391.459 263.462,390.128L240.061,306.392L193.728,311.72L184.696,280.743C214.779,282.431 235.888,280.616 253.345,289.835C268.958,298.081 276.943,388.588 276.943,388.588Z" fill="url(#pf_0_7_1628)"/>
<path d="M222.939,405.332L216.941,405.332L212.989,369.397L156.581,369.397L152.629,405.332L146.632,405.332L156.55,319.889L162.556,319.889L157.383,362.738L212.188,362.738L207.015,319.889L213.02,319.889L222.939,405.332Z" fill="url(#pf_0_7_1630)"/>
<path d="M144.13,209.684C158.336,215.854 110.198,324.121 219.884,305.567C231.365,305.567 231.778,321.976 219.917,322.723C219.917,322.723 147.11,332.804 132.455,313.523C119.712,296.757 117.56,198.143 144.13,209.684Z" fill="url(#pf_0_7_1631)"/>
<path d="M227.988,317.386C226.83,320.189 224.154,322.45 219.921,322.721C219.921,322.721 147.106,332.804 132.456,313.524C120.302,297.536 117.788,207.131 140.613,208.768C127.799,228.392 131.208,294.597 141.436,308.053C155.127,326.067 219.56,318.462 227.988,317.386Z" fill="#C2D5FF"/>
<path d="M207.479,281.827C186.56,283.862 167.288,282.499 143.136,280.741C149.941,247.584 132.557,220.449 142.98,210.063C153.78,199.29 191.909,199.437 200.021,212.356C207.719,224.611 202.664,257.427 207.479,281.827Z" fill="url(#pf_0_7_1633)"/>
<path d="M171.444,240.739L179.843,249.608L184.855,240.739C184.005,231.986 178.671,220.928 172.111,209.239C173.72,221.297 174.358,232.528 171.444,240.739Z" fill="#FFFFFF"/>
<path d="M188.074,179.634C187.67,193.741 183.415,194.857 177.363,194.857L177.363,202.715L172.293,209.825L162.502,202.635L162.502,186.732C161.752,184.777 159.396,182.418 159.396,179.634C159.396,168.696 165.823,159.821 173.731,159.821C181.658,159.821 188.726,156.672 188.074,179.634Z" fill="#FDCCC5"/>
<path d="M164.08,150.875C157.347,150.184 162.097,157.285 162.097,157.285C162.097,157.285 148.846,159.868 156.743,171.713C156.743,171.713 153.291,178.885 158.381,183.996L162.74,176.024C162.74,176.024 169.709,174.373 165.654,169.629C175.993,170.42 180.803,168.951 178.86,164.422C178.86,164.422 186.834,160.398 188.103,172.823C188.103,172.823 192.27,171.19 191.459,167.071C191.459,167.071 196.928,161.941 190.582,161.468C190.582,161.468 197.56,148.741 184.101,150.801C184.101,150.801 170.812,151.567 164.08,150.875Z" fill="url(#pf_0_7_1638)"/>
<path d="M157.445,178.78C157.438,178.78 157.43,178.779 157.422,178.778C157.312,178.766 157.233,178.666 157.245,178.556C157.248,178.531 157.559,176.035 160.257,175.575C162.542,175.186 163.769,176.632 164.049,177.014L175.107,177.65C175.218,177.657 175.303,177.752 175.296,177.863C175.29,177.974 175.214,178.06 175.084,178.053L163.929,177.41C163.863,177.407 163.803,177.37 163.769,177.315C163.725,177.243 162.663,175.57 160.325,175.971C157.93,176.38 157.655,178.511 157.645,178.601C157.633,178.703 157.546,178.78 157.445,178.78Z" fill="#47090E"/>
<path d="M183.33,172.626C183.131,172.682 182.93,172.748 182.777,172.868C182.623,172.989 182.526,173.174 182.58,173.344C182.654,173.577 182.963,173.691 183.241,173.749C184.51,174.016 185.917,173.77 186.954,173.099C187.055,173.034 187.159,172.957 187.186,172.852C187.304,172.407 185.78,172.382 185.484,172.373C184.755,172.349 184.022,172.434 183.33,172.626Z" fill="url(#pf_0_7_1641)"/>
<path d="M175.643,172.626C175.444,172.682 175.243,172.748 175.09,172.868C174.936,172.989 174.839,173.174 174.893,173.344C174.967,173.577 175.276,173.691 175.554,173.749C176.822,174.016 178.229,173.77 179.267,173.099C179.368,173.034 179.472,172.957 179.499,172.852C179.617,172.407 178.093,172.382 177.796,172.373C177.068,172.349 176.335,172.434 175.643,172.626Z" fill="url(#pf_0_7_1642)"/>
<path d="M158.529,184.283C160.16,187.297 163.052,188.625 164.98,187.249C166.915,185.869 167.153,182.308 165.523,179.294C163.887,176.271 161.002,174.937 159.067,176.318C157.138,177.693 156.894,181.259 158.529,184.283Z" fill="#FDCCC5"/>
<path d="M181.986,184.896C181.825,184.896 181.663,184.891 181.505,184.887L181.259,184.881C181.037,184.876 180.861,184.693 180.865,184.471C180.869,184.252 181.048,184.076 181.267,184.076C181.27,184.076 181.272,184.076 181.275,184.076L181.528,184.083C181.974,184.097 182.797,184.119 182.925,183.906C182.979,183.816 182.944,183.539 182.669,183.054C181.615,181.196 181.143,179.246 181.123,179.165C181.072,178.948 181.205,178.732 181.421,178.68C181.638,178.632 181.854,178.761 181.906,178.978C181.911,178.996 182.374,180.901 183.369,182.656C183.776,183.374 183.856,183.918 183.615,184.32C183.316,184.817 182.657,184.896 181.986,184.896Z" fill="#F7B4AD"/>
<path d="M179.81,178.54C179.81,178.873 179.537,179.146 179.204,179.146C178.871,179.146 178.598,178.873 178.598,178.54C178.598,178.207 178.871,177.934 179.204,177.934C179.537,177.934 179.81,178.207 179.81,178.54Z" fill="#47090E"/>
<path d="M187.193,178.457C187.193,178.79 186.92,179.063 186.587,179.063C186.254,179.063 185.981,178.79 185.981,178.457C185.981,178.124 186.254,177.851 186.587,177.851C186.92,177.851 187.193,178.124 187.193,178.457Z" fill="#47090E"/>
<path d="M181.405,189.382C179.875,189.382 178.654,188.512 178.634,188.498C178.455,188.367 178.415,188.116 178.545,187.937C178.675,187.757 178.927,187.716 179.107,187.847C179.219,187.928 181.856,189.787 183.933,187.266C184.075,187.095 184.329,187.069 184.5,187.212C184.671,187.353 184.696,187.606 184.554,187.778C183.54,189.009 182.406,189.382 181.405,189.382Z" fill="#F7B4AD"/>
<path d="M185.723,182.642C184.071,182.642 182.727,180.958 182.727,178.886C182.727,176.816 184.071,175.132 185.723,175.132C187.375,175.132 188.719,176.816 188.719,178.886C188.719,180.958 187.375,182.642 185.723,182.642ZM185.723,175.534C184.293,175.534 183.129,177.038 183.129,178.886C183.129,180.735 184.293,182.239 185.723,182.239C187.153,182.239 188.317,180.735 188.317,178.886C188.317,177.038 187.153,175.534 185.723,175.534Z" fill="#47090E"/>
<path d="M177.769,182.642C176.117,182.642 174.773,180.958 174.773,178.886C174.773,176.816 176.117,175.132 177.769,175.132C179.421,175.132 180.765,176.816 180.765,178.886C180.765,180.958 179.421,182.642 177.769,182.642ZM177.769,175.534C176.339,175.534 175.175,177.038 175.175,178.886C175.175,180.735 176.339,182.239 177.769,182.239C179.199,182.239 180.363,180.735 180.363,178.886C180.363,177.038 179.199,175.534 177.769,175.534Z" fill="#47090E"/>
<path d="M183.112,177.823C183.075,177.823 183.037,177.813 183.003,177.791C181.963,177.121 180.482,177.797 180.467,177.804C180.367,177.85 180.246,177.807 180.2,177.707C180.153,177.606 180.196,177.487 180.297,177.439C180.365,177.407 181.993,176.66 183.221,177.453C183.314,177.512 183.341,177.637 183.281,177.731C183.243,177.791 183.178,177.823 183.112,177.823Z" fill="#47090E"/>
<path d="M177.364,194.798C177.364,194.798 173.056,194.575 169.776,192.44C169.776,192.44 171.568,196.514 177.364,197.274L177.364,194.798Z" fill="#F7B4AD"/>
<path d="M162.573,202.692C162.573,202.692 160.066,202.103 159.504,202.969C158.01,205.272 162.895,213.1 165.988,214.054C168.091,214.703 172.293,209.825 172.293,209.825L162.573,202.692Z" fill="#FFFFFF"/>
<path d="M177.364,202.715C177.364,202.715 179.859,202.154 180.803,202.969C183.216,205.051 182.737,212.963 180.219,214.054C178.437,214.827 172.293,209.825 172.293,209.825L177.364,202.715Z" fill="#FFFFFF"/>
<path d="M245.586,385.52C243.984,389.893 244.442,393.696 245.586,397.309L235.11,397.309L235.11,385.52L245.586,385.52Z" fill="#FDCCC5"/>
<path d="M266.666,403.922C266.666,403.93 266.666,403.93 266.666,403.93L266.666,403.953C266.736,405.182 266.035,406.325 264.892,406.823C262.69,407.78 258.451,409.033 252.873,407.944C244.533,406.302 236.746,407.251 233.658,407.555C232.569,407.664 231.978,406.108 231.806,403.984C231.799,403.891 231.791,403.797 231.791,403.704C231.581,400.281 232.452,395.598 234.163,394.026C234.272,393.925 234.381,393.84 234.498,393.762C234.638,393.668 234.786,393.598 234.941,393.552C237.244,392.852 241.632,398.577 244.362,395.543C244.666,395.217 244.572,394.586 244.432,393.84C244.37,393.505 244.3,393.139 244.245,392.774C244.196,392.418 244.287,392.047 244.442,391.7C244.842,390.807 246.022,390.596 246.749,391.251C247.328,391.771 248.15,392.482 249.271,393.396C249.473,393.559 249.668,393.754 249.87,393.948C250.01,394.073 250.15,394.205 250.298,394.337C250.811,394.827 251.332,395.263 251.846,395.652C252.064,395.823 252.282,395.979 252.492,396.134C253.052,396.516 253.596,396.858 254.149,397.161C254.382,397.293 254.615,397.418 254.856,397.535C259.625,399.884 263.81,399.316 265.296,400.685C266.238,401.541 266.564,402.793 266.658,403.867C266.666,403.883 266.666,403.906 266.666,403.922Z" fill="url(#pf_0_7_1667)"/>
<path d="M233.126,404.774C233.126,404.774 231.59,401.025 233.902,397.525C233.902,397.525 236.926,400.878 239.901,400.618C242.877,400.36 246.058,396.66 246.058,396.66C246.058,396.66 246.1,397.946 244.837,399.838C244.837,399.838 246.619,399.765 248.07,397.949C248.07,397.949 248.12,399.551 246.531,401.026C246.531,401.026 248.673,400.801 250.37,399.511C250.37,399.511 249.76,401.145 248.359,402.083C248.359,402.083 250.751,404.37 252.226,404.384L248.259,406.339L234.19,406.711L233.126,404.774Z" fill="#070159"/>
<path d="M264.895,406.825C262.693,407.777 258.45,409.029 252.876,407.941C244.534,406.299 236.749,407.25 233.655,407.558C232.571,407.663 231.975,406.104 231.806,403.986C231.8,403.893 231.793,403.8 231.793,403.702C236.787,401.533 244.453,401.911 250.479,404.643C257.075,407.63 264.599,405.986 266.647,403.922C266.653,403.917 266.658,403.918 266.663,403.924C266.667,403.93 266.662,403.929 266.662,403.929C266.666,403.936 266.665,403.946 266.664,403.951C266.739,405.182 266.038,406.329 264.895,406.825Z" fill="#070159"/>
<path d="M249.873,393.946C249.406,394.665 248.536,395.653 247.088,396.272C246.973,396.324 246.839,396.31 246.737,396.252C246.663,396.21 246.601,396.144 246.562,396.061C246.474,395.858 246.57,395.624 246.773,395.536C248.115,394.962 248.883,394.014 249.268,393.397C249.466,393.569 249.667,393.757 249.873,393.946Z" fill="#FFFFFF"/>
<path d="M252.494,396.131C252.005,396.812 251.039,397.851 249.434,398.399C249.32,398.439 249.206,398.424 249.108,398.369C249.024,398.321 248.956,398.246 248.925,398.149C248.851,397.942 248.964,397.711 249.175,397.64C250.583,397.157 251.433,396.238 251.847,395.656C252.064,395.827 252.279,395.979 252.494,396.131Z" fill="#FFFFFF"/>
<path d="M254.857,397.532C254.461,398.235 253.566,399.473 251.878,400.202C251.76,400.258 251.627,400.245 251.525,400.187C251.45,400.145 251.389,400.079 251.353,399.992C251.265,399.788 251.36,399.554 251.563,399.466C253.028,398.838 253.807,397.762 254.146,397.162C254.386,397.291 254.621,397.418 254.857,397.532Z" fill="#FFFFFF"/>
<path d="M244.65,395.076C244.588,395.784 244.246,396.477 243.662,396.889C243.25,397.177 242.736,397.309 242.231,397.332C241.717,397.356 241.212,397.27 240.721,397.154C240.099,397.014 239.485,396.827 238.893,396.593C237.828,396.174 236.816,395.613 235.891,394.937C235.432,394.594 234.996,394.229 234.584,393.832C234.56,393.809 234.529,393.785 234.498,393.762C234.638,393.668 234.786,393.599 234.941,393.552C237.244,392.852 241.632,398.577 244.362,395.543C244.666,395.217 244.572,394.587 244.432,393.84C244.635,394.213 244.689,394.649 244.65,395.076Z" fill="#070159"/>
<path d="M246.837,390.128C246.798,391.536 231.994,391.202 232.025,389.794L226.152,313.222C226.152,313.222 163.217,318.979 150.506,312.164C139.552,306.298 138.611,273.936 147.417,277.025C178.916,288.079 222.659,269.728 243.025,294.077C255.768,309.309 246.837,390.128 246.837,390.128Z" fill="url(#pf_0_7_1680)"/>
<path d="M367.239,284.571L362.843,291.243C361.473,293.322 359.151,294.574 356.661,294.574L85.757,294.574C83.266,294.574 80.943,293.322 79.573,291.243L75.178,284.571C71.935,279.648 75.466,273.093 81.361,273.093L361.055,273.093C366.951,273.093 370.483,279.648 367.239,284.571Z" fill="url(#pf_0_7_1683)"/>
<path d="M367.243,284.572L362.843,291.24C361.473,293.323 359.147,294.574 356.663,294.574L85.754,294.574C83.271,294.574 80.944,293.323 79.575,291.24L75.176,284.572C73.954,282.705 73.699,280.613 74.159,278.736C74.354,279.518 74.687,280.29 75.176,281.033L79.575,287.701C80.944,289.783 83.271,291.035 85.754,291.035L356.663,291.035C359.147,291.035 361.473,289.783 362.843,287.701L367.243,281.033C367.731,280.29 368.063,279.518 368.259,278.736C368.719,280.613 368.465,282.705 367.243,284.572Z" fill="#ADC8F7"/>
<rect  x="340.872" y="294.569" width="8.767" height="116.113" fill="url(#pf_0_7_1685)"/>
<rect  x="314.037" y="294.569" width="8.767" height="116.113" fill="url(#pf_0_7_1686)"/>
<rect  x="124.88" y="294.569" width="8.767" height="116.113" fill="url(#pf_0_7_1687)"/>
<rect  x="98.045" y="294.569" width="8.767" height="116.113" fill="url(#pf_0_7_1688)"/>
<path d="M195.677,264.844C197.231,263.088 200.996,259.516 202.557,261.099C203.338,261.891 200.817,264.88 200.817,264.88C200.817,264.88 204.775,264.247 207.828,264.326C213.421,264.47 214.083,278.945 195.742,273.655L195.677,264.844Z" fill="#FDCCC5"/>
<path d="M195.319,274.395C195.319,274.395 152.347,280.702 145.23,273.461C138.922,267.049 137.712,239.046 137.874,227.526C137.998,218.961 141.371,209.328 146.583,207.384C154.748,204.345 153.939,254.367 159.227,259.655C164.962,265.381 195.166,263.78 195.166,263.78C196.529,263.761 196.691,274.366 195.319,274.395Z" fill="url(#pf_0_7_1690)"/>
<path d="M69.917,381.932C70.083,379.03 68.796,374.242 67.56,371.611C66.324,368.979 64.547,366.625 62.51,364.55C61.116,363.131 59.575,361.819 57.78,360.96C55.985,360.102 53.908,359.723 51.978,360.208C50.048,360.694 48.312,362.128 47.748,364.036C47.396,365.226 47.506,366.515 47.866,367.702C48.719,370.512 50.91,372.763 53.421,374.287C55.932,375.811 58.768,376.698 61.572,377.57C64.377,378.442 67.404,380.413 69.917,381.932Z" fill="url(#pf_0_7_1693)"/>
<path d="M74.826,384.723C74.661,381.82 75.948,377.032 77.184,374.401C78.42,371.769 80.197,369.415 82.234,367.341C83.628,365.921 85.169,364.609 86.964,363.751C88.759,362.892 90.836,362.514 92.766,362.999C94.696,363.484 96.432,364.919 96.996,366.827C97.348,368.016 97.238,369.306 96.878,370.492C96.025,373.303 93.834,375.553 91.323,377.077C88.812,378.601 85.976,379.489 83.172,380.361C80.367,381.233 77.34,383.204 74.826,384.723Z" fill="url(#pf_0_7_1694)"/>
<path d="M73.905,377.444C73.905,377.444 99.063,339.964 74.978,335.338C51.555,330.839 73.905,377.444 73.905,377.444Z" fill="url(#pf_0_7_1695)"/>
<path d="M72.137,389.522C72.259,389.522 72.358,389.423 72.358,389.3C72.368,378.41 55.65,365.995 54.938,365.472C54.84,365.398 54.701,365.42 54.628,365.519C54.556,365.617 54.577,365.756 54.676,365.828C54.848,365.955 71.924,378.634 71.915,389.3C71.915,389.423 72.014,389.522 72.137,389.522Z" fill="#ADC8F7"/>
<path d="M73.624,389.248C73.741,389.248 73.84,389.155 73.845,389.036C74.281,379.728 92.079,367.938 92.26,367.82C92.362,367.753 92.39,367.616 92.323,367.513C92.255,367.41 92.118,367.382 92.016,367.45C91.274,367.936 73.849,379.483 73.402,389.015C73.396,389.138 73.491,389.242 73.613,389.248C73.617,389.248 73.62,389.248 73.624,389.248Z" fill="#ADC8F7"/>
<path d="M71.839,389.522C71.938,389.522 72.028,389.456 72.054,389.356C76.351,372.836 74.763,343.488 74.746,343.193C74.74,343.071 74.639,342.975 74.512,342.984C74.39,342.991 74.297,343.096 74.304,343.218C74.32,343.511 75.904,372.792 71.625,389.244C71.594,389.363 71.665,389.484 71.783,389.515C71.802,389.519 71.821,389.522 71.839,389.522Z" fill="#ADC8F7"/>
<path d="M61.011,387.504C60.281,387.504 59.689,388.095 59.689,388.825L59.689,398.574C59.689,404.055 63.056,408.718 67.813,410.679C67.989,410.752 68.18,410.787 68.369,410.787L77.331,410.787C77.521,410.787 77.712,410.752 77.887,410.679C82.644,408.718 86.012,404.055 86.012,398.574L86.012,388.825C86.012,388.095 85.42,387.504 84.69,387.504L61.011,387.504Z" fill="url(#pf_0_7_1703)"/>
<path d="M59.689,392.561L59.689,388.825C59.689,388.095 60.281,387.503 61.01,387.503L84.69,387.503C85.42,387.503 86.011,388.095 86.011,388.825L86.011,392.561L59.689,392.561Z" fill="#78A7FF"/>
<path d="M68.072,400.126C68.072,402.763 70.212,404.903 72.849,404.903C75.492,404.903 77.627,402.763 77.627,400.126C77.627,397.483 75.492,395.342 72.849,395.342C70.212,395.342 68.072,397.483 68.072,400.126Z" fill="#78A7FF"/>
<path d="M442.129,80.106L442.129,172.269C442.129,177.524 437.854,181.799 432.606,181.799L353.052,181.799L324.159,202.105C322.231,203.46 319.575,202.081 319.575,199.724L319.575,181.799L292.729,181.799C287.48,181.799 283.206,177.524 283.206,172.269L283.206,80.106C283.206,74.85 287.48,70.576 292.729,70.576L432.606,70.576C437.854,70.576 442.129,74.85 442.129,80.106Z" fill="url(#pf_0_7_1709)"/>
<path d="M438.082,80.103L438.082,172.27C438.082,175.296 435.63,177.748 432.604,177.748L292.732,177.748C289.706,177.748 287.254,175.296 287.254,172.27L287.254,80.103C287.254,77.077 289.706,74.625 292.732,74.625L432.604,74.625C435.63,74.625 438.082,77.077 438.082,80.103Z" fill="url(#pf_0_7_1710)"/>
<path d="M279.26,86.208C279.038,86.208 278.858,86.028 278.858,85.806L278.858,79.325C278.858,72.325 284.553,66.631 291.553,66.631L300.718,66.631C300.94,66.631 301.12,66.811 301.12,67.033C301.12,67.255 300.94,67.435 300.718,67.435L291.553,67.435C284.996,67.435 279.663,72.769 279.663,79.325L279.663,85.806C279.663,86.028 279.483,86.208 279.26,86.208Z" fill="#ADC8F7"/>
<path d="M300.718,185.743L291.553,185.743C284.553,185.743 278.858,180.047 278.858,173.047L278.858,166.567C278.858,166.345 279.038,166.165 279.26,166.165C279.483,166.165 279.663,166.345 279.663,166.567L279.663,173.047C279.663,179.604 284.996,184.938 291.553,184.938L300.718,184.938C300.94,184.938 301.12,185.118 301.12,185.34C301.12,185.563 300.94,185.743 300.718,185.743Z" fill="#ADC8F7"/>
<path d="M433.704,185.743L424.539,185.743C424.317,185.743 424.137,185.563 424.137,185.34C424.137,185.118 424.317,184.938 424.539,184.938L433.704,184.938C440.261,184.938 445.595,179.604 445.595,173.047L445.595,166.567C445.595,166.345 445.775,166.165 445.998,166.165C446.22,166.165 446.4,166.345 446.4,166.567L446.4,173.047C446.4,180.047 440.705,185.743 433.704,185.743Z" fill="#ADC8F7"/>
<path d="M445.998,86.208C445.775,86.208 445.595,86.028 445.595,85.806L445.595,79.325C445.595,72.769 440.261,67.435 433.704,67.435L424.539,67.435C424.317,67.435 424.137,67.255 424.137,67.033C424.137,66.811 424.317,66.631 424.539,66.631L433.704,66.631C440.705,66.631 446.4,72.325 446.4,79.325L446.4,85.806C446.4,86.028 446.22,86.208 445.998,86.208Z" fill="#ADC8F7"/>
<path d="M370.964,105.751L370.964,127.317C370.964,127.832 370.547,128.25 370.032,128.25L362.134,128.25C361.619,128.25 361.202,127.832 361.202,127.317L361.202,105.751C361.202,105.236 361.619,104.818 362.134,104.818L370.032,104.818C370.547,104.818 370.964,105.236 370.964,105.751Z" fill="#FFFFFF"/>
<path d="M386.182,115.541L386.182,127.317C386.182,127.832 385.765,128.25 385.25,128.25L377.352,128.25C376.837,128.25 376.42,127.832 376.42,127.317L376.42,115.541C376.42,115.026 376.837,114.608 377.352,114.608L385.25,114.608C385.765,114.608 386.182,115.026 386.182,115.541Z" fill="url(#pf_0_7_1726)"/>
<path d="M401.4,100.387L401.4,127.317C401.4,127.832 400.983,128.25 400.468,128.25L392.57,128.25C392.055,128.25 391.637,127.832 391.637,127.317L391.637,100.387C391.637,99.872 392.055,99.454 392.57,99.454L400.468,99.454C400.983,99.454 401.4,99.872 401.4,100.387Z" fill="#FFFFFF"/>
<path d="M416.618,109.754L416.618,127.317C416.618,127.832 416.201,128.25 415.686,128.25L407.788,128.25C407.273,128.25 406.855,127.832 406.855,127.317L406.855,109.754C406.855,109.239 407.273,108.821 407.788,108.821L415.686,108.821C416.201,108.821 416.618,109.239 416.618,109.754Z" fill="url(#pf_0_7_1728)"/>
<path d="M431.836,119.146L431.836,127.317C431.836,127.832 431.418,128.25 430.903,128.25L423.006,128.25C422.491,128.25 422.073,127.832 422.073,127.317L422.073,119.146C422.073,118.631 422.491,118.213 423.006,118.213L430.903,118.213C431.419,118.213 431.836,118.631 431.836,119.146Z" fill="#FFFFFF"/>
<path d="M319.534,151.3L319.534,162.115C319.534,162.954 318.854,163.635 318.014,163.635L297.876,163.635C297.037,163.635 296.356,162.954 296.356,162.115L296.356,151.3C296.356,150.461 297.037,149.781 297.876,149.781L318.014,149.781C318.853,149.781 319.534,150.461 319.534,151.3Z" fill="#FFFFFF"/>
<path d="M319.531,168.758C319.531,169.632 318.822,170.341 317.948,170.341L297.942,170.341C297.068,170.341 296.36,169.632 296.36,168.758C296.36,167.884 297.068,167.175 297.942,167.175L317.948,167.175C318.822,167.175 319.531,167.884 319.531,168.758Z" fill="#FFFFFF"/>
<path d="M351.458,151.3L351.458,162.115C351.458,162.954 350.778,163.635 349.939,163.635L329.8,163.635C328.961,163.635 328.281,162.954 328.281,162.115L328.281,151.3C328.281,150.461 328.961,149.781 329.8,149.781L349.939,149.781C350.778,149.781 351.458,150.461 351.458,151.3Z" fill="url(#pf_0_7_1734)"/>
<path d="M351.455,168.758C351.455,169.632 350.747,170.341 349.873,170.341L329.867,170.341C328.993,170.341 328.284,169.632 328.284,168.758C328.284,167.884 328.993,167.175 329.867,167.175L349.873,167.175C350.747,167.175 351.455,167.884 351.455,168.758Z" fill="url(#pf_0_7_1735)"/>
<path d="M383.383,151.3L383.383,162.115C383.383,162.954 382.702,163.635 381.863,163.635L361.725,163.635C360.885,163.635 360.205,162.954 360.205,162.115L360.205,151.3C360.205,150.461 360.885,149.781 361.725,149.781L381.863,149.781C382.702,149.781 383.383,150.461 383.383,151.3Z" fill="url(#pf_0_7_1737)"/>
<path d="M383.38,168.758C383.38,169.632 382.671,170.341 381.797,170.341L361.791,170.341C360.917,170.341 360.209,169.632 360.209,168.758C360.209,167.884 360.917,167.175 361.791,167.175L381.797,167.175C382.671,167.175 383.38,167.884 383.38,168.758Z" fill="url(#pf_0_7_1738)"/>
<path d="M353.746,112.879C353.256,125.629 342.763,135.817 329.892,135.817C316.7,135.817 306.014,125.123 306.014,111.931C306.014,98.746 316.7,88.052 329.892,88.052L329.892,99.245C322.878,99.245 317.206,104.925 317.206,111.931C317.206,118.945 322.878,124.625 329.892,124.625C336.585,124.625 342.056,119.451 342.538,112.879L353.746,112.879Z" fill="url(#pf_0_7_1740)"/>
<path d="M353.77,111.931C353.77,112.252 353.762,112.565 353.746,112.879L342.538,112.879C342.57,112.565 342.578,112.252 342.578,111.931C342.578,104.925 336.906,99.245 329.892,99.245L329.892,88.052C343.085,88.052 353.77,98.746 353.77,111.931Z" fill="url(#pf_0_7_1741)"/>
<path d="M362.62,92.056L347.923,92.056C347.837,92.056 347.755,92.093 347.697,92.157L341.608,98.949C341.433,99.144 341.571,99.454 341.833,99.454C341.919,99.454 342.001,99.418 342.059,99.354L348.058,92.662L362.638,92.662C362.816,92.662 362.957,92.509 362.939,92.328C362.923,92.17 362.779,92.056 362.62,92.056Z" fill="#ADC8F7"/>
<path d="M362.939,87.937L362.939,84.452C362.939,84.283 362.806,84.149 362.636,84.149L354.897,84.149C354.734,84.149 354.594,84.283 354.594,84.452L354.594,87.937C354.594,88.107 354.734,88.24 354.897,88.24L362.636,88.24C362.806,88.24 362.939,88.107 362.939,87.937Z" fill="#ADC8F7"/>
<path d="M297.56,132.28L312.257,132.28C312.343,132.28 312.425,132.243 312.483,132.179L318.572,125.386C318.747,125.191 318.609,124.881 318.347,124.881C318.261,124.881 318.179,124.918 318.121,124.982L312.122,131.673L297.542,131.673C297.365,131.673 297.223,131.826 297.241,132.008C297.257,132.166 297.402,132.28 297.56,132.28Z" fill="#ADC8F7"/>
<path d="M297.241,136.398L297.241,139.883C297.241,140.053 297.374,140.186 297.544,140.186L305.283,140.186C305.446,140.186 305.586,140.053 305.586,139.883L305.586,136.398C305.586,136.229 305.446,136.095 305.283,136.095L297.544,136.095C297.374,136.095 297.241,136.229 297.241,136.398Z" fill="#ADC8F7"/>
<path d="M424.539,142.164L424.539,145.37C424.539,145.823 424.172,146.19 423.719,146.19L403.934,146.19C403.481,146.19 403.114,145.823 403.114,145.37L403.114,142.164C403.114,141.711 403.481,141.344 403.934,141.344L423.719,141.344C424.172,141.344 424.539,141.711 424.539,142.164Z" fill="url(#pf_0_7_1753)"/>
<path d="M431.836,152.812C431.836,153.673 431.137,154.372 430.275,154.372L397.378,154.372C396.516,154.372 395.818,153.673 395.818,152.812C395.818,151.95 396.516,151.251 397.378,151.251L430.275,151.251C431.137,151.251 431.836,151.95 431.836,152.812Z" fill="#FFFFFF"/>
<path d="M431.836,160.994C431.836,161.856 431.137,162.554 430.275,162.554L397.378,162.554C396.516,162.554 395.818,161.856 395.818,160.994C395.818,160.132 396.516,159.433 397.378,159.433L430.275,159.433C431.137,159.433 431.836,160.132 431.836,160.994Z" fill="#FFFFFF"/>
<path d="M431.836,169.176C431.836,170.038 431.137,170.737 430.275,170.737L397.378,170.737C396.516,170.737 395.818,170.038 395.818,169.176C395.818,168.314 396.516,167.615 397.378,167.615L430.275,167.615C431.137,167.615 431.836,168.314 431.836,169.176Z" fill="#FFFFFF"/>
<path d="M426.954,106.979C426.773,106.979 426.592,106.918 426.441,106.793C426.333,106.704 415.582,97.805 411.383,95.744C404.174,92.206 398.701,90.562 395.976,91.106C393.826,91.537 391.569,94.331 389.388,97.033C386.896,100.118 384.319,103.309 381.394,103.648C376.874,104.176 366.746,96.83 365.606,95.991C365.248,95.727 365.171,95.223 365.434,94.866C365.699,94.508 366.202,94.432 366.56,94.695C369.515,96.87 377.914,102.411 381.209,102.049C383.48,101.786 385.847,98.855 388.135,96.021C390.606,92.962 392.939,90.074 395.66,89.527C399.595,88.738 406.768,91.687 412.092,94.299C416.462,96.444 427.021,105.184 427.469,105.555C427.811,105.838 427.858,106.345 427.574,106.688C427.415,106.88 427.186,106.979 426.954,106.979Z" fill="url(#pf_0_7_1758)"/>
<path d="M333.728,216.346L320.822,272.19C320.033,275.605 316.991,278.024 313.486,278.024L225.629,278.024C220.786,278.024 217.202,273.518 218.293,268.799L231.198,212.955C231.988,209.54 235.029,207.121 238.535,207.121L326.392,207.121C331.235,207.121 334.819,211.627 333.728,216.346Z" fill="url(#pf_0_7_1763)"/>
<path d="M238.531,207.118C235.027,207.118 231.988,209.542 231.197,212.95L218.295,268.794C217.197,273.52 220.789,278.025 225.629,278.025L173.57,278.025L173.57,274.064C173.57,270.577 176.39,267.758 179.876,267.758L213.595,267.758L226.261,212.95C227.052,209.542 230.091,207.118 233.595,207.118L238.531,207.118Z" fill="url(#pf_0_7_1764)"/>
<path d="M285.018,243.101C284.211,247.232 280.246,250.585 276.161,250.585C272.076,250.585 269.415,247.232 270.221,243.101C271.028,238.97 274.997,235.623 279.082,235.623C283.167,235.623 285.824,238.97 285.018,243.101Z" fill="#ADC8F7"/>
<path d="M117.855,270.394C117.855,272.837 115.875,274.817 113.432,274.817L92.957,274.817L92.957,265.97L113.432,265.97C115.875,265.97 117.855,267.951 117.855,270.394Z" fill="url(#pf_0_7_1768)"/>
<path d="M115.959,270.394C115.959,272.049 114.617,273.39 112.962,273.39L92.957,273.39L92.957,267.397L112.962,267.397C114.617,267.397 115.959,268.739 115.959,270.394Z" fill="#FFFFFF"/>
<path d="M137.861,270.394C137.861,272.834 135.878,274.817 133.437,274.817L113.432,274.817C115.872,274.817 117.855,272.834 117.855,270.394C117.855,267.953 115.872,265.97 113.432,265.97L133.437,265.97C135.878,265.97 137.861,267.953 137.861,270.394Z" fill="url(#pf_0_7_1770)"/>
<path d="M112.962,279.241C112.962,281.683 114.943,283.664 117.386,283.664L137.86,283.664L137.86,274.817L117.386,274.817C114.943,274.817 112.962,276.798 112.962,279.241Z" fill="url(#pf_0_7_1772)"/>
<path d="M114.859,279.241C114.859,280.896 116.2,282.237 117.855,282.237L137.86,282.237L137.86,276.244L117.855,276.244C116.2,276.244 114.859,277.586 114.859,279.241Z" fill="#FFFFFF"/>
<path d="M92.957,279.24C92.957,281.681 94.94,283.664 97.381,283.664L117.386,283.664C114.945,283.664 112.962,281.681 112.962,279.24C112.962,276.8 114.945,274.817 117.386,274.817L97.381,274.817C94.94,274.817 92.957,276.8 92.957,279.24Z" fill="url(#pf_0_7_1774)"/>
<path d="M244.16,111.286L244.16,116.068C244.16,117.147 243.286,118.021 242.207,118.021L167.03,118.021C165.951,118.021 165.077,117.147 165.077,116.068L165.077,111.286C165.077,110.207 165.951,109.333 167.03,109.333L242.207,109.333C243.286,109.333 244.16,110.207 244.16,111.286Z" fill="url(#pf_0_7_1776)"/>
<path d="M183.851,71.753L183.851,108.028C183.851,108.748 183.263,109.336 182.544,109.336L171.234,109.336C170.515,109.336 169.927,108.748 169.927,108.028L169.927,71.753C169.927,71.034 170.515,70.446 171.234,70.446L182.544,70.446C183.263,70.446 183.851,71.034 183.851,71.753Z" fill="url(#pf_0_7_1779)"/>
<rect  x="169.927" y="76.796" width="13.925" height="3.099" fill="#B3B3FF"/>
<path d="M180.372,85.523L180.372,103.293C180.372,103.704 180.039,104.037 179.628,104.037L174.15,104.037C173.739,104.037 173.406,103.704 173.406,103.293L173.406,85.523C173.406,85.112 173.739,84.779 174.15,84.779L179.628,84.779C180.039,84.779 180.372,85.112 180.372,85.523Z" fill="#B3B3FF"/>
<path d="M196.06,76.385L196.06,108.19C196.06,108.82 195.544,109.336 194.914,109.336L184.998,109.336C184.367,109.336 183.851,108.82 183.851,108.19L183.851,76.385C183.851,75.755 184.367,75.239 184.998,75.239L194.914,75.239C195.544,75.239 196.06,75.755 196.06,76.385Z" fill="url(#pf_0_7_1784)"/>
<rect  x="183.851" y="80.807" width="12.209" height="2.717" fill="#B3B3FF"/>
<path d="M192.741,103.061C192.741,104.6 191.498,105.842 189.959,105.842C188.421,105.842 187.17,104.6 187.17,103.061C187.17,101.522 188.421,100.271 189.959,100.271C191.498,100.271 192.741,101.522 192.741,103.061Z" fill="#B3B3FF"/>
<path d="M192.741,95.077C192.741,96.616 191.498,97.859 189.959,97.859C188.421,97.859 187.17,96.616 187.17,95.077C187.17,93.538 188.421,92.288 189.959,92.288C191.498,92.288 192.741,93.538 192.741,95.077Z" fill="#B3B3FF"/>
<path d="M209.985,71.753L209.985,108.028C209.985,108.748 209.397,109.336 208.677,109.336L197.367,109.336C196.648,109.336 196.06,108.748 196.06,108.028L196.06,71.753C196.06,71.034 196.648,70.446 197.367,70.446L208.677,70.446C209.397,70.446 209.985,71.034 209.985,71.753Z" fill="url(#pf_0_7_1788)"/>
<rect  x="196.06" y="74.987" width="13.925" height="3.099" fill="#B3B3FF"/>
<rect  x="196.06" y="101.696" width="13.925" height="3.099" fill="#B3B3FF"/>
<path d="M205.962,89.891C205.962,93.937 204.648,97.216 203.022,97.216C201.397,97.216 200.083,93.937 200.083,89.891C200.083,85.844 201.397,82.565 203.022,82.565C204.648,82.565 205.962,85.844 205.962,89.891Z" fill="#B3B3FF"/>
<path d="M234.906,90.554C234.535,91.734 234.026,93.076 233.047,94.097C232.493,94.68 231.817,95.097 231.088,95.301C230.809,95.384 230.551,95.413 230.305,95.413C229.98,95.413 229.671,95.364 229.359,95.309C229.238,95.293 229.113,95.272 228.988,95.251C228.442,95.176 227.9,95.151 227.371,95.126C226.246,95.072 225.083,95.018 223.933,94.451C223.266,94.121 222.812,93.726 222.537,93.246C222.028,92.346 222.224,91.292 222.487,90.2C222.716,89.241 222.903,88.237 222.445,87.466C222.316,87.249 222.141,87.058 221.953,86.858C221.724,86.612 221.491,86.362 221.336,86.045C221.074,85.507 221.057,84.841 221.282,83.999C221.336,83.807 221.395,83.62 221.453,83.432C221.591,82.995 221.72,82.586 221.757,82.157C221.807,81.544 221.657,80.911 221.516,80.303L221.499,80.232C221.336,79.531 221.195,78.848 221.295,78.164C221.386,77.523 221.761,76.727 222.533,76.431C223.253,76.147 224.17,76.402 224.979,77.102C225.387,77.456 225.746,77.877 226.096,78.281C226.725,79.015 227.321,79.711 228.163,80.027C228.379,80.111 228.604,80.165 228.846,80.223C229.313,80.336 229.796,80.452 230.188,80.778C230.859,81.336 230.972,82.286 231.001,82.953L231.009,83.257C231.03,83.874 231.051,84.512 231.334,85.028C231.684,85.662 232.359,86.024 233.072,86.412C233.868,86.841 234.693,87.287 235.039,88.15C235.343,88.912 235.156,89.758 234.906,90.554Z" fill="url(#pf_0_7_1795)"/>
<path d="M231.822,88.875C231.843,88.761 231.769,88.653 231.656,88.631C231.545,88.61 231.434,88.684 231.412,88.797C231.408,88.82 230.977,90.95 229.111,92.181C228.951,91.46 228.774,90.743 228.582,90.037C228.581,90.032 228.583,90.028 228.582,90.023C228.579,90.003 228.571,89.987 228.563,89.969C228.456,89.578 228.344,89.19 228.23,88.806C229.497,87.53 229.56,85.664 229.562,85.584C229.565,85.469 229.473,85.373 229.359,85.37C229.227,85.374 229.148,85.459 229.145,85.573C229.145,85.591 229.09,87.194 228.091,88.347C227.911,87.762 227.724,87.188 227.533,86.629C227.533,86.624 227.535,86.619 227.534,86.614C227.529,86.584 227.517,86.557 227.501,86.534C227.378,86.175 227.254,85.82 227.129,85.474C228.124,84.077 228.037,82.219 228.033,82.138C228.026,82.024 227.949,81.935 227.813,81.942C227.699,81.948 227.611,82.046 227.617,82.161C227.618,82.178 227.689,83.74 226.95,84.987C226.832,84.67 226.715,84.358 226.598,84.055C226.596,84.045 226.597,84.036 226.594,84.026C226.589,84.013 226.58,84.003 226.573,83.991C226.391,83.524 226.212,83.075 226.036,82.648C226.798,81.64 226.612,80.228 226.603,80.167C226.587,80.053 226.484,79.975 226.368,79.99C226.254,80.006 226.174,80.112 226.191,80.226C226.193,80.238 226.337,81.331 225.845,82.185C225.723,81.893 225.604,81.616 225.488,81.348C225.483,81.329 225.476,81.313 225.466,81.297C224.566,79.223 223.883,77.904 223.864,77.868C223.81,77.766 223.684,77.728 223.582,77.78C223.48,77.834 223.441,77.959 223.494,78.062C223.512,78.096 224.128,79.281 224.957,81.17C223.407,80.981 222.855,79.724 222.831,79.667C222.786,79.561 222.663,79.512 222.558,79.556C222.452,79.6 222.402,79.722 222.447,79.828C222.476,79.898 223.169,81.491 225.144,81.601C225.449,82.307 225.777,83.098 226.112,83.955C224.564,84.294 223.462,82.405 223.45,82.385C223.393,82.284 223.265,82.25 223.166,82.306C223.066,82.363 223.031,82.49 223.087,82.59C223.099,82.611 224.145,84.421 225.733,84.421C225.903,84.421 226.081,84.391 226.264,84.345C226.523,85.02 226.784,85.732 227.041,86.471C225.192,86.629 223.854,85.022 223.841,85.005C223.768,84.916 223.637,84.903 223.548,84.975C223.459,85.048 223.445,85.179 223.517,85.268C223.577,85.342 224.871,86.904 226.773,86.904C226.905,86.904 227.042,86.894 227.179,86.878C227.505,87.84 227.819,88.844 228.105,89.872C225.999,90.064 224.519,88.531 224.504,88.515C224.425,88.431 224.293,88.427 224.209,88.507C224.126,88.585 224.121,88.717 224.201,88.801C224.264,88.868 225.647,90.312 227.725,90.312C227.885,90.312 228.05,90.3 228.218,90.281C228.51,91.367 228.768,92.475 228.974,93.584C226.666,94.195 224.52,92.143 224.498,92.122C224.415,92.042 224.284,92.044 224.203,92.125C224.123,92.208 224.124,92.339 224.207,92.42C224.29,92.501 225.979,94.125 228.075,94.125C228.391,94.125 228.716,94.085 229.047,94.001C229.212,94.951 229.338,95.899 229.41,96.832C229.419,96.942 229.51,97.025 229.618,97.025C229.623,97.025 229.629,97.025 229.634,97.024C229.749,97.015 229.835,96.915 229.826,96.8C229.747,95.778 229.604,94.737 229.416,93.696C229.415,93.688 229.416,93.681 229.414,93.673C229.413,93.672 229.412,93.671 229.412,93.67C229.348,93.317 229.28,92.965 229.206,92.613C231.337,91.301 231.803,88.975 231.822,88.875Z" fill="#C2D5FF"/>
<path d="M243.645,83.661C243.457,84.04 243.174,84.345 242.899,84.636C242.669,84.887 242.453,85.12 242.29,85.391C241.723,86.345 241.953,87.579 242.236,88.758C242.553,90.079 242.79,91.354 242.178,92.442C241.857,93.009 241.29,93.496 240.498,93.888C239.798,94.234 239.098,94.422 238.398,94.534C237.702,94.647 237.006,94.68 236.322,94.709C235.676,94.738 235.014,94.772 234.347,94.863C234.189,94.884 234.039,94.909 233.893,94.934C233.509,94.997 233.138,95.059 232.747,95.059C232.451,95.059 232.138,95.022 231.805,94.926C230.926,94.676 230.105,94.172 229.434,93.472C228.246,92.23 227.629,90.6 227.179,89.167C226.879,88.204 226.65,87.183 227.017,86.266C227.429,85.228 228.429,84.687 229.392,84.166C230.271,83.695 231.096,83.245 231.53,82.461C231.884,81.823 231.905,81.04 231.93,80.281L231.942,79.911C231.976,79.106 232.117,77.96 232.917,77.293C233.388,76.902 233.972,76.76 234.534,76.627C234.818,76.556 235.11,76.485 235.376,76.385C236.414,75.993 237.143,75.143 237.914,74.243C238.339,73.751 238.777,73.238 239.273,72.809C240.244,71.963 241.344,71.659 242.211,71.997C243.132,72.355 243.578,73.305 243.69,74.076C243.807,74.901 243.64,75.731 243.44,76.581L243.419,76.664C243.244,77.414 243.065,78.185 243.128,78.94C243.169,79.469 243.328,79.973 243.499,80.511C243.569,80.736 243.64,80.965 243.703,81.194C243.978,82.211 243.961,83.015 243.645,83.661Z" fill="url(#pf_0_7_1797)"/>
<path d="M242.287,76.081C242.331,75.975 242.281,75.853 242.176,75.808C242.071,75.765 241.949,75.814 241.903,75.92C241.872,75.991 241.172,77.587 239.195,77.788C240.223,75.44 240.989,73.965 241.011,73.923C241.065,73.821 241.025,73.695 240.923,73.642C240.822,73.59 240.696,73.628 240.642,73.73C240.619,73.774 239.785,75.381 238.688,77.909C238.677,77.928 238.668,77.947 238.663,77.968C238.51,78.321 238.354,78.688 238.192,79.074C237.531,78.01 237.716,76.592 237.718,76.576C237.734,76.462 237.654,76.357 237.54,76.341C237.428,76.328 237.321,76.405 237.305,76.518C237.295,76.593 237.067,78.316 238.003,79.531C237.786,80.059 237.564,80.613 237.34,81.192C237.331,81.205 237.321,81.218 237.315,81.234C237.311,81.245 237.312,81.256 237.31,81.268C237.156,81.667 237.001,82.079 236.846,82.498C235.884,80.951 235.977,78.963 235.978,78.942C235.985,78.827 235.897,78.729 235.782,78.722C235.657,78.718 235.569,78.804 235.563,78.919C235.557,79.016 235.451,81.285 236.67,82.978C236.514,83.409 236.359,83.852 236.206,84.3C236.189,84.324 236.175,84.351 236.17,84.382C236.169,84.389 236.171,84.395 236.171,84.402C235.929,85.11 235.693,85.837 235.465,86.579C234.184,85.154 234.115,83.128 234.114,83.107C234.112,82.994 234.019,82.904 233.906,82.904C233.904,82.904 233.903,82.904 233.901,82.904C233.786,82.907 233.695,83.002 233.698,83.117C233.7,83.215 233.777,85.49 235.328,87.035C235.186,87.51 235.048,87.989 234.916,88.473C234.905,88.494 234.895,88.515 234.892,88.539C234.891,88.545 234.893,88.551 234.893,88.557C234.652,89.44 234.431,90.336 234.233,91.237C231.893,89.73 231.355,87.073 231.35,87.046C231.329,86.932 231.218,86.858 231.107,86.879C230.994,86.901 230.919,87.01 230.941,87.123C230.964,87.245 231.531,90.083 234.138,91.67C234.045,92.11 233.96,92.55 233.88,92.991C233.879,92.994 233.877,92.995 233.877,92.998C233.872,93.012 233.873,93.026 233.872,93.04C233.645,94.301 233.472,95.562 233.377,96.801C233.368,96.915 233.454,97.016 233.568,97.024C233.574,97.025 233.579,97.025 233.585,97.025C233.692,97.025 233.784,96.942 233.792,96.832C233.881,95.677 234.039,94.502 234.244,93.325C234.66,93.437 235.069,93.489 235.466,93.489C238.003,93.489 240.05,91.521 240.151,91.422C240.234,91.342 240.235,91.21 240.155,91.128C240.075,91.046 239.943,91.045 239.86,91.124C239.833,91.151 237.172,93.694 234.317,92.908C234.572,91.528 234.893,90.148 235.257,88.798C235.474,88.823 235.686,88.839 235.892,88.839C238.407,88.839 240.081,87.092 240.157,87.01C240.236,86.926 240.232,86.795 240.149,86.716C240.065,86.637 239.933,86.641 239.854,86.725C239.835,86.745 237.99,88.654 235.371,88.389C235.728,87.103 236.119,85.848 236.527,84.647C236.706,84.669 236.882,84.684 237.053,84.684C239.35,84.684 240.916,82.793 240.988,82.705C241.061,82.616 241.047,82.485 240.958,82.412C240.869,82.34 240.738,82.352 240.665,82.442C240.648,82.463 238.973,84.469 236.666,84.24C236.989,83.304 237.319,82.404 237.647,81.553C237.879,81.615 238.106,81.654 238.322,81.654C240.232,81.654 241.494,79.471 241.509,79.445C241.565,79.345 241.53,79.218 241.43,79.161C241.33,79.104 241.203,79.139 241.146,79.24C241.132,79.265 239.75,81.645 237.798,81.163C238.217,80.09 238.628,79.099 239.009,78.217C241.412,78.096 242.279,76.101 242.287,76.081Z" fill="#C2D5FF"/>
<path d="M238.444,97.23L238.444,103.298C238.444,105.561 237.352,107.712 235.518,109.053C235.268,109.237 234.96,109.332 234.627,109.332L227.996,109.332C227.65,109.332 227.317,109.22 227.029,109.003C225.212,107.641 224.17,105.561 224.17,103.298L224.17,97.23C224.17,96.889 224.45,96.609 224.791,96.609L237.823,96.609C238.165,96.609 238.444,96.889 238.444,97.23Z" fill="url(#pf_0_7_1799)"/>
<path d="M238.444,100.131L238.444,102.461C238.444,102.577 238.352,102.669 238.235,102.669L224.379,102.669C224.266,102.669 224.17,102.577 224.17,102.461L224.17,100.131C224.17,100.019 224.266,99.923 224.379,99.923L238.235,99.923C238.352,99.923 238.444,100.019 238.444,100.131Z" fill="#B3B3FF"/>
<path d="M132.029,93.467L132.029,192.804C132.029,195.202 130.086,197.145 127.688,197.145L38.073,197.145C35.675,197.145 33.731,195.202 33.731,192.804L33.731,93.467C33.731,91.069 35.675,89.125 38.073,89.125L127.688,89.125C130.086,89.125 132.029,91.069 132.029,93.467Z" fill="#E7ECFF"/>
<path d="M125.929,98.355L125.929,187.916C125.929,189.584 124.572,190.941 122.904,190.941L42.857,190.941C41.189,190.941 39.832,189.584 39.832,187.916L39.832,98.355C39.832,96.687 41.189,95.33 42.857,95.33L122.904,95.33C124.572,95.33 125.929,96.687 125.929,98.355Z" fill="url(#pf_0_7_1803)"/>
<g opacity="0.4">
<path d="M125.929,99.409L125.929,107.93L58.585,190.941L51.671,190.941L125.929,99.409Z" fill="#FFFFFF"/>
<path d="M125.929,116.735L125.929,136.499L81.761,190.941L65.731,190.941L125.929,116.735Z" fill="#FFFFFF"/>
<path d="M125.929,154.491L125.929,163.011L103.27,190.941L96.357,190.941L125.929,154.491Z" fill="#FFFFFF"/>
<path d="M63.225,95.33L39.832,124.167L39.832,104.404L47.195,95.33L63.225,95.33Z" fill="#FFFFFF"/>
<path d="M84.743,95.33L39.832,150.697L39.832,142.168L77.829,95.33L84.743,95.33Z" fill="#FFFFFF"/>
</g>
<path d="M132.161,139.759L85.432,139.759L85.432,91.417L78.679,91.417L78.679,139.759L33.6,139.759L33.6,146.512L78.679,146.512L78.679,194.379L85.432,194.379L85.432,146.512L132.161,146.512L132.161,139.759Z" fill="#E7ECFF"/>
<defs>
<linearGradient id="pf_0_7_1608" x1="186.083" y1="231.208" x2="255.128" y2="271.194" gradientUnits="userSpaceOnUse">
<stop offset="0" stop-color="#FC6865"/>
<stop offset="1" stop-color="#F24E4E"/>
</linearGradient>
<linearGradient id="pf_0_7_1616" x1="263.24" y1="400.696" x2="297.88" y2="396.357" gradientUnits="userSpaceOnUse">
<stop offset="0" stop-color="#78A7FF"/>
<stop offset="1" stop-color="#3D79F3"/>
</linearGradient>
<linearGradient id="pf_0_7_1628" x1="274.153" y1="332.617" x2="196.404" y2="337.557" gradientUnits="userSpaceOnUse">
<stop stop-color="#771E24"/>
<stop offset="1" stop-color="#47090E"/>
</linearGradient>
<linearGradient id="pf_0_7_1630" x1="184.285" y1="415.893" x2="187.199" y2="354.355" gradientUnits="userSpaceOnUse">
<stop stop-color="#E7ECFF"/>
<stop offset="1" stop-color="#C2D5FF"/>
</linearGradient>
<linearGradient id="pf_0_7_1631" x1="123.33" y1="267.052" x2="228.654" y2="267.052" gradientUnits="userSpaceOnUse">
<stop stop-color="#E7ECFF"/>
<stop offset="1" stop-color="#C2D5FF"/>
</linearGradient>
<linearGradient id="pf_0_7_1633" x1="169.736" y1="225.613" x2="180.253" y2="302.79" gradientUnits="userSpaceOnUse">
<stop offset="0" stop-color="#FC6865"/>
<stop offset="1" stop-color="#F24E4E"/>
</linearGradient>
<linearGradient id="pf_0_7_1638" x1="193.649" y1="167.286" x2="154.231" y2="167.286" gradientUnits="userSpaceOnUse">
<stop stop-color="#771E24"/>
<stop offset="1" stop-color="#47090E"/>
</linearGradient>
<linearGradient id="pf_0_7_1641" x1="182.565" y1="173.112" x2="187.193" y2="173.112" gradientUnits="userSpaceOnUse">
<stop stop-color="#771E24"/>
<stop offset="1" stop-color="#47090E"/>
</linearGradient>
<linearGradient id="pf_0_7_1642" x1="174.878" y1="173.112" x2="179.506" y2="173.112" gradientUnits="userSpaceOnUse">
<stop stop-color="#771E24"/>
<stop offset="1" stop-color="#47090E"/>
</linearGradient>
<linearGradient id="pf_0_7_1667" x1="231.76" y1="399.617" x2="266.67" y2="399.617" gradientUnits="userSpaceOnUse">
<stop offset="0" stop-color="#78A7FF"/>
<stop offset="1" stop-color="#3D79F3"/>
</linearGradient>
<linearGradient id="pf_0_7_1680" x1="194.674" y1="339.465" x2="197.681" y2="270.522" gradientUnits="userSpaceOnUse">
<stop stop-color="#771E24"/>
<stop offset="1" stop-color="#47090E"/>
</linearGradient>
<linearGradient id="pf_0_7_1683" x1="220.811" y1="269.982" x2="221.647" y2="292.143" gradientUnits="userSpaceOnUse">
<stop stop-color="#E7ECFF"/>
<stop offset="1" stop-color="#C2D5FF"/>
</linearGradient>
<linearGradient id="pf_0_7_1685" x1="348.496" y1="302.937" x2="343.089" y2="385.839" gradientUnits="userSpaceOnUse">
<stop stop-color="#E7ECFF"/>
<stop offset="1" stop-color="#C2D5FF"/>
</linearGradient>
<linearGradient id="pf_0_7_1686" x1="321.661" y1="302.937" x2="316.254" y2="385.839" gradientUnits="userSpaceOnUse">
<stop stop-color="#E7ECFF"/>
<stop offset="1" stop-color="#C2D5FF"/>
</linearGradient>
<linearGradient id="pf_0_7_1687" x1="132.504" y1="302.937" x2="127.097" y2="385.839" gradientUnits="userSpaceOnUse">
<stop stop-color="#E7ECFF"/>
<stop offset="1" stop-color="#C2D5FF"/>
</linearGradient>
<linearGradient id="pf_0_7_1688" x1="105.67" y1="302.937" x2="100.263" y2="385.839" gradientUnits="userSpaceOnUse">
<stop stop-color="#E7ECFF"/>
<stop offset="1" stop-color="#C2D5FF"/>
</linearGradient>
<linearGradient id="pf_0_7_1690" x1="169.071" y1="208.329" x2="165.66" y2="277.179" gradientUnits="userSpaceOnUse">
<stop offset="0" stop-color="#FC6865"/>
<stop offset="1" stop-color="#F24E4E"/>
</linearGradient>
<linearGradient id="pf_0_7_1693" x1="69.932" y1="370.964" x2="47.533" y2="370.964" gradientUnits="userSpaceOnUse">
<stop stop-color="#E7ECFF"/>
<stop offset="1" stop-color="#C2D5FF"/>
</linearGradient>
<linearGradient id="pf_0_7_1694" x1="97.211" y1="373.754" x2="74.812" y2="373.754" gradientUnits="userSpaceOnUse">
<stop stop-color="#E7ECFF"/>
<stop offset="1" stop-color="#C2D5FF"/>
</linearGradient>
<linearGradient id="pf_0_7_1695" x1="85.411" y1="356.238" x2="64.282" y2="356.238" gradientUnits="userSpaceOnUse">
<stop stop-color="#E7ECFF"/>
<stop offset="1" stop-color="#C2D5FF"/>
</linearGradient>
<linearGradient id="pf_0_7_1703" x1="86.011" y1="399.145" x2="59.689" y2="399.145" gradientUnits="userSpaceOnUse">
<stop stop-color="#E7ECFF"/>
<stop offset="1" stop-color="#C2D5FF"/>
</linearGradient>
<linearGradient id="pf_0_7_1709" x1="283.206" y1="136.607" x2="442.129" y2="136.607" gradientUnits="userSpaceOnUse">
<stop offset="0" stop-color="#78A7FF"/>
<stop offset="1" stop-color="#3D79F3"/>
</linearGradient>
<linearGradient id="pf_0_7_1710" x1="361.926" y1="171.055" x2="364.289" y2="28.102" gradientUnits="userSpaceOnUse">
<stop stop-color="#E7ECFF"/>
<stop offset="1" stop-color="#C2D5FF"/>
</linearGradient>
<linearGradient id="pf_0_7_1726" x1="376.42" y1="121.429" x2="386.182" y2="121.429" gradientUnits="userSpaceOnUse">
<stop offset="0" stop-color="#B3B3FF"/>
<stop offset="1" stop-color="#C2D5FF"/>
</linearGradient>
<linearGradient id="pf_0_7_1728" x1="406.855" y1="118.535" x2="416.618" y2="118.535" gradientUnits="userSpaceOnUse">
<stop offset="0" stop-color="#B3B3FF"/>
<stop offset="1" stop-color="#C2D5FF"/>
</linearGradient>
<linearGradient id="pf_0_7_1734" x1="328.281" y1="156.708" x2="351.458" y2="156.708" gradientUnits="userSpaceOnUse">
<stop offset="0" stop-color="#B3B3FF"/>
<stop offset="1" stop-color="#C2D5FF"/>
</linearGradient>
<linearGradient id="pf_0_7_1735" x1="328.284" y1="168.758" x2="351.455" y2="168.758" gradientUnits="userSpaceOnUse">
<stop offset="0" stop-color="#B3B3FF"/>
<stop offset="1" stop-color="#C2D5FF"/>
</linearGradient>
<linearGradient id="pf_0_7_1737" x1="360.205" y1="156.708" x2="383.383" y2="156.708" gradientUnits="userSpaceOnUse">
<stop offset="0" stop-color="#FFBB83"/>
<stop offset="1" stop-color="#FF9D45"/>
</linearGradient>
<linearGradient id="pf_0_7_1738" x1="360.209" y1="168.758" x2="383.38" y2="168.758" gradientUnits="userSpaceOnUse">
<stop offset="0" stop-color="#FFBB83"/>
<stop offset="1" stop-color="#FF9D45"/>
</linearGradient>
<linearGradient id="pf_0_7_1740" x1="306.014" y1="111.935" x2="353.746" y2="111.935" gradientUnits="userSpaceOnUse">
<stop offset="0" stop-color="#FFBB83"/>
<stop offset="1" stop-color="#FF9D45"/>
</linearGradient>
<linearGradient id="pf_0_7_1741" x1="329.892" y1="100.466" x2="353.77" y2="100.466" gradientUnits="userSpaceOnUse">
<stop offset="0" stop-color="#B3B3FF"/>
<stop offset="1" stop-color="#C2D5FF"/>
</linearGradient>
<linearGradient id="pf_0_7_1753" x1="403.114" y1="143.767" x2="424.539" y2="143.767" gradientUnits="userSpaceOnUse">
<stop offset="0" stop-color="#B3B3FF"/>
<stop offset="1" stop-color="#C2D5FF"/>
</linearGradient>
<linearGradient id="pf_0_7_1758" x1="365.278" y1="98.188" x2="427.759" y2="98.188" gradientUnits="userSpaceOnUse">
<stop offset="0" stop-color="#B3B3FF"/>
<stop offset="1" stop-color="#C2D5FF"/>
</linearGradient>
<linearGradient id="pf_0_7_1763" x1="272.609" y1="262.688" x2="280.805" y2="214.217" gradientUnits="userSpaceOnUse">
<stop stop-color="#E7ECFF"/>
<stop offset="1" stop-color="#C2D5FF"/>
</linearGradient>
<linearGradient id="pf_0_7_1764" x1="173.57" y1="242.572" x2="238.531" y2="242.572" gradientUnits="userSpaceOnUse">
<stop offset="0" stop-color="#78A7FF"/>
<stop offset="1" stop-color="#3D79F3"/>
</linearGradient>
<linearGradient id="pf_0_7_1768" x1="117.855" y1="270.394" x2="92.957" y2="270.394" gradientUnits="userSpaceOnUse">
<stop offset="0" stop-color="#A7C161"/>
<stop offset="1" stop-color="#8BA53A"/>
</linearGradient>
<linearGradient id="pf_0_7_1770" x1="137.861" y1="270.394" x2="113.432" y2="270.394" gradientUnits="userSpaceOnUse">
<stop offset="0" stop-color="#A7C161"/>
<stop offset="1" stop-color="#8BA53A"/>
</linearGradient>
<linearGradient id="pf_0_7_1772" x1="137.86" y1="279.241" x2="112.962" y2="279.241" gradientUnits="userSpaceOnUse">
<stop offset="0" stop-color="#FF8888"/>
<stop offset="1" stop-color="#F24E4E"/>
</linearGradient>
<linearGradient id="pf_0_7_1774" x1="117.386" y1="279.241" x2="92.957" y2="279.241" gradientUnits="userSpaceOnUse">
<stop offset="0" stop-color="#FF8888"/>
<stop offset="1" stop-color="#F24E4E"/>
</linearGradient>
<linearGradient id="pf_0_7_1776" x1="165.077" y1="113.677" x2="244.16" y2="113.677" gradientUnits="userSpaceOnUse">
<stop stop-color="#E7ECFF"/>
<stop offset="1" stop-color="#C2D5FF"/>
</linearGradient>
<linearGradient id="pf_0_7_1779" x1="169.927" y1="89.891" x2="183.851" y2="89.891" gradientUnits="userSpaceOnUse">
<stop stop-color="#E7ECFF"/>
<stop offset="1" stop-color="#C2D5FF"/>
</linearGradient>
<linearGradient id="pf_0_7_1784" x1="183.851" y1="92.288" x2="196.06" y2="92.288" gradientUnits="userSpaceOnUse">
<stop stop-color="#E7ECFF"/>
<stop offset="1" stop-color="#C2D5FF"/>
</linearGradient>
<linearGradient id="pf_0_7_1788" x1="196.06" y1="89.891" x2="209.985" y2="89.891" gradientUnits="userSpaceOnUse">
<stop stop-color="#E7ECFF"/>
<stop offset="1" stop-color="#C2D5FF"/>
</linearGradient>
<linearGradient id="pf_0_7_1795" x1="221.126" y1="85.865" x2="235.196" y2="85.865" gradientUnits="userSpaceOnUse">
<stop stop-color="#E7ECFF"/>
<stop offset="1" stop-color="#C2D5FF"/>
</linearGradient>
<linearGradient id="pf_0_7_1797" x1="226.828" y1="83.46" x2="243.897" y2="83.46" gradientUnits="userSpaceOnUse">
<stop stop-color="#E7ECFF"/>
<stop offset="1" stop-color="#C2D5FF"/>
</linearGradient>
<linearGradient id="pf_0_7_1799" x1="224.17" y1="102.971" x2="238.444" y2="102.971" gradientUnits="userSpaceOnUse">
<stop stop-color="#E7ECFF"/>
<stop offset="1" stop-color="#C2D5FF"/>
</linearGradient>
<linearGradient id="pf_0_7_1803" x1="39.832" y1="143.136" x2="125.929" y2="143.136" gradientUnits="userSpaceOnUse">
<stop stop-color="#E7ECFF"/>
<stop offset="1" stop-color="#C2D5FF"/>
</linearGradient>
</defs>
</svg>
