<svg width="190" height="170" viewBox="0 0 190 170" fill="none" xmlns="http://www.w3.org/2000/svg" xmlns:xlink="http://www.w3.org/1999/xlink">
<path d="M189.562,85.019C189.562,72.462 173.836,60.561 149.725,53.181C155.289,28.607 152.816,9.056 141.92,2.796C139.409,1.328 136.472,0.632 133.265,0.632L133.265,9.249C135.042,9.249 136.472,9.597 137.67,10.253C142.925,13.267 145.204,24.743 143.427,39.503C143.002,43.135 142.306,46.96 141.456,50.863C133.883,49.008 125.614,47.578 116.921,46.651C111.705,39.503 106.295,33.012 100.847,27.332C113.443,15.624 125.267,9.21 133.304,9.21L133.304,0.594C122.678,0.594 108.768,8.167 94.704,21.304C80.639,8.244 66.729,0.748 56.103,0.748L56.103,9.365C64.102,9.365 75.964,15.74 88.56,27.37C83.151,33.05 77.741,39.503 72.602,46.651C63.87,47.578 55.601,49.008 48.028,50.901C47.139,47.038 46.482,43.29 46.019,39.696C44.203,24.936 46.444,13.46 51.66,10.408C52.819,9.712 54.326,9.403 56.103,9.403L56.103,0.787C52.858,0.787 49.921,1.482 47.371,2.951C36.514,9.21 34.079,28.723 39.682,53.22C15.649,60.638 0,72.5 0,85.019C0,97.577 15.726,109.478 39.837,116.858C34.273,141.432 36.745,160.983 47.642,167.243C50.153,168.711 53.09,169.406 56.335,169.406C66.961,169.406 80.871,161.833 94.935,148.696C109,161.756 122.91,169.252 133.535,169.252C136.781,169.252 139.718,168.556 142.268,167.088C153.125,160.829 155.56,141.316 149.957,116.819C173.913,109.439 189.562,97.538 189.562,85.019ZM139.254,59.247C137.824,64.232 136.047,69.371 134.038,74.51C132.454,71.419 130.792,68.327 128.976,65.236C127.199,62.145 125.305,59.131 123.412,56.195C128.899,57.006 134.192,58.011 139.254,59.247ZM121.557,100.398C118.544,105.614 115.453,110.56 112.246,115.158C106.488,115.66 100.654,115.93 94.781,115.93C88.946,115.93 83.112,115.66 77.393,115.196C74.186,110.598 71.057,105.691 68.043,100.514C65.106,95.452 62.44,90.313 60.006,85.135C62.402,79.958 65.106,74.78 68.004,69.718C71.018,64.502 74.109,59.556 77.316,54.958C83.073,54.456 88.908,54.186 94.781,54.186C100.615,54.186 106.45,54.456 112.168,54.92C115.375,59.518 118.505,64.425 121.519,69.603C124.455,74.664 127.121,79.803 129.556,84.981C127.121,90.158 124.455,95.336 121.557,100.398ZM134.038,95.375C136.124,100.552 137.902,105.73 139.37,110.753C134.308,111.989 128.976,113.032 123.451,113.844C125.344,110.869 127.237,107.816 129.015,104.687C130.792,101.595 132.454,98.466 134.038,95.375ZM94.858,136.602C91.265,132.893 87.671,128.758 84.117,124.238C87.594,124.392 91.149,124.508 94.742,124.508C98.374,124.508 101.968,124.431 105.484,124.238C102.006,128.758 98.413,132.893 94.858,136.602ZM66.111,113.844C60.624,113.032 55.331,112.028 50.269,110.791C51.699,105.807 53.476,100.668 55.485,95.529C57.069,98.62 58.731,101.711 60.547,104.802C62.363,107.894 64.218,110.907 66.111,113.844ZM94.665,33.437C98.258,37.146 101.852,41.28 105.406,45.801C101.929,45.647 98.374,45.531 94.781,45.531C91.149,45.531 87.555,45.608 84.039,45.801C87.517,41.28 91.11,37.146 94.665,33.437ZM66.072,56.195C64.179,59.17 62.286,62.223 60.508,65.352C58.731,68.443 57.069,71.535 55.485,74.626C53.399,69.448 51.621,64.27 50.153,59.247C55.215,58.05 60.547,57.006 66.072,56.195ZM31.104,104.571C17.426,98.736 8.578,91.086 8.578,85.019C8.578,78.953 17.426,71.264 31.104,65.468C34.427,64.039 38.059,62.764 41.807,61.566C44.01,69.139 46.907,77.021 50.501,85.097C46.946,93.134 44.087,100.977 41.923,108.512C38.098,107.314 34.466,106 31.104,104.571ZM51.892,159.785C46.637,156.772 44.357,145.296 46.135,130.536C46.56,126.904 47.255,123.079 48.105,119.176C55.678,121.031 63.947,122.46 72.641,123.388C77.857,130.536 83.266,137.027 88.715,142.707C76.118,154.415 64.295,160.829 56.258,160.829C54.519,160.79 53.051,160.442 51.892,159.785ZM143.543,130.343C145.359,145.103 143.118,156.578 137.902,159.631C136.742,160.326 135.236,160.635 133.458,160.635C125.46,160.635 113.598,154.26 101.002,142.63C106.411,136.95 111.82,130.497 116.959,123.349C125.692,122.422 133.96,120.992 141.534,119.099C142.422,123.001 143.118,126.749 143.543,130.343ZM158.419,104.571C155.096,106 151.464,107.275 147.716,108.473C145.513,100.9 142.616,93.018 139.022,84.942C142.577,76.905 145.436,69.062 147.6,61.527C151.425,62.725 155.057,64.039 158.457,65.468C172.136,71.303 180.984,78.953 180.984,85.019C180.945,91.086 172.097,98.775 158.419,104.571Z" fill="#61DAFB"/>
<path d="M94.742,102.677C104.494,102.677 112.4,94.772 112.4,85.019C112.4,75.267 104.494,67.362 94.742,67.362C84.99,67.362 77.084,75.267 77.084,85.019C77.084,94.772 84.99,102.677 94.742,102.677Z" fill="#61DAFB"/>
</svg>
