<svg width="288" height="178" viewBox="0 0 288 178" fill="none" xmlns="http://www.w3.org/2000/svg" xmlns:xlink="http://www.w3.org/1999/xlink">
<path d="M141.89,176.492C140.918,176.492 140.011,176.233 139.169,175.78L130.553,170.662C129.257,169.949 129.905,169.69 130.294,169.561C132.043,168.978 132.367,168.848 134.181,167.812C134.375,167.682 134.635,167.747 134.829,167.876L141.437,171.828C141.696,171.958 142.02,171.958 142.214,171.828L168.061,156.864C168.32,156.734 168.45,156.475 168.45,156.151L168.45,126.287C168.45,125.963 168.32,125.704 168.061,125.574L142.214,110.675C141.955,110.545 141.631,110.545 141.437,110.675L115.589,125.574C115.33,125.704 115.2,126.028 115.2,126.287L115.2,156.151C115.2,156.41 115.33,156.734 115.589,156.864L122.65,160.945C126.472,162.888 128.869,160.621 128.869,158.353L128.869,128.878C128.869,128.489 129.193,128.1 129.646,128.1L132.95,128.1C133.339,128.1 133.727,128.424 133.727,128.878L133.727,158.353C133.727,163.471 130.942,166.451 126.083,166.451C124.593,166.451 123.428,166.451 120.123,164.831L113.322,160.945C111.637,159.973 110.601,158.159 110.601,156.216L110.601,126.352C110.601,124.408 111.637,122.594 113.322,121.623L139.169,106.658C140.789,105.751 142.992,105.751 144.611,106.658L170.458,121.623C172.143,122.594 173.179,124.408 173.179,126.352L173.179,156.216C173.179,158.159 172.143,159.973 170.458,160.945L144.611,175.909C143.768,176.298 142.796,176.492 141.89,176.492ZM149.858,155.957C138.521,155.957 136.189,150.774 136.189,146.369C136.189,145.98 136.513,145.592 136.967,145.592L140.335,145.592C140.724,145.592 141.048,145.851 141.048,146.24C141.566,149.673 143.056,151.357 149.923,151.357C155.364,151.357 157.697,150.126 157.697,147.211C157.697,145.527 157.049,144.296 148.562,143.454C141.501,142.741 137.096,141.187 137.096,135.551C137.096,130.303 141.502,127.194 148.886,127.194C157.178,127.194 161.26,130.044 161.778,136.263C161.778,136.458 161.713,136.652 161.584,136.846C161.454,136.976 161.26,137.105 161.065,137.105L157.696,137.105C157.373,137.105 157.049,136.846 156.984,136.522C156.207,132.96 154.198,131.793 148.886,131.793C142.926,131.793 142.214,133.866 142.214,135.421C142.214,137.3 143.056,137.882 151.089,138.919C159.057,139.956 162.814,141.446 162.814,147.017C162.749,152.717 158.085,155.957 149.858,155.957Z" fill="#539E43"/>
<path d="M61.691,59.692C61.691,58.526 61.043,57.424 60.006,56.841L32.539,41.035C32.085,40.775 31.567,40.646 31.049,40.581L30.79,40.581C30.272,40.581 29.753,40.775 29.3,41.035L1.833,56.841C0.796,57.424 0.148,58.526 0.148,59.692L0.213,102.188C0.213,102.771 0.537,103.354 1.055,103.614C1.574,103.938 2.221,103.938 2.675,103.614L19,94.285C20.036,93.702 20.684,92.601 20.684,91.435L20.684,71.547C20.684,70.381 21.332,69.28 22.369,68.697L29.3,64.68C29.818,64.356 30.401,64.226 30.984,64.226C31.567,64.226 32.15,64.356 32.604,64.68L39.535,68.697C40.572,69.28 41.22,70.38 41.22,71.547L41.22,91.435C41.22,92.601 41.868,93.702 42.904,94.285L59.229,103.614C59.747,103.938 60.395,103.938 60.913,103.614C61.432,103.354 61.756,102.771 61.756,102.188L61.691,59.692ZM193.715,1.194C193.197,0.935 192.549,0.935 192.095,1.194C191.577,1.518 191.253,2.036 191.253,2.619L191.253,44.728C191.253,45.116 191.059,45.504 190.67,45.764C190.282,45.958 189.893,45.958 189.504,45.764L182.637,41.812C182.134,41.526 181.565,41.375 180.985,41.375C180.406,41.375 179.837,41.526 179.333,41.812L151.866,57.684C150.83,58.267 150.182,59.368 150.182,60.534L150.182,92.212C150.182,93.378 150.83,94.479 151.866,95.062L179.333,110.934C179.837,111.22 180.406,111.371 180.985,111.371C181.565,111.371 182.134,111.22 182.637,110.934L210.104,95.062C211.14,94.479 211.788,93.378 211.788,92.212L211.788,13.244C211.788,12.013 211.14,10.912 210.104,10.328L193.715,1.194ZM191.189,81.782C191.189,82.106 191.059,82.365 190.8,82.495L181.407,87.936C181.275,88 181.131,88.033 180.985,88.033C180.839,88.033 180.695,88 180.564,87.936L171.171,82.495C170.912,82.365 170.782,82.041 170.782,81.782L170.782,70.899C170.782,70.575 170.912,70.316 171.171,70.186L180.564,64.744C180.695,64.68 180.839,64.647 180.985,64.647C181.131,64.647 181.275,64.68 181.407,64.744L190.8,70.186C191.059,70.315 191.189,70.64 191.189,70.899L191.189,81.782ZM285.12,70.64C286.158,70.057 286.74,68.956 286.74,67.789L286.74,60.08C286.74,58.915 286.092,57.813 285.12,57.23L257.848,41.424C257.344,41.137 256.776,40.987 256.196,40.987C255.616,40.987 255.048,41.137 254.544,41.424L227.078,57.295C226.04,57.878 225.392,58.979 225.392,60.145L225.392,91.823C225.392,92.989 226.04,94.09 227.078,94.673L254.35,110.221C255.386,110.804 256.616,110.804 257.588,110.221L274.108,101.023C274.626,100.763 274.95,100.18 274.95,99.597C274.95,99.015 274.626,98.432 274.108,98.172L246.512,82.301C245.994,81.977 245.67,81.459 245.67,80.876L245.67,70.964C245.67,70.381 245.994,69.799 246.512,69.539L255.128,64.616C255.38,64.457 255.672,64.373 255.97,64.373C256.268,64.373 256.56,64.457 256.812,64.616L265.428,69.539C265.946,69.863 266.27,70.381 266.27,70.964L266.27,78.738C266.27,79.321 266.594,79.904 267.112,80.163C267.63,80.487 268.278,80.487 268.796,80.163L285.12,70.64Z" fill="#333333"/>
<path d="M255.776,69.15C255.872,69.087 255.984,69.053 256.099,69.053C256.214,69.053 256.327,69.087 256.423,69.15L261.67,72.195C261.865,72.324 261.994,72.518 261.994,72.778L261.994,78.867C261.994,79.126 261.865,79.32 261.67,79.45L256.423,82.495C256.327,82.558 256.214,82.592 256.099,82.592C255.984,82.592 255.872,82.558 255.776,82.495L250.528,79.45C250.334,79.32 250.204,79.126 250.204,78.867L250.204,72.778C250.204,72.518 250.334,72.324 250.528,72.195L255.776,69.15Z" fill="#539E43"/>
<path d="M107.621,41.553C107.117,41.267 106.548,41.116 105.969,41.116C105.39,41.116 104.82,41.267 104.317,41.553L77.044,57.294C76.007,57.877 75.424,58.979 75.424,60.144L75.424,91.693C75.424,92.859 76.072,93.96 77.044,94.543L104.317,110.285C104.82,110.572 105.39,110.723 105.969,110.723C106.548,110.723 107.117,110.572 107.621,110.285L134.894,94.543C135.93,93.96 136.514,92.859 136.514,91.693L136.514,60.145C136.514,58.979 135.865,57.878 134.894,57.295L107.621,41.553Z" fill="url(#pf_0_9_4160)"/>
<defs>
<linearGradient id="pf_0_9_4160" x1="4240.986" y1="1258.322" x2="1775.114" y2="6288.634" gradientUnits="userSpaceOnUse">
<stop stop-color="#41873F"/>
<stop offset="0.329" stop-color="#418B3D"/>
<stop offset="0.635" stop-color="#419637"/>
<stop offset="0.932" stop-color="#3FA92D"/>
<stop offset="1" stop-color="#3FAE2A"/>
</linearGradient>
</defs>
</svg>
