<svg width="80" height="112" viewBox="0 0 80 112" fill="none" xmlns="http://www.w3.org/2000/svg" xmlns:xlink="http://www.w3.org/1999/xlink">
<path d="M79.674,22.011L72.445,102.992L39.951,112L7.547,103.004L0.326,22.011L79.674,22.011Z" fill="#004CE8"/>
<path d="M66.257,97.835L72.434,28.633L40,28.633L40,105.114L66.257,97.835Z" fill="#0065F4"/>
<path d="M16.88,58.672L17.77,68.606L40,68.606L44.273,63.639L40,58.672L16.88,58.672Z" fill="#EBEBEB"/>
<path d="M40,38.567L39.966,38.567L15.091,38.567L15.994,48.5L40,48.5L44.273,43.533L40,38.567Z" fill="#EBEBEB"/>
<path d="M40,94.806L44.273,89.538L40,84.471L39.956,84.483L28.893,81.495L28.186,73.573L22.81,73.573L18.214,73.573L19.606,89.17L39.954,94.819L40,94.806Z" fill="#EBEBEB"/>
<path d="M19,0L31.031,0L31.031,5.031L24.031,5.031L24.031,10.063L31.031,10.063L31.031,15.094L19,15.094L19,0Z" fill="#000000"/>
<path d="M33.438,0L45.469,0L45.469,4.375L38.469,4.375L38.469,5.25L45.469,5.25L45.469,15.313L33.438,15.313L33.438,10.719L40.438,10.719L40.438,9.844L33.438,9.844L33.438,0Z" fill="#000000"/>
<path d="M47.875,0L59.906,0L59.906,4.375L52.906,4.375L52.906,5.25L59.906,5.25L59.906,15.313L47.875,15.313L47.875,10.719L54.875,10.719L54.875,9.844L47.875,9.844L47.875,0Z" fill="#000000"/>
<path d="M52.198,68.606L51.045,81.489L39.966,84.479L39.966,94.814L60.33,89.17L60.479,87.492L62.814,61.34L63.056,58.673L64.849,38.567L39.966,38.567L39.966,48.5L53.963,48.5L53.059,58.673L39.966,58.673L39.966,68.606L52.198,68.606Z" fill="#FFFFFF"/>
</svg>
