<svg width="80" height="112" viewBox="0 0 80 112" fill="none" xmlns="http://www.w3.org/2000/svg" xmlns:xlink="http://www.w3.org/1999/xlink">
<path d="M7.713,0L12.744,0L12.744,4.987L17.381,4.987L17.381,0L22.413,0L22.413,15.094L17.381,15.094L17.381,10.063L12.788,10.063L12.788,15.094L7.713,15.094L7.713,0ZM29.063,5.031L24.622,5.031L24.622,0L38.556,0L38.556,5.031L34.094,5.031L34.094,15.094L29.063,15.094L29.063,5.031ZM40.766,0L46.038,0L49.275,5.316L52.513,0L57.784,0L57.784,15.094L52.753,15.094L52.753,7.612L49.231,13.037L45.709,7.612L45.709,15.094L40.766,15.094L40.766,0ZM60.278,0L65.309,0L65.309,10.106L72.441,10.106L72.441,15.094L60.278,15.094L60.278,0Z" fill="#000000"/>
<path d="M7.538,103.031L0.319,22.006L79.681,22.006L72.463,102.987L39.934,112Z" fill="#FF4C1E"/>
<path d="M40,105.109L40,28.656L72.441,28.656L66.25,97.781L40,105.109Z" fill="#FF651E"/>
<path d="M15.063,38.566L40,38.566L43.708,43.531L40,48.497L25.956,48.497L26.875,58.669L40,58.669L43.708,63.82L40,68.578L17.775,68.578L15.063,38.566ZM18.213,73.566L28.188,73.566L28.887,81.506L40,84.481L44.184,89.438L40,94.85L19.613,89.162L18.213,73.566Z" fill="#EBEBEB"/>
<path d="M64.85,38.566L39.956,38.566L39.956,48.497L63.931,48.497L64.85,38.566ZM63.034,58.669L39.956,58.669L39.956,68.6L52.206,68.6L51.047,81.506L39.956,84.481L39.956,94.806L60.3,89.162L63.034,58.669Z" fill="#FFFFFF"/>
</svg>
