<svg width="72" height="72" viewBox="0 0 72 72" fill="none" xmlns="http://www.w3.org/2000/svg" xmlns:xlink="http://www.w3.org/1999/xlink">
<path d="M35.987,0C55.869,0 71.987,16.118 71.987,36C71.987,55.882 55.869,72 35.987,72C16.105,72 -0.013,55.882 -0.013,36C-0.013,16.118 16.105,0 35.987,0Z" clip-rule="evenodd" fill-rule="evenodd" fill="url(#pf_0_14_83)"/>
<path d="M40.665,71.698L40.665,43.891L48.504,43.891L49.543,34.104L40.665,34.104L40.678,29.205C40.678,26.653 40.92,25.286 44.587,25.286L49.488,25.286L49.488,15.497L41.647,15.497C32.229,15.497 28.914,20.244 28.914,28.229L28.914,34.105L23.043,34.105L23.043,43.892L28.914,43.892L28.914,71.303C31.201,71.759 33.566,72 35.987,72C37.551,72 39.114,71.899 40.665,71.698Z" fill="#FFFFFF"/>
<defs>
<linearGradient id="pf_0_14_83" x1="35.987" y1="-0.656" x2="35.987" y2="75.07" gradientUnits="userSpaceOnUse">
<stop stop-color="#00B2FF"/>
<stop offset="1" stop-color="#006AFF"/>
</linearGradient>
</defs>
</svg>
