<svg width="520" height="434" viewBox="0 0 520 434" fill="none" xmlns="http://www.w3.org/2000/svg" xmlns:xlink="http://www.w3.org/1999/xlink">
<path d="M502.681,244.614C502.681,251.934 496.759,257.856 489.441,257.856L480.358,257.856L480.358,-0.466L489.484,-0.466C496.337,-0.466 501.967,4.752 502.616,11.443C502.74,12.676 502.658,1.669 502.681,244.614Z" fill="url(#pf_0_7_1094)"/>
<path d="M497.065,12.795L497.065,244.616C497.065,251.936 491.145,257.854 483.827,257.854L239.937,257.854C232.617,257.854 226.685,251.936 226.685,244.616L226.685,12.795C226.685,5.474 232.616,-0.456 239.937,-0.456L483.827,-0.456C491.145,-0.456 497.065,5.475 497.065,12.795Z" fill="#FFFFFF"/>
<g opacity="0.03">
<path d="M475.49,215.793L475.49,257.855L291.234,257.855L291.234,215.793C291.234,210.816 295.269,206.781 300.246,206.781L466.479,206.781C471.457,206.781 475.491,210.816 475.491,215.793L475.49,215.793Z" fill="#000000"/>
</g>
<g opacity="0.03">
<path d="M494.306,44.109L494.306,187.262L353.236,187.262C348.005,187.262 343.769,183.014 343.769,177.783L343.769,53.576C343.769,48.345 348.005,44.109 353.236,44.109L494.306,44.109Z" fill="#000000"/>
</g>
<path d="M497.074,12.744L497.074,26.331L226.692,26.331L226.692,12.744C226.692,5.447 232.593,-0.465 239.889,-0.465L483.876,-0.465C491.162,-0.465 497.072,5.447 497.072,12.744L497.074,12.744Z" fill="url(#pf_0_7_1098)"/>
<path d="M244.386,13.584C244.386,15.911 242.501,17.796 240.174,17.796C237.847,17.796 235.967,15.911 235.967,13.584C235.967,11.257 237.852,9.372 240.174,9.372C242.496,9.372 244.386,11.257 244.386,13.584Z" fill="#FFFFFF"/>
<path d="M255.848,13.584C255.848,15.911 253.963,17.796 251.636,17.796C249.308,17.796 247.429,15.911 247.429,13.584C247.429,11.257 249.313,9.372 251.636,9.372C253.958,9.372 255.848,11.257 255.848,13.584Z" fill="#FFFFFF"/>
<path d="M267.31,13.584C267.31,15.911 265.425,17.796 263.098,17.796C260.771,17.796 258.891,15.911 258.891,13.584C258.891,11.257 260.776,9.372 263.098,9.372C265.42,9.372 267.31,11.257 267.31,13.584Z" fill="#FFFFFF"/>
<path d="M281.489,74.237L281.488,74.239L281.492,74.241L281.489,74.237Z" fill="url(#pf_0_7_1104)"/>
<path d="M281.497,178.617L281.498,178.616L281.496,178.612L281.497,178.617Z" fill="url(#pf_0_7_1105)"/>
<path d="M270.558,158.029L270.558,94.825L255.728,94.825L255.734,94.821L255.724,94.821L255.724,158.034L255.734,158.034L255.728,158.029L270.558,158.029Z" fill="url(#pf_0_7_1106)"/>
<path d="M292.424,94.825L292.424,158.029L292.427,158.029L307.259,158.029L307.259,94.825L292.424,94.825Z" fill="url(#pf_0_7_1107)"/>
<path d="M292.424,94.821L307.254,94.821L281.492,74.242L292.422,94.821L292.424,94.821Z" fill="url(#pf_0_7_1108)"/>
<path d="M270.563,94.821L281.488,74.239L281.487,74.237L255.734,94.821L270.558,94.821L270.563,94.821Z" fill="url(#pf_0_7_1109)"/>
<path d="M292.424,158.029L292.424,94.825L270.561,94.825L270.558,94.825L270.558,158.029L270.562,158.029L292.424,158.029Z" fill="url(#pf_0_7_1110)"/>
<path d="M292.422,94.821L281.492,74.242L281.488,74.239L270.563,94.821L292.422,94.821Z" fill="url(#pf_0_7_1111)"/>
<path d="M292.424,158.034L281.498,178.616L281.501,178.617L307.254,158.034L292.424,158.034Z" fill="url(#pf_0_7_1112)"/>
<path d="M270.558,158.034L255.734,158.034L281.496,178.612L270.565,158.034L270.558,158.034Z" fill="url(#pf_0_7_1113)"/>
<path d="M270.565,158.034L281.496,178.612L281.498,178.616L292.424,158.034L270.565,158.034Z" fill="url(#pf_0_7_1114)"/>
<path d="M509.196,40.061L497.23,40.061L497.23,183.208L509.196,183.208C514.427,183.208 518.671,178.965 518.671,173.735L518.671,49.525C518.671,44.294 514.428,40.061 509.196,40.061Z" fill="url(#pf_0_7_1116)"/>
<path d="M513.832,49.525L513.832,173.735C513.832,178.965 509.589,183.208 504.357,183.208L357.289,183.208C352.058,183.208 347.814,178.965 347.814,173.735L347.814,49.525C347.814,44.294 352.057,40.061 357.289,40.061L504.357,40.061C509.588,40.061 513.832,44.294 513.832,49.525Z" fill="url(#pf_0_7_1117)"/>
<rect  x="359.598" y="60.425" width="78.832" height="4.378" fill="#FFFFFF"/>
<rect  x="359.598" y="70.616" width="23.8" height="4.378" fill="#FFFFFF"/>
<rect  x="444.763" y="70.616" width="19.648" height="4.378" fill="#FFFFFF"/>
<rect  x="471.666" y="70.616" width="30.383" height="4.378" fill="#FFFFFF"/>
<rect  x="393.676" y="70.616" width="36.274" height="4.378" fill="#FFFFFF"/>
<rect  x="359.598" y="80.807" width="38.915" height="4.378" fill="#FFFFFF"/>
<rect  x="409.418" y="80.807" width="23.868" height="4.378" fill="#FFFFFF"/>
<rect  x="378.144" y="90.997" width="25.102" height="4.379" fill="#FFFFFF"/>
<rect  x="412.916" y="90.997" width="11.316" height="4.379" fill="#FFFFFF"/>
<rect  x="431.64" y="90.997" width="23.044" height="4.379" fill="#FFFFFF"/>
<rect  x="464.562" y="90.997" width="11.933" height="4.379" fill="#FFFFFF"/>
<rect  x="483.901" y="90.997" width="18.147" height="4.379" fill="#FFFFFF"/>
<rect  x="380.202" y="101.188" width="15.638" height="4.379" fill="#FFFFFF"/>
<rect  x="405.303" y="101.188" width="27.571" height="4.379" fill="#FFFFFF"/>
<rect  x="397.484" y="111.38" width="24.897" height="4.379" fill="#FFFFFF"/>
<rect  x="378.117" y="133.562" width="21.821" height="4.378" fill="#FFFFFF"/>
<rect  x="409.905" y="133.562" width="11.513" height="4.378" fill="#FFFFFF"/>
<rect  x="458.359" y="133.562" width="15.463" height="4.378" fill="#FFFFFF"/>
<rect  x="479.665" y="133.562" width="18.729" height="4.378" fill="#FFFFFF"/>
<rect  x="430.867" y="133.562" width="20.447" height="4.378" fill="#FFFFFF"/>
<rect  x="409.905" y="143.752" width="22.681" height="4.379" fill="#FFFFFF"/>
<rect  x="456.126" y="143.752" width="22.681" height="4.379" fill="#FFFFFF"/>
<rect  x="378.117" y="143.752" width="21.821" height="4.379" fill="#FFFFFF"/>
<rect  x="409.905" y="153.944" width="14.433" height="4.379" fill="#FFFFFF"/>
<rect  x="482.07" y="153.944" width="18.385" height="4.379" fill="#FFFFFF"/>
<rect  x="466.435" y="153.944" width="11.34" height="4.379" fill="#FFFFFF"/>
<rect  x="432.241" y="153.944" width="22.681" height="4.379" fill="#FFFFFF"/>
<rect  x="378.117" y="153.944" width="21.821" height="4.379" fill="#FFFFFF"/>
<rect  x="378.117" y="164.134" width="21.821" height="4.379" fill="#FFFFFF"/>
<rect  x="409.905" y="164.134" width="44.331" height="4.379" fill="#FFFFFF"/>
<rect  x="460.593" y="164.134" width="24.915" height="4.379" fill="#FFFFFF"/>
<path d="M241.801,49.944C241.801,52.909 243.359,55.732 240.35,55.732L240.199,55.732L240.199,57.29L240.35,57.29C243.339,57.29 241.801,60.3 241.801,62.98C241.801,65.287 243.089,66.508 245.525,66.508L246.193,66.508L246.193,64.85L245.599,64.85C244.373,64.85 243.803,64.216 243.803,62.857C243.803,60.917 245.112,57.48 242.634,56.496C245.113,55.49 243.803,52.171 243.803,50.19C243.803,48.81 244.34,48.221 245.599,48.221L246.193,48.221L246.193,46.563L245.525,46.563C243.124,46.563 241.801,47.763 241.801,49.943L241.801,49.944Z" fill="url(#pf_0_7_1152)"/>
<path d="M273.873,55.732C270.863,55.732 272.421,52.908 272.421,49.944C272.421,47.795 271.054,46.565 268.672,46.565L268.028,46.565L268.028,48.222L268.62,48.222C269.88,48.244 270.418,48.833 270.418,50.191C270.418,52.178 269.077,55.467 271.57,56.497C269.064,57.51 270.418,60.931 270.418,62.858C270.418,65.309 268.331,64.771 268.028,64.851L268.028,66.509C268.741,66.409 272.421,66.947 272.421,62.982C272.421,60.31 270.882,57.292 273.873,57.292L274.023,57.292L274.023,55.733L273.873,55.733L273.873,55.732Z" fill="url(#pf_0_7_1153)"/>
<rect  x="248.681" y="50.689" width="16.839" height="1.892" fill="url(#pf_0_7_1154)"/>
<rect  x="248.681" y="54.982" width="16.839" height="1.892" fill="url(#pf_0_7_1155)"/>
<rect  x="248.681" y="59.277" width="5.898" height="1.892" fill="url(#pf_0_7_1156)"/>
<rect  x="257.448" y="59.277" width="5.059" height="1.892" fill="url(#pf_0_7_1157)"/>
<path d="M306.5,183.908L304.966,188.554L302.993,188.554L308.012,173.782L310.313,173.782L315.354,188.554L313.316,188.554L311.737,183.908L306.5,183.908ZM311.343,182.417C309.895,177.992 309.932,178.602 309.131,175.47L309.086,175.47C308.315,178.559 307.963,179.13 306.895,182.417L311.343,182.417Z" fill="url(#pf_0_7_1159)"/>
<path d="M317.31,188.554C317.47,185.887 317.363,184.505 317.397,172.994L319.303,172.994L319.303,179.657L319.346,179.657C320.026,178.473 321.253,177.706 322.963,177.706C325.592,177.706 327.455,179.898 327.434,183.119C327.434,186.91 325.045,188.795 322.678,188.795C321.144,188.795 319.916,188.203 319.128,186.8L319.062,186.8L318.975,188.554L317.31,188.554ZM319.304,184.302C319.304,185.79 320.52,187.261 322.284,187.261C324.3,187.261 325.506,185.617 325.506,183.184C325.506,181.058 324.41,179.24 322.349,179.24C320.637,179.24 319.303,180.743 319.303,182.396L319.303,184.302L319.304,184.302Z" fill="url(#pf_0_7_1160)"/>
<path d="M337.433,188.16C336.929,188.422 335.811,188.773 334.386,188.773C331.187,188.773 329.104,186.604 329.104,183.36C329.104,180.116 331.34,177.727 334.803,177.727C335.943,177.727 336.951,178.012 337.477,178.274L337.039,179.765C336.578,179.502 335.855,179.261 334.803,179.261C332.37,179.261 331.055,181.058 331.055,183.272C331.055,185.727 332.633,187.239 334.737,187.239C335.832,187.239 336.555,186.955 337.104,186.714L337.433,188.16Z" fill="url(#pf_0_7_1161)"/>
<path d="M469.619,201.866L303.387,201.866C298.41,201.866 294.375,205.9 294.375,210.878L294.375,268.545C294.375,273.522 298.41,277.557 303.387,277.557L469.619,277.557C474.596,277.557 478.631,273.522 478.631,268.545L478.631,210.878C478.631,205.9 474.596,201.866 469.619,201.866Z" fill="url(#pf_0_7_1163)"/>
<path d="M332.558,212.774L310.22,212.774C308.949,212.774 307.918,213.804 307.918,215.076L307.918,237.414C307.918,238.685 308.949,239.715 310.22,239.715L332.558,239.715C333.829,239.715 334.859,238.685 334.859,237.414L334.859,215.076C334.859,213.804 333.829,212.774 332.558,212.774Z" fill="url(#pf_0_7_1165)"/>
<rect  x="346.281" y="217.842" width="118.808" height="3.272" fill="url(#pf_0_7_1166)"/>
<rect  x="346.281" y="226.948" width="118.808" height="3.272" fill="url(#pf_0_7_1167)"/>
<rect  x="346.281" y="236.055" width="118.808" height="3.272" fill="url(#pf_0_7_1168)"/>
<rect  x="308.409" y="245.163" width="156.681" height="3.272" fill="url(#pf_0_7_1169)"/>
<rect  x="308.409" y="254.27" width="156.681" height="3.272" fill="url(#pf_0_7_1170)"/>
<rect  x="308.409" y="263.377" width="156.681" height="3.272" fill="url(#pf_0_7_1171)"/>
<path d="M456.329,107.705C455.842,107.218 455.179,107.031 454.374,107.336L442.877,112.494C442.053,112.883 441.494,113.608 441.494,114.537L441.494,114.768C441.494,115.703 442.055,116.425 442.888,116.816L454.375,121.969L454.41,121.983C455.061,122.229 455.81,122.121 456.331,121.599C457.239,120.69 456.871,119.194 455.703,118.707L446.58,114.653L455.689,110.605C456.923,110.092 457.206,108.586 456.33,107.705L456.329,107.705Z" fill="#FFFFFF"/>
<path d="M466.312,101.79L458.682,124.106C458.245,125.426 459.169,126.513 460.35,126.513C461.199,126.513 461.813,125.986 462.043,125.299L469.674,102.983C469.919,102.24 469.748,101.585 469.291,101.107C468.442,100.223 466.76,100.442 466.311,101.791L466.312,101.79Z" fill="#FFFFFF"/>
<path d="M485.44,112.489L473.944,107.332C472.848,106.863 471.491,107.617 471.491,108.953C471.491,109.691 471.99,110.334 472.626,110.598L481.749,114.652L472.639,118.701C471.406,119.219 471.125,120.727 472,121.599C472.549,122.15 473.367,122.22 473.955,121.968L485.451,116.811C486.274,116.425 486.834,115.696 486.834,114.768L486.834,114.537C486.834,113.606 486.28,112.886 485.44,112.489Z" fill="#FFFFFF"/>
<path d="M157.589,416.356L140.28,416.173L141.355,399.7L158.079,400.217L157.747,416.219C157.737,416.298 157.67,416.358 157.589,416.356Z" fill="#FFDAD9"/>
<path d="M139.87,415.663L136.872,428.185C136.357,430.827 138.323,433.304 141.014,433.393C152.062,433.763 173.779,433.397 177.79,433.361C178.11,433.359 178.363,433.106 178.379,432.786C178.557,428.956 176.013,426.52 172.264,424.636L157.811,414.903C157.784,414.886 157.754,414.878 157.722,414.88L139.869,415.661L139.87,415.663Z" fill="#373A50"/>
<path d="M88.209,407.621L73.864,397.931L83.836,384.776L97.508,394.422L88.417,407.593C88.365,407.655 88.275,407.666 88.209,407.621Z" fill="#FFDAD9"/>
<path d="M73.803,397.281L64.402,406.08C62.517,408.001 62.794,411.151 64.99,412.708C74.007,419.103 92.333,430.763 95.698,432.942C95.967,433.115 96.318,433.045 96.507,432.786C98.766,429.688 97.985,426.253 95.895,422.617L89.195,406.531C89.181,406.503 89.16,406.479 89.132,406.464L73.803,397.281Z" fill="#373A50"/>
<rect  x="51.175" y="329.71" width="2.905" height="90.102" fill="#373A50"/>
<path d="M106.485,317.395L78.26,388.933L93.808,401.519L130.286,343.838C123.996,328.36 117.286,314.584 106.486,317.394L106.485,317.395Z" fill="#3A4AC3"/>
<path d="M24.483,281.073L21.651,303.867C21.342,314.251 29.676,322.837 40.065,322.837L113.028,322.837L137.929,408.672C138.221,412.364 160.823,410.576 160.531,406.884C160.531,406.884 151.918,307.347 141.273,298.302C127.211,286.356 70.688,281.513 70.688,281.513L24.483,281.071L24.483,281.073Z" fill="#3A4AC3"/>
<path d="M82.953,185.94C82.515,186.433 82.056,187.732 81.596,189.4C80.147,194.644 78.744,203.648 78.744,203.648L60.978,191.39C67.498,182.053 69.729,175.153 69.729,175.153C69.729,175.153 71.074,175.497 72.926,176.106C77.951,177.797 86.759,181.499 82.953,185.938L82.953,185.94Z" fill="#FFDAD9"/>
<path d="M82.953,185.94C82.515,186.433 82.056,187.732 81.596,189.4C81.596,189.4 73.327,181.271 71.959,178.625C71.556,177.855 72.039,176.981 72.924,176.106C77.95,177.797 86.758,181.499 82.951,185.938L82.953,185.94Z" fill="#FECDCB"/>
<path d="M102.329,172.267C102.329,173.486 99.604,173.739 99.604,173.739C99.604,173.739 99.478,175.728 99.087,178.223C98.659,180.903 97.731,185.433 95.786,187.296C94.084,188.929 76.249,188.078 69.729,175.154L63.564,166.805L68.049,149.901C68.049,149.901 80.273,145.831 91.588,146.037C102.926,146.232 99.546,166.517 99.546,166.517C99.546,166.517 102.328,171.186 102.328,172.267L102.329,172.267Z" fill="#FFDAD9"/>
<path d="M69.734,175.153C69.734,175.153 70.172,172.708 69.031,169.831C67.755,166.615 66.687,164.172 67.997,162.43C71.426,157.87 76.483,166.673 76.483,166.673L79.057,165.978L79.544,151.579C79.544,151.579 99.993,158.674 105.071,151.579C110.149,144.484 108.131,134.608 100.689,136.138C93.247,137.668 82.465,138.085 82.465,138.085C82.465,138.085 62.433,136.068 60.764,144.554C59.095,153.041 53.666,165.549 69.735,175.154L69.734,175.153Z" fill="#111228"/>
<path d="M164.436,233.232C164.436,233.232 168.407,240.479 166.165,242.017C161.5,245.219 149.942,243.81 149.942,243.81L154.296,233.233C154.296,233.233 156.304,221.77 159.26,222.966C162.215,224.151 161.181,229.156 161.181,229.156C161.181,229.156 175.28,222.037 176.913,224.567C178.557,227.096 164.437,233.233 164.437,233.233L164.436,233.232Z" fill="#FFDAD9"/>
<path d="M61.963,224.378C69.538,235.402 89.122,266.572 98.834,268.144C107.113,269.483 159.768,245.879 159.768,245.879L154.138,231.607L110.218,242.619C110.218,242.619 90.1,211.65 83.901,205.95C72.889,195.823 53.172,211.585 61.963,224.379L61.963,224.378Z" fill="#EAC250"/>
<path d="M84.337,255.072L86.495,283.293C86.495,284.386 76.778,286.501 64.75,288.559C45.224,291.883 21.642,290.331 21.642,288.559C21.642,288.559 39.713,196.635 61.993,188.479C70.359,185.416 81.989,200.986 83.901,207.358C88.75,223.502 84.337,255.074 84.337,255.074L84.337,255.072Z" fill="#FADF68"/>
<path d="M91.67,255.292C91.015,265.136 89.381,274.806 86.495,283.293C86.495,284.385 76.778,286.501 64.75,288.559C68.337,282.154 69.868,274.588 68.649,267.331C66.579,255.026 57.621,244.837 54.85,232.661C52.492,222.254 54.091,214.882 60.714,206.511C66.487,208.443 69.925,214.423 71.685,220.253C73.433,226.095 74.089,232.328 76.871,237.755C78.723,241.366 81.436,244.449 84.185,247.438C86.634,250.094 89.13,252.716 91.67,255.292Z" fill="#EAC250"/>
<path d="M158.86,273.14L152.87,270.08L138.346,270.275L138.99,260.95C138.99,260.95 144.889,254.947 147.603,257.374C150.19,259.685 147.131,261.376 146.856,261.525C147.557,261.374 160.879,261.201 160.836,264.594C160.744,271.769 158.86,273.14 158.86,273.14Z" fill="#FFDAD9"/>
<path d="M56.732,216.451C59.734,229.485 66.515,265.668 74.974,270.694C82.184,274.977 139.828,272.339 139.828,272.339L139.828,259.121L94.931,251.124C94.931,251.124 87.578,214.935 83.904,207.358C77.375,193.896 53.249,201.325 56.733,216.453L56.732,216.451Z" fill="#FADF68"/>
<path d="M102.444,322.8L19.07,322.8C17.298,322.8 15.862,324.236 15.862,326.008L15.862,329.441C15.862,331.213 17.298,332.649 19.07,332.649L102.444,332.649C104.216,332.649 105.653,331.213 105.653,329.441L105.653,326.008C105.653,324.236 104.216,322.8 102.444,322.8Z" fill="#B2C7FF"/>
<path d="M22.461,332.117L19.07,332.649C17.319,332.923 15.678,331.727 15.404,329.976L-0.416,229.386C-0.691,227.635 0.506,225.994 2.256,225.72L5.647,225.188C7.398,224.914 9.039,226.11 9.313,227.861L25.134,328.45C25.408,330.201 24.212,331.842 22.461,332.116L22.461,332.117Z" fill="#B2C7FF"/>
<path d="M85.934,433.291C85.622,431.487 84.135,430.051 82.25,429.888C68.113,428.67 54.088,419.811 54.088,419.811L51.173,419.811C51.173,419.811 37.15,428.67 23.012,429.888C21.128,430.051 19.64,431.487 19.329,433.291L85.934,433.291Z" fill="#373A50"/>
<path d="M186.493,278.653L140.674,278.653C140.674,277.336 141.203,276.136 142.067,275.283C142.932,274.406 144.12,273.875 145.438,273.875L181.729,273.875C184.362,273.875 186.493,276.019 186.493,278.652L186.493,278.653Z" fill="#373A50"/>
<path d="M114.329,433.291L137.026,301.341C138.523,292.639 146.018,286.323 154.847,286.323L246.128,286.323C254.957,286.323 262.453,292.639 263.949,301.341L286.646,433.291L290.576,433.291L267.765,300.684C265.948,290.118 256.847,282.448 246.127,282.448L154.846,282.448C144.125,282.448 135.024,290.118 133.207,300.683L110.396,433.29L114.326,433.29L114.329,433.291Z" fill="#373A50"/>
<path d="M267.193,281.09L267.193,283.892C267.193,285.235 266.109,286.32 264.754,286.32L136.218,286.32C134.875,286.32 133.779,285.235 133.779,283.892L133.779,281.09C133.779,279.748 134.877,278.65 136.218,278.65L264.754,278.65C266.109,278.65 267.193,279.748 267.193,281.09Z" fill="#B2C7FF"/>
<path d="M237.717,278.653L214.713,278.653C213.643,278.653 212.776,277.786 212.776,276.716C212.776,275.647 213.643,274.779 214.713,274.779L237.833,274.779C241.113,274.779 244.318,273.4 246.328,270.806C248.421,268.105 249.038,264.668 248.02,261.424L229.84,203.36L233.537,202.202L251.717,260.266C253.088,264.645 252.3,269.278 249.554,272.962C246.801,276.654 242.321,278.653 237.717,278.653Z" fill="#000000"/>
<path d="M236.62,188.153C237.983,184.751 243.182,186.642 242.24,190.183L229.158,239.372C229.094,239.61 229.017,239.841 228.928,240.066C227.567,243.47 222.365,241.582 223.307,238.038L236.391,188.847C236.454,188.609 236.531,188.378 236.62,188.155L236.62,188.153Z" fill="#111228"/>
<path d="M243.118,167.573L219.738,255.484C218.369,260.627 213.101,263.694 207.958,262.326L231.343,174.4C232.708,169.273 237.989,166.21 243.118,167.573Z" fill="#373A50"/>
<path d="M97.605,164.548C97.586,165.76 97.063,166.733 96.442,166.722C95.82,166.712 95.329,165.724 95.348,164.512C95.367,163.301 95.89,162.328 96.511,162.338C97.133,162.348 97.624,163.337 97.605,164.548Z" fill="#111228"/>
<path d="M98.439,161.573C97.017,161.684 96.731,161.256 95.567,161.843C95.265,162 94.931,162.209 94.512,162.338C94.6,161.914 94.755,161.549 95.02,161.212C95.591,160.457 96.578,160.258 97.514,160.758C97.883,160.952 98.194,161.215 98.44,161.573L98.439,161.573Z" fill="#111228"/>
<path d="M99.087,178.223C98.96,179.017 98.811,179.856 98.615,180.696L98.5,180.696C97.12,180.696 96.016,179.592 95.993,178.223L99.087,178.223Z" fill="#FFFFFF"/>
<path d="M209.03,122.503L210.064,128.921C210.184,129.762 209.463,130.508 208.622,130.364L201.122,129.161C196.82,131.638 191.819,133.056 186.507,133.056C170.305,133.056 157.157,119.931 157.157,103.73C157.157,87.528 170.305,74.38 186.507,74.38C202.708,74.38 215.833,87.528 215.833,103.73C215.833,110.868 213.261,117.432 209.03,122.503Z" fill="url(#pf_0_7_1212)"/>
<path d="M205.312,107.179L205.312,101.521L201.19,101.521C200.797,99.496 200.011,97.606 198.894,95.962L201.803,93.054L197.777,89.041L194.881,91.937C193.238,90.82 191.359,90.023 189.323,89.629L189.323,85.53L183.653,85.53L183.653,89.629C181.628,90.021 179.738,90.82 178.095,91.937L175.199,89.041L171.185,93.054L174.094,95.962C172.977,97.606 172.18,99.496 171.799,101.521L167.675,101.521L167.675,107.179L171.786,107.179C172.179,109.204 172.964,111.081 174.08,112.738L171.184,115.647L175.197,119.647L178.093,116.762C179.738,117.879 181.628,118.678 183.652,119.058L183.652,123.157L189.321,123.157L189.321,119.058C191.359,118.678 193.236,117.879 194.893,116.762L197.777,119.647L201.803,115.647L198.894,112.738C200.011,111.081 200.808,109.204 201.19,107.179L205.312,107.179ZM186.488,111.547C182.514,111.547 179.297,108.318 179.297,104.357C179.297,100.396 182.514,97.142 186.488,97.142C190.461,97.142 193.69,100.384 193.69,104.357C193.69,108.331 190.473,111.547 186.488,111.547Z" fill="#FFFFFF"/>
<path d="M401.502,373.218C401.502,373.218 430.801,347.555 430.593,342.257C430.385,336.958 419.268,340.594 418.541,337.062C417.814,333.529 435.164,319.295 432.67,316.282C430.176,313.269 423.631,321.477 422.592,317.529C421.553,313.581 434.245,293.359 420.307,292.075C402.513,290.435 410.219,314.127 407.32,314.724C403.62,315.485 398.024,309.238 392.21,314.422C381.956,323.565 401.502,373.216 401.502,373.216L401.502,373.218Z" fill="#3DCFA4"/>
<path d="M402.482,369.183C402.912,364.571 403.533,359.986 404.232,355.417C404.922,350.846 405.724,346.293 406.587,341.749C406.851,340.487 408.411,332.553 409.533,328.189C410.283,325.066 411.786,319.498 413.005,316.531L413.735,314.95L413.25,316.614C412.619,318.972 411.358,325.747 410.836,328.473L408.264,342.073C407.37,346.602 406.497,351.135 405.539,355.653C404.593,360.174 403.608,364.689 402.482,369.183Z" fill="#30BB93"/>
<path d="M409.345,335.316C410.067,333.499 411.476,331.52 412.748,330.034C414.022,328.543 415.769,326.847 417.447,325.864C416.729,327.68 415.312,329.671 414.045,331.146C412.778,332.622 411.034,334.324 409.345,335.316Z" fill="#30BB93"/>
<path d="M404.957,358.494C406.062,356.849 407.879,355.189 409.446,353.99C411.02,352.785 413.107,351.469 414.971,350.843C413.876,352.48 412.058,354.147 410.483,355.347C408.918,356.54 406.838,357.859 404.957,358.494Z" fill="#30BB93"/>
<path d="M405.656,351.298C403.788,349.005 401.822,345.601 400.549,343.073C399.281,340.58 397.698,336.946 396.968,334.079C398.808,336.33 400.788,339.735 402.075,342.304C403.361,344.846 404.923,348.434 405.656,351.299L405.656,351.298Z" fill="#30BB93"/>
<path d="M400.49,373.687C400.49,373.687 402.265,346.857 399.577,344.371C396.889,341.886 393.237,349.088 391.158,347.719C389.079,346.349 390.6,330.931 387.913,330.677C385.225,330.423 386.036,337.625 383.601,336.205C381.167,334.784 377.491,318.717 370.059,324.895C360.571,332.781 375.899,340.585 374.776,342.291C373.341,344.469 367.559,344.152 367.252,349.521C366.71,358.989 400.49,373.687 400.49,373.687Z" fill="#3DCFA4"/>
<path d="M399.001,371.239C396.959,368.778 395.025,366.236 393.135,363.664C391.24,361.094 389.409,358.481 387.613,355.842C385.254,352.234 382.773,348.643 380.033,343.629C377.817,339.365 378.489,340.311 378.019,339.271C379.521,341.868 379.341,341.54 380.529,343.331C380.909,343.922 380.522,343.345 388.589,355.181C390.363,357.829 392.149,360.467 393.888,363.141C395.634,365.81 397.357,368.494 399.001,371.239Z" fill="#30BB93"/>
<path d="M385.818,351.354C385.283,350.115 385.005,348.461 384.901,347.115C384.795,345.766 384.819,344.084 385.16,342.786C385.695,344.023 385.976,345.686 386.078,347.025C386.18,348.363 386.159,350.046 385.819,351.354L385.818,351.354Z" fill="#30BB93"/>
<path d="M394.99,364.813C394.726,363.471 394.803,361.773 394.983,360.422C395.162,359.065 395.54,357.404 396.144,356.188C396.408,357.522 396.336,359.223 396.152,360.579C395.971,361.926 395.599,363.585 394.99,364.813Z" fill="#30BB93"/>
<path d="M391.819,360.958C389.787,360.75 387.166,360.049 385.31,359.435C383.474,358.837 380.927,357.836 379.171,356.793C381.168,356.994 383.797,357.689 385.68,358.316C387.548,358.929 390.063,359.919 391.819,360.958Z" fill="#30BB93"/>
<rect  x="383.559" y="369.061" width="32.154" height="6.312" fill="url(#pf_0_7_1227)"/>
<path d="M408.514,394.607L390.759,394.607L386.815,375.373L412.458,375.373L408.514,394.607Z" fill="url(#pf_0_7_1228)"/>
<defs>
<linearGradient id="pf_0_7_1094" x1="480.356" y1="128.694" x2="502.687" y2="128.694" gradientUnits="userSpaceOnUse">
<stop stop-color="#D1DEFF"/>
<stop offset="1" stop-color="#B2C7FF"/>
</linearGradient>
<linearGradient id="pf_0_7_1098" x1="226.692" y1="12.934" x2="497.074" y2="12.934" gradientUnits="userSpaceOnUse">
<stop stop-color="#D1DEFF"/>
<stop offset="1" stop-color="#B2C7FF"/>
</linearGradient>
<linearGradient id="pf_0_7_1104" x1="271.483" y1="74.239" x2="291.502" y2="74.239" gradientUnits="userSpaceOnUse">
<stop stop-color="#EBF2FF"/>
<stop offset="1" stop-color="#E1E8FF"/>
</linearGradient>
<linearGradient id="pf_0_7_1105" x1="271.479" y1="178.615" x2="291.51" y2="178.615" gradientUnits="userSpaceOnUse">
<stop stop-color="#EBF2FF"/>
<stop offset="1" stop-color="#E1E8FF"/>
</linearGradient>
<linearGradient id="pf_0_7_1106" x1="261.413" y1="126.506" x2="271.628" y2="126.027" gradientUnits="userSpaceOnUse">
<stop stop-color="#D1DEFF"/>
<stop offset="1" stop-color="#B2C7FF"/>
</linearGradient>
<linearGradient id="pf_0_7_1107" x1="306.119" y1="125.587" x2="286.548" y2="128.207" gradientUnits="userSpaceOnUse">
<stop stop-color="#D1DEFF"/>
<stop offset="1" stop-color="#B2C7FF"/>
</linearGradient>
<linearGradient id="pf_0_7_1108" x1="255.73" y1="84.532" x2="307.254" y2="84.532" gradientUnits="userSpaceOnUse">
<stop stop-color="#EBF2FF"/>
<stop offset="1" stop-color="#E1E8FF"/>
</linearGradient>
<linearGradient id="pf_0_7_1109" x1="255.734" y1="84.529" x2="307.243" y2="84.529" gradientUnits="userSpaceOnUse">
<stop stop-color="#EBF2FF"/>
<stop offset="1" stop-color="#E1E8FF"/>
</linearGradient>
<linearGradient id="pf_0_7_1110" x1="270.558" y1="126.427" x2="292.424" y2="126.427" gradientUnits="userSpaceOnUse">
<stop stop-color="#EBF2FF"/>
<stop offset="1" stop-color="#E1E8FF"/>
</linearGradient>
<linearGradient id="pf_0_7_1111" x1="270.563" y1="84.53" x2="292.422" y2="84.53" gradientUnits="userSpaceOnUse">
<stop stop-color="#D1DEFF"/>
<stop offset="1" stop-color="#B2C7FF"/>
</linearGradient>
<linearGradient id="pf_0_7_1112" x1="255.743" y1="168.325" x2="307.254" y2="168.325" gradientUnits="userSpaceOnUse">
<stop stop-color="#EBF2FF"/>
<stop offset="1" stop-color="#E1E8FF"/>
</linearGradient>
<linearGradient id="pf_0_7_1113" x1="255.734" y1="168.323" x2="307.258" y2="168.323" gradientUnits="userSpaceOnUse">
<stop stop-color="#EBF2FF"/>
<stop offset="1" stop-color="#E1E8FF"/>
</linearGradient>
<linearGradient id="pf_0_7_1114" x1="270.565" y1="168.325" x2="292.424" y2="168.325" gradientUnits="userSpaceOnUse">
<stop stop-color="#D1DEFF"/>
<stop offset="1" stop-color="#B2C7FF"/>
</linearGradient>
<linearGradient id="pf_0_7_1116" x1="509.472" y1="111.635" x2="514.49" y2="111.635" gradientUnits="userSpaceOnUse">
<stop stop-color="#909EFF"/>
<stop offset="1" stop-color="#6977E3"/>
</linearGradient>
<linearGradient id="pf_0_7_1117" x1="459.746" y1="83.196" x2="376.694" y2="164.848" gradientUnits="userSpaceOnUse">
<stop stop-color="#909EFF"/>
<stop offset="1" stop-color="#6977E3"/>
</linearGradient>
<linearGradient id="pf_0_7_1152" x1="240.199" y1="56.537" x2="246.194" y2="56.537" gradientUnits="userSpaceOnUse">
<stop stop-color="#D1DEFF"/>
<stop offset="1" stop-color="#B2C7FF"/>
</linearGradient>
<linearGradient id="pf_0_7_1153" x1="268.03" y1="56.537" x2="274.024" y2="56.537" gradientUnits="userSpaceOnUse">
<stop stop-color="#D1DEFF"/>
<stop offset="1" stop-color="#B2C7FF"/>
</linearGradient>
<linearGradient id="pf_0_7_1154" x1="248.681" y1="51.635" x2="265.52" y2="51.635" gradientUnits="userSpaceOnUse">
<stop stop-color="#D1DEFF"/>
<stop offset="1" stop-color="#B2C7FF"/>
</linearGradient>
<linearGradient id="pf_0_7_1155" x1="248.681" y1="55.929" x2="265.52" y2="55.929" gradientUnits="userSpaceOnUse">
<stop stop-color="#D1DEFF"/>
<stop offset="1" stop-color="#B2C7FF"/>
</linearGradient>
<linearGradient id="pf_0_7_1156" x1="248.681" y1="60.224" x2="265.52" y2="60.224" gradientUnits="userSpaceOnUse">
<stop stop-color="#D1DEFF"/>
<stop offset="1" stop-color="#B2C7FF"/>
</linearGradient>
<linearGradient id="pf_0_7_1157" x1="251.954" y1="60.224" x2="262.505" y2="60.224" gradientUnits="userSpaceOnUse">
<stop stop-color="#D1DEFF"/>
<stop offset="1" stop-color="#B2C7FF"/>
</linearGradient>
<linearGradient id="pf_0_7_1159" x1="302.993" y1="181.169" x2="315.354" y2="181.169" gradientUnits="userSpaceOnUse">
<stop stop-color="#D1DEFF"/>
<stop offset="1" stop-color="#B2C7FF"/>
</linearGradient>
<linearGradient id="pf_0_7_1160" x1="317.31" y1="180.895" x2="327.435" y2="180.895" gradientUnits="userSpaceOnUse">
<stop stop-color="#D1DEFF"/>
<stop offset="1" stop-color="#B2C7FF"/>
</linearGradient>
<linearGradient id="pf_0_7_1161" x1="329.106" y1="183.25" x2="337.477" y2="183.25" gradientUnits="userSpaceOnUse">
<stop stop-color="#D1DEFF"/>
<stop offset="1" stop-color="#B2C7FF"/>
</linearGradient>
<linearGradient id="pf_0_7_1163" x1="386.504" y1="257.845" x2="386.504" y2="182.152" gradientUnits="userSpaceOnUse">
<stop stop-color="#EBF2FF"/>
<stop offset="0.63" stop-color="#E7EEFF"/>
<stop offset="1" stop-color="#E1E8FF"/>
</linearGradient>
<linearGradient id="pf_0_7_1165" x1="321.389" y1="239.715" x2="321.389" y2="212.774" gradientUnits="userSpaceOnUse">
<stop stop-color="#D1DEFF"/>
<stop offset="1" stop-color="#B2C7FF"/>
</linearGradient>
<linearGradient id="pf_0_7_1166" x1="405.685" y1="220.125" x2="405.685" y2="223.334" gradientUnits="userSpaceOnUse">
<stop stop-color="#D1DEFF"/>
<stop offset="1" stop-color="#B2C7FF"/>
</linearGradient>
<linearGradient id="pf_0_7_1167" x1="405.685" y1="229.233" x2="405.685" y2="232.441" gradientUnits="userSpaceOnUse">
<stop stop-color="#D1DEFF"/>
<stop offset="1" stop-color="#B2C7FF"/>
</linearGradient>
<linearGradient id="pf_0_7_1168" x1="405.685" y1="238.341" x2="405.685" y2="241.549" gradientUnits="userSpaceOnUse">
<stop stop-color="#D1DEFF"/>
<stop offset="1" stop-color="#B2C7FF"/>
</linearGradient>
<linearGradient id="pf_0_7_1169" x1="386.749" y1="247.448" x2="386.749" y2="250.655" gradientUnits="userSpaceOnUse">
<stop stop-color="#D1DEFF"/>
<stop offset="1" stop-color="#B2C7FF"/>
</linearGradient>
<linearGradient id="pf_0_7_1170" x1="386.749" y1="256.554" x2="386.749" y2="259.763" gradientUnits="userSpaceOnUse">
<stop stop-color="#D1DEFF"/>
<stop offset="1" stop-color="#B2C7FF"/>
</linearGradient>
<linearGradient id="pf_0_7_1171" x1="386.749" y1="265.662" x2="386.749" y2="268.87" gradientUnits="userSpaceOnUse">
<stop stop-color="#D1DEFF"/>
<stop offset="1" stop-color="#B2C7FF"/>
</linearGradient>
<linearGradient id="pf_0_7_1212" x1="215.831" y1="103.718" x2="157.154" y2="103.718" gradientUnits="userSpaceOnUse">
<stop stop-color="#D1DEFF"/>
<stop offset="1" stop-color="#B2C7FF"/>
</linearGradient>
<linearGradient id="pf_0_7_1227" x1="399.637" y1="371.366" x2="399.637" y2="373.358" gradientUnits="userSpaceOnUse">
<stop stop-color="#909EFF"/>
<stop offset="1" stop-color="#6977E3"/>
</linearGradient>
<linearGradient id="pf_0_7_1228" x1="399.637" y1="379.233" x2="399.637" y2="385.345" gradientUnits="userSpaceOnUse">
<stop stop-color="#909EFF"/>
<stop offset="1" stop-color="#6977E3"/>
</linearGradient>
</defs>
</svg>
