<svg width="414" height="376" viewBox="0 0 414 376" fill="none" xmlns="http://www.w3.org/2000/svg" xmlns:xlink="http://www.w3.org/1999/xlink">
<path d="M200.417,57.754L199.611,57.754L199.611,47.298C199.611,37.803 207.336,30.078 216.831,30.078L227.671,30.078L227.671,30.883L216.831,30.883C207.78,30.883 200.417,38.247 200.417,47.298L200.417,57.754Z" fill="#B7BCFF"/>
<path d="M227.479,200.861L217.023,200.861C207.528,200.861 199.803,193.136 199.803,183.641L199.803,172.802L200.609,172.802L200.609,183.641C200.609,192.692 207.972,200.055 217.023,200.055L227.479,200.055L227.479,200.861Z" fill="#B7BCFF"/>
<path d="M412.4,57.754L411.595,57.754L411.595,47.298C411.595,38.247 404.231,30.883 395.18,30.883L384.341,30.883L384.341,30.078L395.18,30.078C404.675,30.078 412.4,37.803 412.4,47.298L412.4,57.754Z" fill="#B7BCFF"/>
<path d="M394.988,200.861L384.533,200.861L384.533,200.055L394.988,200.055C404.04,200.055 411.404,192.692 411.404,183.641L411.404,172.802L412.209,172.802L412.209,183.641C412.209,193.136 404.484,200.861 394.988,200.861Z" fill="#B7BCFF"/>
<path d="M402.821,47.298L402.821,183.641C402.821,188.189 399.134,191.876 394.586,191.876L217.426,191.876C212.878,191.876 209.191,188.189 209.191,183.641L209.191,47.298C209.191,42.75 212.878,39.063 217.426,39.063L394.586,39.063C399.134,39.063 402.821,42.75 402.821,47.298Z" fill="url(#pf_0_7_2500)"/>
<path d="M402.822,47.296L402.822,66.978L267.435,66.978C266.005,66.978 264.667,66.271 263.862,65.089L258.583,57.339C257.778,56.156 256.44,55.449 255.01,55.449L236.467,55.449C235.037,55.449 233.699,56.156 232.894,57.339L227.615,65.089C226.81,66.271 225.473,66.978 224.042,66.978L209.193,66.978L209.193,47.297C209.193,42.746 212.882,39.057 217.432,39.057L394.583,39.057C399.133,39.057 402.822,42.746 402.822,47.296Z" fill="url(#pf_0_7_2501)"/>
<path d="M393.85,53.247C393.85,56.604 391.129,59.326 387.771,59.326L291.064,59.326C287.707,59.326 284.985,56.604 284.985,53.247C284.985,49.889 287.707,47.168 291.064,47.168L387.772,47.168C391.129,47.168 393.85,49.889 393.85,53.247Z" fill="url(#pf_0_7_2502)"/>
<path d="M387.772,47.168L381.826,47.168L381.826,59.326L387.772,59.326C391.129,59.326 393.851,56.604 393.851,53.247C393.851,49.889 391.129,47.168 387.772,47.168Z" fill="#3D79F3"/>
<path d="M386.879,54.913C386.879,54.913 386.879,54.913 386.879,54.913C386.307,54.913 385.768,54.689 385.362,54.283C384.958,53.879 384.735,53.341 384.734,52.769C384.733,52.194 384.956,51.654 385.362,51.249C385.765,50.846 386.304,50.624 386.88,50.624C387.454,50.624 387.993,50.846 388.396,51.249C388.802,51.654 389.025,52.194 389.024,52.769C389.023,53.341 388.8,53.879 388.396,54.283C387.99,54.69 387.451,54.913 386.879,54.913ZM386.879,51.026C386.411,51.026 385.974,51.206 385.647,51.533C385.317,51.863 385.136,52.301 385.137,52.768C385.138,53.233 385.319,53.67 385.647,53.998C385.977,54.328 386.415,54.511 386.879,54.511C387.343,54.511 387.781,54.329 388.111,53.999C388.439,53.671 388.62,53.234 388.621,52.768C388.622,52.301 388.441,51.863 388.111,51.533C387.784,51.207 387.347,51.026 386.879,51.026Z" fill="#FFFFFF"/>
<path d="M389.782,55.87C389.73,55.87 389.679,55.851 389.64,55.811L388.111,54.283C388.033,54.205 388.033,54.077 388.111,53.999C388.19,53.92 388.317,53.92 388.396,53.999L389.924,55.526C390.003,55.605 390.003,55.733 389.924,55.811C389.885,55.851 389.834,55.87 389.782,55.87Z" fill="#FFFFFF"/>
<rect  x="220.22" y="77.626" width="19.126" height="3.902" fill="#FFFFFF"/>
<rect  x="220.22" y="86.714" width="19.126" height="3.902" fill="#FFFFFF"/>
<rect  x="250.081" y="77.626" width="30.493" height="3.902" fill="#FFFFFF"/>
<rect  x="289.342" y="77.626" width="43.376" height="3.902" fill="#FFFFFF"/>
<rect  x="316.105" y="86.714" width="27.125" height="3.902" fill="#FFFFFF"/>
<rect  x="250.081" y="86.714" width="54.027" height="3.902" fill="#FFFFFF"/>
<rect  x="220.22" y="94.653" width="19.126" height="3.902" fill="#FFFFFF"/>
<rect  x="220.22" y="103.741" width="19.126" height="3.902" fill="#FFFFFF"/>
<rect  x="250.081" y="94.653" width="30.493" height="3.902" fill="#FFFFFF"/>
<rect  x="289.342" y="94.653" width="76.697" height="3.902" fill="#FFFFFF"/>
<rect  x="316.105" y="103.741" width="27.125" height="3.902" fill="#FFFFFF"/>
<rect  x="250.081" y="103.741" width="54.027" height="3.902" fill="#FFFFFF"/>
<rect  x="227.836" y="113.049" width="19.126" height="3.902" fill="#FFFFFF"/>
<rect  x="227.836" y="122.137" width="19.126" height="3.902" fill="#FFFFFF"/>
<rect  x="257.698" y="113.049" width="30.493" height="3.902" fill="#FFFFFF"/>
<rect  x="296.958" y="113.049" width="43.376" height="3.902" fill="#FFFFFF"/>
<rect  x="323.722" y="122.137" width="44.054" height="3.902" fill="#FFFFFF"/>
<rect  x="257.698" y="122.137" width="54.027" height="3.902" fill="#FFFFFF"/>
<rect  x="227.836" y="130.075" width="19.126" height="3.902" fill="#FFFFFF"/>
<rect  x="227.836" y="139.163" width="19.126" height="3.902" fill="#FFFFFF"/>
<rect  x="257.698" y="130.075" width="30.493" height="3.902" fill="#FFFFFF"/>
<rect  x="296.958" y="130.075" width="43.376" height="3.902" fill="#FFFFFF"/>
<rect  x="323.722" y="139.163" width="66.06" height="3.902" fill="#FFFFFF"/>
<rect  x="257.698" y="139.163" width="54.027" height="3.902" fill="#FFFFFF"/>
<rect  x="221.037" y="148.582" width="19.126" height="3.902" fill="#FFFFFF"/>
<rect  x="221.037" y="157.67" width="19.126" height="3.902" fill="#FFFFFF"/>
<rect  x="250.898" y="148.582" width="30.493" height="3.902" fill="#FFFFFF"/>
<rect  x="290.158" y="148.582" width="43.376" height="3.902" fill="#FFFFFF"/>
<rect  x="316.922" y="157.67" width="27.125" height="3.902" fill="#FFFFFF"/>
<rect  x="250.898" y="157.67" width="54.027" height="3.902" fill="#FFFFFF"/>
<rect  x="221.037" y="165.608" width="19.126" height="3.902" fill="#FFFFFF"/>
<rect  x="221.037" y="174.696" width="19.126" height="3.902" fill="#FFFFFF"/>
<rect  x="250.898" y="165.608" width="30.493" height="3.902" fill="#FFFFFF"/>
<rect  x="290.158" y="165.608" width="43.376" height="3.902" fill="#FFFFFF"/>
<rect  x="316.922" y="174.696" width="66.255" height="3.902" fill="#FFFFFF"/>
<rect  x="250.898" y="174.696" width="13.793" height="3.902" fill="#FFFFFF"/>
<rect  x="272.083" y="174.696" width="32.841" height="3.902" fill="#FFFFFF"/>
<path d="M133.007,161.683C133.158,162.676 130.095,162.533 130.095,162.533C130.095,162.533 130.322,163.551 130.457,164.873C130.482,165.108 130.499,165.361 130.516,165.613C130.659,167.91 130.381,170.679 128.278,170.83C124.323,171.125 121.074,170.14 121.074,170.14L121.243,177.234L108.427,177.234L106.963,155.532L128.682,150.062L130.247,157.442C130.247,157.442 132.864,160.724 133.007,161.683Z" fill="#FDCCC5"/>
<path d="M120.651,157.822C123.092,155.453 123.958,154.303 122.003,152.467C122.003,152.467 136.457,151.201 133.364,142.063C130.181,132.657 115.29,141.638 115.29,141.638C115.29,141.638 102.407,138.709 100.031,147.51C98.059,154.815 101.42,164.683 106.376,166.889C108.952,168.036 116.92,167.168 117.372,164.385C117.672,162.547 113.026,161.741 114.558,157.488C116.089,153.234 121.042,160.491 121.042,160.491L120.651,157.822Z" fill="url(#pf_0_7_2553)"/>
<path d="M119.89,158.092C121.559,160.06 121.941,162.585 120.75,163.731C119.559,164.877 117.239,164.216 115.57,162.248C113.901,160.28 113.515,157.75 114.706,156.604C115.897,155.459 118.22,156.124 119.89,158.092Z" fill="#FDCCC5"/>
<path d="M121.071,170.143C119.911,169.914 118.586,169.151 117.217,168.248C118.256,169.862 119.538,171.094 121.112,171.866L121.071,170.143Z" fill="#EC8B73"/>
<path d="M150.131,356.467C233.266,356.467 300.662,353.196 300.662,349.161C300.662,345.126 233.266,341.854 150.131,341.854C66.995,341.854 -0.4,345.126 -0.4,349.161C-0.4,353.196 66.995,356.467 150.131,356.467Z" fill="#E7ECFF"/>
<path d="M289.2,251.739L285.832,256.853C284.782,258.447 283.002,259.406 281.092,259.406L33.662,259.406C31.753,259.406 29.972,258.447 28.922,256.853L25.553,251.739C23.067,247.965 25.774,242.941 30.293,242.941L284.462,242.941C288.98,242.941 291.686,247.965 289.2,251.739Z" fill="url(#pf_0_7_2557)"/>
<path d="M289.204,251.74L285.832,256.851C284.782,258.447 282.998,259.406 281.094,259.406L33.66,259.406C31.757,259.406 29.973,258.447 28.924,256.851L25.552,251.74C24.615,250.309 24.42,248.705 24.772,247.266C24.922,247.866 25.177,248.458 25.552,249.027L28.924,254.138C29.973,255.734 31.757,256.693 33.66,256.693L281.094,256.693C282.998,256.693 284.782,255.734 285.832,254.138L289.204,249.027C289.578,248.458 289.832,247.866 289.982,247.266C290.334,248.705 290.14,250.309 289.204,251.74Z" fill="#ADC8F7"/>
<path d="M257.396,259.402L280.909,348.404L276.06,348.404L245.189,259.402L257.396,259.402Z" fill="url(#pf_0_7_2561)"/>
<path d="M221.676,259.402L245.189,348.404L240.34,348.404L209.47,259.402L221.676,259.402Z" fill="url(#pf_0_7_2562)"/>
<path d="M49.583,259.402L26.07,348.404L30.919,348.404L61.789,259.402L49.583,259.402Z" fill="url(#pf_0_7_2564)"/>
<path d="M97.513,259.406L66.638,348.402L61.791,348.402L85.302,259.406L97.513,259.406Z" fill="url(#pf_0_7_2565)"/>
<path d="M250.523,187.677L237.592,239.187C236.899,241.934 234.101,244.162 231.338,244.162L226.939,244.162C229.702,244.162 232.5,241.934 233.188,239.187L246.119,187.677C246.813,184.93 245.131,182.703 242.368,182.703L246.772,182.703C249.534,182.703 251.211,184.93 250.523,187.677Z" fill="#78A7FF"/>
<path d="M246.122,187.677L233.19,239.188C232.5,241.935 229.702,244.162 226.94,244.162L154.601,244.162C151.839,244.162 150.159,241.935 150.849,239.188L163.781,187.677C164.471,184.93 167.269,182.703 170.031,182.703L242.37,182.703C245.132,182.703 246.811,184.93 246.122,187.677Z" fill="url(#pf_0_7_2567)"/>
<path d="M155.371,241.095C154.314,241.095 153.668,240.239 153.932,239.187L166.865,187.677C167.129,186.626 168.204,185.77 169.261,185.77L241.6,185.77C242.657,185.77 243.302,186.626 243.038,187.677L230.106,239.187C229.842,240.239 228.767,241.095 227.71,241.095L155.371,241.095Z" fill="url(#pf_0_7_2568)"/>
<path d="M180.406,190.164L179.916,191.859L171.672,191.859L172.161,190.164L180.406,190.164Z" fill="#FFFFFF"/>
<path d="M179.267,194.11L178.777,195.805L170.533,195.805L171.022,194.11L179.267,194.11Z" fill="#FFFFFF"/>
<path d="M198.177,190.164L185.033,190.164L184.544,191.859L197.688,191.859L198.177,190.164Z" fill="#FFFFFF"/>
<path d="M220.653,190.164L201.956,190.164L201.467,191.859L220.164,191.859L220.653,190.164Z" fill="#FFFFFF"/>
<path d="M212.354,194.11L211.865,195.805L223.557,195.805L224.046,194.11L212.354,194.11Z" fill="#FFFFFF"/>
<path d="M207.182,194.11L183.894,194.11L183.405,195.805L206.693,195.805L207.182,194.11Z" fill="#FFFFFF"/>
<path d="M178.271,197.557L177.782,199.252L169.538,199.252L170.027,197.557L178.271,197.557Z" fill="#FFFFFF"/>
<path d="M177.132,201.504L176.643,203.198L168.399,203.198L168.888,201.504L177.132,201.504Z" fill="#FFFFFF"/>
<path d="M196.043,197.557L182.899,197.557L182.41,199.252L195.554,199.252L196.043,197.557Z" fill="#FFFFFF"/>
<path d="M232.882,197.557L199.822,197.557L199.333,199.252L232.393,199.252L232.882,197.557Z" fill="#FFFFFF"/>
<path d="M210.219,201.503L209.73,203.198L221.422,203.198L221.911,201.503L210.219,201.503Z" fill="#FFFFFF"/>
<path d="M205.048,201.503L181.76,201.503L181.271,203.198L204.559,203.198L205.048,201.503Z" fill="#FFFFFF"/>
<path d="M179.249,205.545L178.759,207.24L170.515,207.24L171.004,205.545L179.249,205.545Z" fill="#FFFFFF"/>
<path d="M178.11,209.491L177.62,211.186L169.376,211.186L169.865,209.491L178.11,209.491Z" fill="#FFFFFF"/>
<path d="M197.02,205.545L183.876,205.545L183.387,207.24L196.531,207.24L197.02,205.545Z" fill="#FFFFFF"/>
<path d="M219.496,205.545L200.799,205.545L200.31,207.24L219.007,207.24L219.496,205.545Z" fill="#FFFFFF"/>
<path d="M211.197,209.491L210.708,211.186L229.697,211.186L230.186,209.491L211.197,209.491Z" fill="#FFFFFF"/>
<path d="M206.025,209.491L182.737,209.491L182.248,211.186L205.536,211.186L206.025,209.491Z" fill="#FFFFFF"/>
<path d="M177.114,212.938L176.625,214.633L168.381,214.633L168.87,212.938L177.114,212.938Z" fill="#FFFFFF"/>
<path d="M175.975,216.884L175.486,218.579L167.242,218.579L167.731,216.884L175.975,216.884Z" fill="#FFFFFF"/>
<path d="M194.886,212.938L181.742,212.938L181.253,214.633L194.397,214.633L194.886,212.938Z" fill="#FFFFFF"/>
<path d="M217.362,212.938L198.665,212.938L198.176,214.633L216.873,214.633L217.362,212.938Z" fill="#FFFFFF"/>
<path d="M209.062,216.884L208.573,218.579L230.863,218.579L231.352,216.884L209.062,216.884Z" fill="#FFFFFF"/>
<path d="M203.891,216.884L180.603,216.884L180.114,218.579L203.402,218.579L203.891,216.884Z" fill="#FFFFFF"/>
<path d="M171.864,220.974L171.374,222.669L163.13,222.669L163.619,220.974L171.864,220.974Z" fill="#FFFFFF"/>
<path d="M170.725,224.92L170.235,226.615L161.991,226.615L162.48,224.92L170.725,224.92Z" fill="#FFFFFF"/>
<path d="M189.635,220.974L176.491,220.974L176.002,222.669L189.146,222.669L189.635,220.974Z" fill="#FFFFFF"/>
<path d="M212.111,220.974L193.414,220.974L192.925,222.669L211.622,222.669L212.111,220.974Z" fill="#FFFFFF"/>
<path d="M203.812,224.92L203.323,226.615L215.014,226.615L215.504,224.92L203.812,224.92Z" fill="#FFFFFF"/>
<path d="M198.64,224.92L175.352,224.92L174.863,226.615L198.151,226.615L198.64,224.92Z" fill="#FFFFFF"/>
<path d="M169.729,228.367L169.24,230.062L160.996,230.062L161.485,228.367L169.729,228.367Z" fill="#FFFFFF"/>
<path d="M168.59,232.313L168.101,234.008L159.857,234.008L160.346,232.313L168.59,232.313Z" fill="#FFFFFF"/>
<path d="M187.501,228.367L174.357,228.367L173.867,230.062L187.012,230.062L187.501,228.367Z" fill="#FFFFFF"/>
<path d="M209.977,228.367L191.28,228.367L190.791,230.062L209.488,230.062L209.977,228.367Z" fill="#FFFFFF"/>
<path d="M201.677,232.313L201.188,234.008L229.747,234.008L230.236,232.313L201.677,232.313Z" fill="#FFFFFF"/>
<path d="M179.163,232.313L173.218,232.313L172.729,234.008L178.674,234.008L179.163,232.313Z" fill="#FFFFFF"/>
<path d="M182.35,232.313L181.861,234.008L196.017,234.008L196.506,232.313L182.35,232.313Z" fill="#FFFFFF"/>
<path d="M204.206,244.161L204.206,248.586L151.207,248.586C148.763,248.586 146.782,246.605 146.782,244.161L204.206,244.161Z" fill="url(#pf_0_7_2613)"/>
<path d="M235.373,244.161C235.373,246.605 233.391,248.586 230.947,248.586L194.229,248.586C191.785,248.586 189.804,246.605 189.804,244.161L235.373,244.161Z" fill="url(#pf_0_7_2614)"/>
<path d="M209.47,370.388C209.47,373.109 179.758,375.319 143.112,375.319C106.46,375.319 76.749,373.109 76.749,370.388C76.749,367.668 106.46,365.457 143.112,365.457C179.758,365.457 209.47,367.668 209.47,370.388Z" fill="#E7ECFF"/>
<rect  x="120.729" y="351.559" width="10.342" height="10.696" fill="#FDCCC5"/>
<path d="M150.744,366.359C150.744,366.367 150.744,366.366 150.744,366.366L150.744,366.388C150.807,367.503 150.172,368.54 149.135,368.992C147.137,369.86 143.291,370.996 138.231,370.008C130.665,368.519 123.6,369.38 120.798,369.655C119.81,369.754 119.273,368.343 119.118,366.416C119.111,366.331 119.104,366.246 119.104,366.162C118.914,363.056 119.704,358.808 121.257,357.382C121.356,357.29 121.454,357.213 121.56,357.142C121.687,357.057 121.821,356.994 121.963,356.951C124.052,356.316 128.032,361.511 130.509,358.758C130.785,358.462 130.7,357.89 130.573,357.213C130.517,356.909 130.453,356.577 130.404,356.246C130.359,355.922 130.442,355.586 130.582,355.272C130.944,354.461 132.015,354.27 132.675,354.864C133.2,355.336 133.946,355.981 134.963,356.81C135.146,356.958 135.323,357.135 135.506,357.311C135.633,357.424 135.76,357.544 135.894,357.664C136.36,358.109 136.833,358.504 137.299,358.857C137.497,359.012 137.694,359.153 137.885,359.295C138.393,359.64 138.887,359.951 139.388,360.226C139.6,360.346 139.811,360.459 140.03,360.565C144.357,362.696 148.154,362.181 149.502,363.423C150.356,364.2 150.652,365.336 150.737,366.31C150.744,366.324 150.744,366.345 150.744,366.359Z" fill="url(#pf_0_7_2617)"/>
<path d="M120.315,367.133C120.315,367.133 118.922,363.731 121.019,360.556C121.019,360.556 123.763,363.597 126.462,363.363C129.161,363.128 132.048,359.771 132.048,359.771C132.048,359.771 132.086,360.938 130.94,362.655C130.94,362.655 132.556,362.588 133.873,360.94C133.873,360.94 133.918,362.394 132.477,363.733C132.477,363.733 134.42,363.528 135.96,362.358C135.96,362.358 135.407,363.841 134.135,364.691C134.135,364.691 136.305,366.766 137.643,366.779L134.044,368.552L121.281,368.89L120.315,367.133Z" fill="#F9C55F"/>
<path d="M149.138,368.994C147.14,369.857 143.29,370.993 138.233,370.006C130.665,368.516 123.602,369.379 120.795,369.658C119.812,369.754 119.271,368.339 119.118,366.418C119.112,366.333 119.106,366.249 119.106,366.16C123.637,364.192 130.592,364.535 136.058,367.013C142.043,369.723 148.869,368.232 150.727,366.359C150.732,366.355 150.737,366.356 150.741,366.361C150.745,366.367 150.74,366.366 150.74,366.366C150.745,366.372 150.743,366.381 150.742,366.386C150.811,367.503 150.174,368.544 149.138,368.994Z" fill="#070159"/>
<path d="M135.509,357.309C135.085,357.961 134.296,358.857 132.982,359.419C132.878,359.466 132.757,359.453 132.664,359.401C132.596,359.363 132.541,359.303 132.505,359.228C132.426,359.044 132.512,358.831 132.696,358.751C133.914,358.23 134.611,357.371 134.96,356.811C135.139,356.967 135.322,357.137 135.509,357.309Z" fill="#FFFFFF"/>
<path d="M137.887,359.291C137.443,359.91 136.566,360.851 135.111,361.349C135.007,361.385 134.903,361.371 134.815,361.321C134.739,361.279 134.677,361.21 134.649,361.122C134.582,360.934 134.684,360.724 134.876,360.66C136.153,360.223 136.924,359.388 137.3,358.86C137.497,359.016 137.692,359.153 137.887,359.291Z" fill="#FFFFFF"/>
<path d="M140.031,360.562C139.671,361.2 138.859,362.323 137.328,362.985C137.221,363.036 137.1,363.023 137.007,362.971C136.94,362.932 136.884,362.873 136.851,362.794C136.771,362.609 136.858,362.397 137.042,362.317C138.371,361.747 139.078,360.771 139.386,360.226C139.603,360.343 139.817,360.458 140.031,360.562Z" fill="#FFFFFF"/>
<path d="M130.77,358.335C130.714,358.977 130.403,359.605 129.874,359.979C129.5,360.24 129.034,360.36 128.575,360.381C128.11,360.403 127.651,360.325 127.206,360.219C126.642,360.092 126.084,359.922 125.548,359.711C124.581,359.33 123.663,358.821 122.823,358.208C122.407,357.897 122.012,357.565 121.638,357.205C121.617,357.184 121.588,357.163 121.56,357.142C121.687,357.057 121.821,356.994 121.962,356.951C124.051,356.316 128.032,361.51 130.509,358.758C130.784,358.462 130.7,357.89 130.573,357.212C130.756,357.551 130.806,357.946 130.77,358.335Z" fill="#070159"/>
<path d="M141.71,274.549C138.905,268.585 126.374,263.499 113.731,259.757L110.545,282.791C113.924,282.791 119.178,288.457 119.178,288.457L118.212,353.727C118.212,355.279 132.207,355.279 132.207,353.727C132.207,353.727 147.766,287.425 141.71,274.549Z" fill="url(#pf_0_7_2629)"/>
<path d="M178.222,351.559C176.769,355.527 177.184,358.977 178.222,362.256L168.718,362.256L168.718,351.559L178.222,351.559Z" fill="#FDCCC5"/>
<path d="M131.092,255.407C131.092,255.407 182.065,261.6 188.12,274.475C194.176,287.351 179.769,353.876 179.769,353.876C179.769,355.871 166.962,355.722 166.962,353.727L167.949,287.088C167.949,287.088 117.805,291.32 106.18,285.638C92.974,279.183 101.798,252.019 101.798,252.019L131.092,255.407Z" fill="url(#pf_0_7_2631)"/>
<path d="M197.346,368.255C197.346,368.262 197.346,368.262 197.346,368.262L197.346,368.283C197.41,369.398 196.775,370.435 195.737,370.887C193.74,371.755 189.893,372.891 184.833,371.903C177.267,370.414 170.202,371.275 167.4,371.55C166.412,371.649 165.876,370.238 165.721,368.311C165.714,368.226 165.707,368.142 165.707,368.057C165.516,364.951 166.307,360.703 167.859,359.277C167.958,359.185 168.057,359.108 168.163,359.037C168.29,358.952 168.424,358.889 168.565,358.846C170.654,358.211 174.635,363.406 177.112,360.653C177.387,360.357 177.302,359.785 177.175,359.108C177.119,358.804 177.055,358.472 177.006,358.141C176.961,357.818 177.044,357.481 177.185,357.167C177.547,356.356 178.618,356.165 179.278,356.759C179.803,357.231 180.548,357.876 181.565,358.705C181.749,358.853 181.925,359.03 182.109,359.206C182.236,359.319 182.363,359.439 182.497,359.559C182.963,360.004 183.436,360.399 183.901,360.752C184.099,360.907 184.297,361.048 184.487,361.19C184.995,361.535 185.489,361.846 185.99,362.121C186.202,362.241 186.414,362.354 186.633,362.46C190.959,364.591 194.756,364.076 196.104,365.318C196.958,366.095 197.255,367.231 197.339,368.205C197.346,368.219 197.346,368.24 197.346,368.255Z" fill="url(#pf_0_7_2633)"/>
<path d="M166.918,369.028C166.918,369.028 165.524,365.626 167.621,362.451C167.621,362.451 170.365,365.493 173.065,365.258C175.764,365.023 178.65,361.666 178.65,361.666C178.65,361.666 178.688,362.833 177.543,364.55C177.543,364.55 179.159,364.483 180.475,362.835C180.475,362.835 180.521,364.289 179.079,365.628C179.079,365.628 181.023,365.423 182.562,364.253C182.562,364.253 182.009,365.736 180.738,366.586C180.738,366.586 182.908,368.661 184.246,368.674L180.647,370.448L167.883,370.785L166.918,369.028Z" fill="#F9C55F"/>
<path d="M195.74,370.889C193.743,371.752 189.892,372.888 184.836,371.901C177.267,370.412 170.205,371.274 167.398,371.554C166.415,371.649 165.874,370.234 165.721,368.313C165.715,368.228 165.709,368.144 165.708,368.055C170.24,366.087 177.194,366.43 182.661,368.908C188.645,371.618 195.472,370.128 197.329,368.254C197.335,368.25 197.34,368.251 197.344,368.257C197.348,368.262 197.343,368.261 197.343,368.261C197.347,368.267 197.346,368.277 197.345,368.281C197.413,369.398 196.777,370.439 195.74,370.889Z" fill="#070159"/>
<path d="M182.111,359.204C181.688,359.856 180.898,360.753 179.585,361.314C179.48,361.361 179.359,361.349 179.266,361.296C179.199,361.258 179.143,361.199 179.108,361.123C179.028,360.939 179.115,360.726 179.299,360.646C180.517,360.126 181.214,359.266 181.563,358.706C181.742,358.863 181.924,359.032 182.111,359.204Z" fill="#FFFFFF"/>
<path d="M184.489,361.186C184.046,361.805 183.169,362.747 181.713,363.245C181.61,363.281 181.506,363.267 181.417,363.217C181.341,363.174 181.28,363.106 181.251,363.017C181.185,362.829 181.287,362.62 181.479,362.555C182.756,362.118 183.527,361.284 183.903,360.755C184.099,360.911 184.294,361.049 184.489,361.186Z" fill="#FFFFFF"/>
<path d="M186.633,362.458C186.274,363.096 185.462,364.219 183.931,364.88C183.824,364.931 183.703,364.918 183.61,364.866C183.542,364.828 183.487,364.769 183.454,364.689C183.374,364.505 183.461,364.292 183.645,364.212C184.974,363.643 185.681,362.666 185.988,362.121C186.206,362.239 186.419,362.354 186.633,362.458Z" fill="#FFFFFF"/>
<path d="M177.373,360.23C177.317,360.872 177.006,361.5 176.477,361.874C176.103,362.135 175.637,362.255 175.178,362.276C174.712,362.298 174.254,362.22 173.809,362.114C173.244,361.987 172.687,361.818 172.15,361.606C171.183,361.225 170.266,360.717 169.426,360.103C169.01,359.792 168.614,359.461 168.24,359.1C168.219,359.079 168.191,359.058 168.163,359.037C168.29,358.952 168.424,358.889 168.565,358.846C170.654,358.211 174.634,363.406 177.112,360.653C177.387,360.357 177.302,359.785 177.175,359.108C177.359,359.447 177.408,359.842 177.373,360.23Z" fill="#070159"/>
<path d="M138.911,186.545C141.504,228.955 139.016,256.183 139.016,256.183C139.015,261.8 85.792,271.28 85.792,265.663C85.792,265.663 78.019,197.106 91.203,183.611C99.046,175.583 138.238,175.531 138.911,186.545Z" fill="url(#pf_0_7_2645)"/>
<path d="M123.418,178.286C123.307,182.066 119.444,180.209 114.535,180.065C109.625,179.921 105.531,181.545 105.641,177.766C105.752,173.998 109.608,173.019 114.518,173.163C119.428,173.307 123.528,174.519 123.418,178.286Z" fill="url(#pf_0_7_2646)"/>
<path d="M205.801,233.146C203.041,229.954 197.217,232.157 197.217,232.157C197.217,232.157 198.714,228.155 197.104,226.792C195.494,225.429 195.726,229.062 194.549,230.707C193.635,231.984 190.952,232.065 189.792,232.037L189.792,237.774C199.456,243.182 199.643,235.912 202.069,237.076C204.579,238.28 205.352,240.149 206.986,239.363C208.373,238.695 207.472,235.079 205.801,233.146Z" fill="#FDCCC5"/>
<path d="M126.498,187.46C121.172,201.211 138.253,231.784 151.544,238.172C160.556,242.503 191.51,239.753 191.51,239.753C192.981,239.753 192.981,231.266 191.51,231.266C191.51,231.266 165.219,229.808 161.147,224.752C152.752,214.329 147.646,186.774 136.172,182.315C133.167,181.147 128.124,183.261 126.498,187.46Z" fill="url(#pf_0_7_2648)"/>
<path d="M64.495,208.725C68.157,199.187 98.971,200.606 106.505,207.506C118.443,218.441 107.316,264.894 118.98,277.653C125.602,284.897 147.876,282.422 157.502,284.272C161.542,285.049 162.119,294.047 162.171,298.141C162.186,299.297 161.349,300.265 160.204,300.419C148.505,301.985 87.289,306.574 73.074,292.449C57.99,277.461 59.321,222.203 64.495,208.725Z" fill="url(#pf_0_7_2649)"/>
<path d="M83.847,201.96C90.658,202.71 96.835,204.538 99.695,207.128C111.612,218.052 100.501,264.509 112.146,277.275C116.188,281.685 126.034,282.503 135.262,282.881C128.376,282.261 121.999,280.995 118.978,277.654C107.332,264.889 118.444,218.432 106.493,207.506C102.704,204.021 92.995,201.962 83.847,201.96Z" fill="url(#pf_0_7_2650)"/>
<path d="M138.069,301.629L138.069,305.014C138.069,306.698 136.705,308.062 135.021,308.062L104.775,308.062C103.092,308.062 101.727,306.698 101.727,305.014L101.727,301.387L138.069,301.629Z" fill="#070159"/>
<rect  x="116.388" y="308.062" width="7.02" height="49.54" fill="url(#pf_0_7_2652)"/>
<path d="M108.65,360.319C108.65,358.817 109.867,357.599 111.37,357.599L128.427,357.599C129.929,357.599 131.146,358.817 131.146,360.319L131.146,362.454L108.65,362.454Z" fill="url(#pf_0_7_2653)"/>
<path d="M144.259,370.908L144.259,368.17C144.259,365.014 141.699,362.454 138.543,362.454L101.253,362.454C98.097,362.454 95.537,365.014 95.537,368.17L95.537,370.908L144.259,370.908Z" fill="url(#pf_0_7_2654)"/>
<path d="M128.881,156.424C128.881,156.805 128.573,157.109 128.195,157.109C127.817,157.109 127.51,156.805 127.51,156.424C127.51,156.046 127.817,155.742 128.195,155.742C128.573,155.742 128.881,156.046 128.881,156.424Z" fill="#070159"/>
<path d="M128.632,153.546C128.661,153.701 128.541,153.835 128.421,153.941C127.821,154.498 127.221,155.056 126.614,155.613C126.444,155.776 126.268,155.938 126.042,156.009C125.816,156.086 125.541,156.037 125.407,155.839C125.287,155.649 125.343,155.388 125.485,155.211C125.548,155.126 127.073,153.652 128.004,153.362C128.124,153.327 128.244,153.299 128.371,153.32C128.491,153.334 128.611,153.425 128.632,153.546Z" fill="url(#pf_0_7_2656)"/>
<path d="M130.516,165.613C130.003,165.824 129.447,165.874 128.909,165.765C128.446,165.663 127.992,165.445 127.621,165.1C127.47,164.973 127.461,164.755 127.596,164.612C127.722,164.46 127.949,164.452 128.092,164.578C128.757,165.192 129.708,165.276 130.457,164.873C130.482,165.108 130.499,165.361 130.516,165.613Z" fill="#EC8B73"/>
<path d="M254.763,242.859C254.763,244.558 256.14,245.935 257.839,245.935L272.079,245.935L272.079,239.783L257.839,239.783C256.14,239.783 254.763,241.16 254.763,242.859Z" fill="url(#pf_0_7_2658)"/>
<path d="M256.082,242.859C256.082,244.01 257.015,244.943 258.166,244.943L272.079,244.943L272.079,240.775L258.166,240.775C257.015,240.775 256.082,241.708 256.082,242.859Z" fill="url(#pf_0_7_2659)"/>
<path d="M240.849,242.859C240.849,244.556 242.229,245.935 243.926,245.935L257.839,245.935C256.142,245.935 254.763,244.556 254.763,242.859C254.763,241.162 256.142,239.783 257.839,239.783L243.926,239.783C242.228,239.783 240.849,241.162 240.849,242.859Z" fill="url(#pf_0_7_2660)"/>
<path d="M258.166,249.012C258.166,250.711 256.788,252.088 255.089,252.088L240.849,252.088L240.849,245.935L255.089,245.935C256.788,245.935 258.166,247.313 258.166,249.012Z" fill="url(#pf_0_7_2661)"/>
<path d="M256.847,249.012C256.847,250.163 255.914,251.096 254.763,251.096L240.849,251.096L240.849,246.928L254.763,246.928C255.914,246.928 256.847,247.861 256.847,249.012Z" fill="url(#pf_0_7_2662)"/>
<path d="M272.079,249.012C272.079,250.709 270.7,252.088 269.003,252.088L255.089,252.088C256.786,252.088 258.166,250.709 258.166,249.012C258.166,247.314 256.786,245.935 255.089,245.935L269.003,245.935C270.7,245.935 272.079,247.314 272.079,249.012Z" fill="url(#pf_0_7_2663)"/>
<path d="M277.476,323.202C277.322,320.52 278.512,316.095 279.654,313.664C280.796,311.232 282.439,309.056 284.321,307.139C285.609,305.827 287.034,304.615 288.692,303.822C290.351,303.028 292.271,302.678 294.054,303.127C295.837,303.575 297.441,304.901 297.963,306.664C298.288,307.763 298.187,308.955 297.854,310.052C297.066,312.649 295.04,314.728 292.72,316.137C290.4,317.545 287.779,318.366 285.187,319.171C282.596,319.977 279.798,321.798 277.476,323.202Z" fill="url(#pf_0_7_2665)"/>
<path d="M272.939,325.781C273.092,323.099 271.903,318.674 270.76,316.242C269.618,313.81 267.976,311.635 266.094,309.718C264.806,308.406 263.381,307.194 261.722,306.4C260.063,305.607 258.144,305.257 256.361,305.705C254.577,306.154 252.973,307.48 252.452,309.243C252.127,310.342 252.228,311.534 252.561,312.63C253.349,315.228 255.374,317.307 257.694,318.715C260.014,320.124 262.635,320.944 265.227,321.75C267.819,322.556 270.616,324.377 272.939,325.781Z" fill="url(#pf_0_7_2666)"/>
<path d="M273.79,319.054C273.79,319.054 250.542,284.418 272.799,280.144C294.445,275.986 273.79,319.054 273.79,319.054Z" fill="url(#pf_0_7_2667)"/>
<path d="M275.425,330.216C275.312,330.216 275.22,330.124 275.22,330.011C275.211,319.947 290.66,308.474 291.318,307.991C291.409,307.923 291.538,307.942 291.604,308.034C291.672,308.125 291.652,308.254 291.561,308.32C291.402,308.438 275.621,320.154 275.629,330.011C275.63,330.124 275.538,330.216 275.425,330.216Z" fill="#ADC8F7"/>
<path d="M274.051,329.962C273.942,329.962 273.851,329.877 273.846,329.767C273.443,321.165 256.995,310.27 256.829,310.161C256.734,310.099 256.708,309.972 256.77,309.877C256.832,309.782 256.959,309.756 257.054,309.819C257.739,310.268 273.843,320.939 274.256,329.748C274.261,329.861 274.173,329.957 274.06,329.962C274.057,329.962 274.054,329.962 274.051,329.962Z" fill="#ADC8F7"/>
<path d="M275.7,330.216C275.608,330.216 275.525,330.155 275.501,330.063C271.53,314.797 272.998,287.675 273.013,287.402C273.019,287.29 273.112,287.201 273.229,287.21C273.342,287.215 273.428,287.313 273.422,287.426C273.407,287.697 271.943,314.756 275.898,329.959C275.926,330.069 275.861,330.181 275.751,330.209C275.734,330.214 275.717,330.216 275.7,330.216Z" fill="#ADC8F7"/>
<path d="M285.707,328.351C286.381,328.351 286.928,328.898 286.928,329.572L286.928,338.581C286.928,343.646 283.816,347.956 279.42,349.768C279.258,349.835 279.081,349.867 278.906,349.867L270.624,349.867C270.449,349.867 270.272,349.835 270.11,349.768C265.714,347.956 262.603,343.646 262.603,338.581L262.603,329.572C262.603,328.898 263.15,328.351 263.824,328.351L285.707,328.351Z" fill="url(#pf_0_7_2671)"/>
<path d="M286.928,333.025L286.928,329.572C286.928,328.898 286.381,328.351 285.707,328.351L263.824,328.351C263.15,328.351 262.603,328.898 262.603,329.572L262.603,333.025L286.928,333.025Z" fill="#78A7FF"/>
<path d="M279.181,340.015C279.181,342.452 277.203,344.43 274.766,344.43C272.324,344.43 270.351,342.452 270.351,340.015C270.351,337.573 272.324,335.595 274.766,335.595C277.203,335.595 279.181,337.573 279.181,340.015Z" fill="#78A7FF"/>
<path d="M234.061,14.428L233.256,14.428L233.256,9.312C233.256,4.997 229.745,1.486 225.429,1.486L220.125,1.486L220.125,0.681L225.429,0.681C230.189,0.681 234.062,4.553 234.062,9.312L234.061,14.428Z" fill="#B7BCFF"/>
<path d="M225.336,84.657L220.22,84.657L220.22,83.851L225.336,83.851C229.651,83.851 233.161,80.34 233.161,76.025L233.161,70.722L233.967,70.722L233.967,76.025C233.967,80.785 230.095,84.657 225.336,84.657Z" fill="#B7BCFF"/>
<path d="M130.919,14.428L130.113,14.428L130.113,9.312C130.113,4.553 133.985,0.681 138.744,0.681L144.048,0.681L144.048,1.486L138.744,1.486C134.429,1.486 130.919,4.997 130.919,9.312L130.919,14.428Z" fill="#B7BCFF"/>
<path d="M143.955,84.657L138.839,84.657C134.079,84.657 130.207,80.785 130.207,76.025L130.207,70.721L131.012,70.721L131.012,76.025C131.012,80.34 134.524,83.851 138.839,83.851L143.955,83.851L143.955,84.657Z" fill="#B7BCFF"/>
<path d="M229.459,9.312L229.459,76.025C229.459,78.25 227.655,80.054 225.43,80.054L138.745,80.054C136.519,80.054 134.715,78.25 134.715,76.025L134.715,9.312C134.715,7.087 136.519,5.282 138.745,5.282L225.43,5.282C227.655,5.282 229.459,7.087 229.459,9.312Z" fill="url(#pf_0_7_2684)"/>
<path d="M175.326,25.145L175.326,42.054C175.326,42.888 174.65,43.563 173.816,43.563L143.846,43.563C143.012,43.563 142.336,42.888 142.336,42.054L142.336,25.145C142.336,24.311 143.012,23.635 143.846,23.635L173.816,23.635C174.65,23.635 175.326,24.311 175.326,25.145Z" fill="#ADC8F7"/>
<path d="M229.46,9.311L229.46,18.942L163.214,18.942C162.515,18.942 161.86,18.595 161.466,18.017L158.883,14.225C158.489,13.647 157.835,13.3 157.135,13.3L148.062,13.3C147.362,13.3 146.707,13.647 146.314,14.225L143.731,18.017C143.337,18.595 142.682,18.942 141.982,18.942L134.716,18.942L134.716,9.312C134.716,7.085 136.521,5.28 138.748,5.28L225.429,5.28C227.655,5.28 229.46,7.085 229.46,9.311Z" fill="url(#pf_0_7_2686)"/>
<path d="M225.07,12.223C225.07,13.866 223.738,15.197 222.095,15.197L174.776,15.197C173.133,15.197 171.802,13.866 171.802,12.223C171.802,10.58 173.133,9.248 174.776,9.248L222.095,9.248C223.738,9.248 225.07,10.58 225.07,12.223Z" fill="url(#pf_0_7_2687)"/>
<path d="M222.095,9.248L219.186,9.248L219.186,15.197L222.095,15.197C223.738,15.197 225.07,13.866 225.07,12.223C225.07,10.58 223.738,9.248 222.095,9.248Z" fill="#3D79F3"/>
<path d="M221.658,13.141C221.352,13.141 221.062,13.021 220.844,12.803C220.626,12.585 220.506,12.296 220.506,11.987C220.506,11.679 220.626,11.39 220.844,11.173C221.276,10.739 222.041,10.739 222.473,11.173C222.691,11.39 222.811,11.68 222.811,11.987C222.811,12.296 222.691,12.585 222.473,12.803C222.255,13.021 221.966,13.141 221.658,13.141ZM221.658,11.239C221.457,11.239 221.269,11.317 221.128,11.457C220.987,11.599 220.909,11.787 220.909,11.987C220.909,12.188 220.987,12.376 221.128,12.518C221.413,12.802 221.904,12.802 222.189,12.518C222.33,12.376 222.408,12.188 222.408,11.987C222.408,11.787 222.33,11.599 222.189,11.457C222.048,11.317 221.86,11.239 221.658,11.239Z" fill="#FFFFFF"/>
<path d="M223.079,13.609C223.027,13.609 222.976,13.59 222.937,13.55L222.189,12.803C222.11,12.724 222.11,12.597 222.189,12.518C222.267,12.439 222.395,12.439 222.473,12.518L223.221,13.266C223.3,13.344 223.3,13.472 223.221,13.55C223.182,13.59 223.131,13.609 223.079,13.609Z" fill="#FFFFFF"/>
<path d="M154.057,37.121L148.311,34.543C148.147,34.466 148.021,34.363 147.929,34.233C147.838,34.103 147.792,33.957 147.792,33.794L147.792,33.679C147.792,33.516 147.838,33.369 147.929,33.239C148.021,33.11 148.147,33.007 148.311,32.93L154.057,30.352C154.134,30.323 154.21,30.309 154.287,30.309C154.451,30.309 154.588,30.364 154.698,30.475C154.808,30.585 154.864,30.722 154.864,30.885C154.864,31 154.828,31.108 154.755,31.209C154.684,31.31 154.59,31.384 154.475,31.432L149.29,33.736L154.475,36.041C154.59,36.089 154.684,36.163 154.755,36.264C154.828,36.365 154.864,36.473 154.864,36.588C154.864,36.751 154.808,36.888 154.698,36.998C154.588,37.109 154.451,37.164 154.287,37.164C154.21,37.164 154.134,37.15 154.057,37.121Z" fill="#FFFFFF"/>
<path d="M156.497,39.194C156.387,39.079 156.332,38.94 156.332,38.777C156.332,38.719 156.346,38.647 156.375,38.561L160.191,27.4C160.23,27.285 160.297,27.189 160.393,27.112C160.488,27.035 160.609,26.997 160.753,26.997C160.926,26.997 161.067,27.054 161.178,27.169C161.289,27.285 161.344,27.424 161.344,27.587C161.344,27.645 161.33,27.717 161.3,27.803L157.484,38.964C157.445,39.079 157.378,39.175 157.282,39.252C157.186,39.329 157.066,39.367 156.922,39.367C156.75,39.367 156.608,39.31 156.497,39.194Z" fill="#FFFFFF"/>
<path d="M162.963,36.998C162.853,36.888 162.798,36.751 162.798,36.588C162.798,36.473 162.834,36.365 162.906,36.264C162.978,36.163 163.072,36.089 163.187,36.04L168.371,33.736L163.187,31.432C163.072,31.384 162.978,31.31 162.906,31.209C162.834,31.108 162.798,31 162.798,30.885C162.798,30.722 162.853,30.585 162.963,30.475C163.074,30.364 163.211,30.309 163.374,30.309C163.46,30.309 163.537,30.323 163.604,30.352L169.35,32.93C169.514,33.007 169.641,33.11 169.732,33.239C169.823,33.369 169.869,33.515 169.869,33.679L169.869,33.794C169.869,33.957 169.823,34.103 169.732,34.233C169.641,34.363 169.514,34.466 169.35,34.543L163.604,37.121C163.537,37.149 163.46,37.164 163.374,37.164C163.211,37.164 163.074,37.109 162.963,36.998Z" fill="#FFFFFF"/>
<path d="M152.223,48.234C152.223,48.836 151.735,49.325 151.132,49.325L143.427,49.325C142.825,49.325 142.336,48.837 142.336,48.234C142.336,47.631 142.825,47.143 143.427,47.143L151.132,47.143C151.735,47.143 152.223,47.631 152.223,48.234Z" fill="#FFFFFF"/>
<path d="M152.223,53.316C152.223,53.918 151.735,54.407 151.132,54.407L143.427,54.407C142.825,54.407 142.336,53.918 142.336,53.316C142.336,52.713 142.825,52.225 143.427,52.225L151.132,52.225C151.735,52.225 152.223,52.713 152.223,53.316Z" fill="#FFFFFF"/>
<path d="M196.799,47.143L158.863,47.143C158.261,47.143 157.772,47.632 157.772,48.234C157.772,48.837 158.261,49.325 158.863,49.325L196.799,49.325C197.402,49.325 197.89,48.837 197.89,48.234C197.89,47.632 197.402,47.143 196.799,47.143Z" fill="#FFFFFF"/>
<path d="M191.902,53.316C191.902,53.918 192.39,54.407 192.993,54.407L204.832,54.407C205.435,54.407 205.923,53.918 205.923,53.316C205.923,52.713 205.435,52.225 204.832,52.225L192.993,52.225C192.39,52.225 191.902,52.713 191.902,53.316Z" fill="#FFFFFF"/>
<path d="M184.609,52.225L158.863,52.225C158.261,52.225 157.772,52.713 157.772,53.316C157.772,53.918 158.261,54.407 158.863,54.407L184.609,54.407C185.211,54.407 185.7,53.918 185.7,53.316C185.7,52.713 185.211,52.225 184.609,52.225Z" fill="#FFFFFF"/>
<path d="M152.223,57.754C152.223,58.357 151.735,58.845 151.132,58.845L143.427,58.845C142.825,58.845 142.336,58.357 142.336,57.754C142.336,57.152 142.825,56.663 143.427,56.663L151.132,56.663C151.735,56.663 152.223,57.152 152.223,57.754Z" fill="#FFFFFF"/>
<path d="M152.223,62.836C152.223,63.439 151.735,63.927 151.132,63.927L143.427,63.927C142.825,63.927 142.336,63.439 142.336,62.836C142.336,62.234 142.825,61.745 143.427,61.745L151.132,61.745C151.735,61.745 152.223,62.234 152.223,62.836Z" fill="#FFFFFF"/>
<path d="M172.444,56.663L158.863,56.663C158.261,56.663 157.772,57.152 157.772,57.754C157.772,58.357 158.261,58.846 158.863,58.846L172.444,58.846C173.046,58.846 173.535,58.357 173.535,57.755C173.535,57.152 173.046,56.663 172.444,56.663Z" fill="#FFFFFF"/>
<path d="M216.622,56.663L179.158,56.663C178.555,56.663 178.067,57.152 178.067,57.754C178.067,58.357 178.555,58.846 179.158,58.846L216.622,58.846C217.225,58.846 217.713,58.357 217.713,57.755C217.713,57.152 217.225,56.663 216.622,56.663Z" fill="#FFFFFF"/>
<path d="M184.609,61.745L158.863,61.745C158.261,61.745 157.772,62.233 157.772,62.836C157.772,63.439 158.261,63.927 158.863,63.927L184.609,63.927C185.211,63.927 185.7,63.439 185.7,62.836C185.7,62.234 185.211,61.745 184.609,61.745Z" fill="#FFFFFF"/>
<path d="M156.16,68.041C156.16,68.643 155.672,69.132 155.069,69.132L147.365,69.132C146.762,69.132 146.274,68.643 146.274,68.041C146.274,67.438 146.762,66.95 147.365,66.95L155.069,66.95C155.672,66.95 156.16,67.438 156.16,68.041Z" fill="#FFFFFF"/>
<path d="M156.16,73.122C156.16,73.725 155.672,74.213 155.069,74.213L147.365,74.213C146.762,74.213 146.274,73.725 146.274,73.122C146.274,72.52 146.762,72.031 147.365,72.031L155.069,72.031C155.672,72.031 156.16,72.52 156.16,73.122Z" fill="#FFFFFF"/>
<path d="M176.381,66.95L162.801,66.95C162.198,66.95 161.709,67.438 161.709,68.041C161.709,68.643 162.198,69.132 162.801,69.132L176.381,69.132C176.984,69.132 177.472,68.643 177.472,68.041C177.472,67.438 176.984,66.95 176.381,66.95Z" fill="#FFFFFF"/>
<path d="M203.335,66.95L183.095,66.95C182.493,66.95 182.004,67.438 182.004,68.041C182.004,68.643 182.493,69.132 183.095,69.132L203.335,69.132C203.938,69.132 204.426,68.643 204.426,68.041C204.426,67.438 203.938,66.95 203.335,66.95Z" fill="#FFFFFF"/>
<path d="M195.839,73.122C195.839,73.725 196.327,74.213 196.93,74.213L217.52,74.213C218.123,74.213 218.611,73.725 218.611,73.122C218.611,72.52 218.123,72.031 217.52,72.031L196.93,72.031C196.327,72.031 195.839,72.52 195.839,73.122Z" fill="#FFFFFF"/>
<path d="M188.546,72.031L162.801,72.031C162.198,72.031 161.709,72.52 161.709,73.122C161.709,73.725 162.198,74.213 162.801,74.213L188.546,74.213C189.149,74.213 189.637,73.725 189.637,73.122C189.637,72.52 189.149,72.031 188.546,72.031Z" fill="#FFFFFF"/>
<path d="M213.361,27.111C213.361,27.688 212.893,28.155 212.316,28.155L191.341,28.155C190.764,28.155 190.297,27.688 190.297,27.111C190.297,26.534 190.764,26.067 191.341,26.067L212.316,26.067C212.893,26.067 213.361,26.534 213.361,27.111Z" fill="#FFFFFF"/>
<path d="M189.584,31.51L183.046,31.51C182.469,31.51 182.002,31.978 182.002,32.555L182.002,32.555C182.002,33.132 182.469,33.599 183.046,33.599L189.584,33.599C190.161,33.599 190.629,33.132 190.629,32.555L190.629,32.555C190.629,31.978 190.161,31.51 189.584,31.51Z" fill="#FFFFFF"/>
<path d="M195.013,32.555L195.013,32.555C195.013,33.132 195.48,33.599 196.057,33.599L220.611,33.599C221.188,33.599 221.655,33.132 221.655,32.555L221.655,32.555C221.655,31.978 221.188,31.51 220.611,31.51L196.057,31.51C195.48,31.51 195.013,31.978 195.013,32.555Z" fill="#FFFFFF"/>
<path d="M206.471,36.954L183.046,36.954C182.469,36.954 182.002,37.422 182.002,37.999L182.002,37.999C182.002,38.576 182.469,39.043 183.046,39.043L206.471,39.043C207.048,39.043 207.515,38.576 207.515,37.999L207.515,37.999C207.515,37.422 207.048,36.954 206.471,36.954Z" fill="#FFFFFF"/>
<path d="M214.172,37.999L214.172,37.999C214.172,38.576 214.64,39.043 215.217,39.043L220.611,39.043C221.188,39.043 221.655,38.576 221.655,37.999L221.655,37.999C221.655,37.422 221.188,36.955 220.611,36.955L215.217,36.955C214.64,36.954 214.172,37.422 214.172,37.999Z" fill="#FFFFFF"/>
<path d="M63.217,97.366C62.995,97.366 62.814,97.186 62.814,96.964L62.814,93.604C62.814,89.493 66.159,86.148 70.27,86.148L74.795,86.148C75.018,86.148 75.198,86.328 75.198,86.55C75.198,86.773 75.018,86.953 74.795,86.953L70.27,86.953C66.603,86.953 63.62,89.937 63.62,93.604L63.62,96.964C63.62,97.186 63.44,97.366 63.217,97.366Z" fill="url(#pf_0_7_2727)"/>
<path d="M117.521,98.531C117.298,98.531 117.118,98.351 117.118,98.128L117.118,93.604C117.118,89.937 114.134,86.953 110.467,86.953L107.107,86.953C106.884,86.953 106.704,86.773 106.704,86.55C106.704,86.328 106.884,86.148 107.107,86.148L110.467,86.148C114.578,86.148 117.923,89.493 117.923,93.604L117.923,98.128C117.923,98.351 117.743,98.531 117.521,98.531Z" fill="url(#pf_0_7_2729)"/>
<path d="M110.467,127.132L105.942,127.132C105.72,127.132 105.54,126.952 105.54,126.729C105.54,126.506 105.72,126.326 105.942,126.326L110.467,126.326C114.135,126.326 117.118,123.342 117.118,119.675L117.118,116.316C117.118,116.093 117.298,115.913 117.521,115.913C117.743,115.913 117.924,116.093 117.924,116.316L117.924,119.675C117.924,123.787 114.578,127.132 110.467,127.132Z" fill="url(#pf_0_7_2732)"/>
<path d="M73.63,127.132L70.271,127.132C66.16,127.132 62.814,123.787 62.814,119.675L62.814,115.151C62.814,114.928 62.995,114.748 63.217,114.748C63.44,114.748 63.62,114.928 63.62,115.151L63.62,119.675C63.62,123.343 66.603,126.326 70.271,126.326L73.63,126.326C73.853,126.326 74.033,126.506 74.033,126.729C74.033,126.952 73.853,127.132 73.63,127.132Z" fill="url(#pf_0_7_2734)"/>
<path d="M113.695,93.604L113.695,119.675C113.695,121.458 112.249,122.903 110.467,122.903L70.271,122.903C68.489,122.903 67.043,121.458 67.043,119.675L67.043,93.604C67.043,91.822 68.489,90.377 70.271,90.377L110.467,90.377C112.249,90.377 113.695,91.822 113.695,93.604Z" fill="url(#pf_0_7_2735)"/>
<path d="M76.159,112.644C75.135,112.107 74.317,111.335 73.705,110.328C73.091,109.321 72.785,108.138 72.785,106.778C72.785,105.419 73.091,104.236 73.705,103.229C74.317,102.222 75.135,101.45 76.159,100.913C77.182,100.376 78.298,100.107 79.507,100.107C80.396,100.107 81.164,100.221 81.811,100.447C82.456,100.674 83.057,100.963 83.61,101.316C83.945,101.534 84.114,101.828 84.114,102.197C84.114,102.449 84.017,102.68 83.824,102.889C83.631,103.1 83.409,103.204 83.157,103.204C82.972,103.204 82.788,103.154 82.604,103.053C82.05,102.768 81.576,102.562 81.181,102.436C80.787,102.31 80.296,102.247 79.708,102.247C78.265,102.247 77.132,102.663 76.31,103.494C75.487,104.324 75.077,105.419 75.077,106.779C75.077,108.138 75.487,109.233 76.31,110.064C77.132,110.895 78.265,111.31 79.708,111.31C80.296,111.31 80.787,111.247 81.181,111.121C81.576,110.996 82.05,110.79 82.604,110.505C82.788,110.404 82.973,110.353 83.157,110.353C83.409,110.353 83.631,110.458 83.824,110.668C84.017,110.878 84.114,111.109 84.114,111.361C84.114,111.729 83.946,112.024 83.61,112.242C83.057,112.594 82.456,112.883 81.811,113.11C81.164,113.337 80.396,113.45 79.507,113.45C78.298,113.45 77.182,113.181 76.159,112.644Z" fill="#FFFFFF"/>
<path d="M86.555,112.317C86.27,112.116 86.127,111.839 86.127,111.486C86.127,111.218 86.219,110.983 86.404,110.782C86.588,110.58 86.824,110.479 87.109,110.479C87.26,110.479 87.411,110.513 87.562,110.58C88.099,110.815 88.636,110.999 89.173,111.134C89.71,111.268 90.314,111.335 90.986,111.335C92.849,111.335 93.78,110.74 93.78,109.548C93.78,109.162 93.566,108.868 93.138,108.667C92.71,108.465 92.009,108.239 91.037,107.987C90.045,107.752 89.227,107.509 88.582,107.257C87.936,107.005 87.382,106.624 86.92,106.112C86.459,105.6 86.228,104.925 86.228,104.085C86.228,102.911 86.651,101.954 87.499,101.215C88.346,100.477 89.559,100.108 91.137,100.108C92.429,100.108 93.646,100.318 94.787,100.737C95.022,100.805 95.202,100.93 95.328,101.114C95.454,101.3 95.517,101.492 95.517,101.694C95.517,101.962 95.42,102.197 95.227,102.399C95.035,102.6 94.796,102.701 94.51,102.701C94.426,102.701 94.317,102.684 94.183,102.65C93.209,102.348 92.253,102.197 91.313,102.197C90.407,102.197 89.698,102.361 89.186,102.688C88.674,103.015 88.418,103.44 88.418,103.96C88.418,104.463 88.653,104.832 89.123,105.067C89.592,105.302 90.322,105.529 91.313,105.747C92.303,105.998 93.108,106.246 93.73,106.489C94.35,106.733 94.884,107.115 95.328,107.635C95.772,108.155 95.995,108.852 95.995,109.724C95.995,110.798 95.571,111.688 94.724,112.393C93.876,113.097 92.68,113.45 91.137,113.45C89.459,113.45 87.931,113.072 86.555,112.317Z" fill="#FFFFFF"/>
<path d="M98.638,112.317C98.353,112.116 98.21,111.839 98.21,111.486C98.21,111.218 98.302,110.983 98.487,110.782C98.672,110.58 98.906,110.479 99.193,110.479C99.344,110.479 99.495,110.513 99.646,110.58C100.182,110.815 100.719,110.999 101.257,111.134C101.793,111.268 102.397,111.335 103.069,111.335C104.932,111.335 105.863,110.74 105.863,109.548C105.863,109.162 105.649,108.868 105.221,108.667C104.793,108.465 104.092,108.239 103.119,107.987C102.129,107.752 101.311,107.509 100.665,107.257C100.019,107.005 99.465,106.624 99.004,106.112C98.541,105.6 98.311,104.925 98.311,104.085C98.311,102.911 98.735,101.954 99.583,101.215C100.43,100.477 101.642,100.108 103.22,100.108C104.512,100.108 105.728,100.318 106.871,100.737C107.105,100.805 107.286,100.93 107.412,101.114C107.538,101.3 107.601,101.492 107.601,101.694C107.601,101.962 107.504,102.197 107.311,102.399C107.118,102.6 106.879,102.701 106.594,102.701C106.51,102.701 106.4,102.684 106.266,102.65C105.293,102.348 104.336,102.197 103.396,102.197C102.49,102.197 101.781,102.361 101.269,102.688C100.757,103.015 100.502,103.44 100.502,103.96C100.502,104.463 100.736,104.832 101.206,105.067C101.676,105.302 102.406,105.529 103.396,105.747C104.386,105.998 105.192,106.246 105.813,106.489C106.434,106.733 106.966,107.115 107.412,107.635C107.856,108.155 108.079,108.852 108.079,109.724C108.079,110.798 107.655,111.688 106.808,112.393C105.96,113.097 104.764,113.45 103.22,113.45C101.541,113.45 100.015,113.072 98.638,112.317Z" fill="#FFFFFF"/>
<path d="M8.914,146.469C8.691,146.469 8.511,146.289 8.511,146.067L8.511,142.708C8.511,138.596 11.856,135.251 15.968,135.251L20.492,135.251C20.715,135.251 20.895,135.431 20.895,135.654C20.895,135.876 20.715,136.057 20.492,136.057L15.968,136.057C12.3,136.057 9.316,139.04 9.316,142.708L9.316,146.067C9.316,146.289 9.136,146.469 8.914,146.469Z" fill="url(#pf_0_7_2746)"/>
<path d="M63.217,147.633C62.995,147.633 62.814,147.453 62.814,147.231L62.814,142.706C62.814,139.039 59.831,136.056 56.163,136.056L52.804,136.056C52.582,136.056 52.402,135.875 52.402,135.653C52.402,135.43 52.582,135.25 52.804,135.25L56.163,135.25C60.275,135.25 63.62,138.595 63.62,142.706L63.62,147.231C63.62,147.453 63.44,147.633 63.217,147.633Z" fill="url(#pf_0_7_2748)"/>
<path d="M56.164,176.234L51.64,176.234C51.417,176.234 51.237,176.054 51.237,175.831C51.237,175.609 51.417,175.429 51.64,175.429L56.164,175.429C59.831,175.429 62.815,172.445 62.815,168.777L62.815,165.418C62.815,165.195 62.995,165.015 63.217,165.015C63.44,165.015 63.62,165.195 63.62,165.418L63.62,168.777C63.62,172.889 60.275,176.234 56.164,176.234Z" fill="url(#pf_0_7_2751)"/>
<path d="M19.327,176.234L15.968,176.234C11.856,176.234 8.511,172.889 8.511,168.778L8.511,164.253C8.511,164.031 8.691,163.85 8.914,163.85C9.136,163.85 9.316,164.031 9.316,164.253L9.316,168.778C9.316,172.445 12.3,175.429 15.968,175.429L19.327,175.429C19.55,175.429 19.73,175.609 19.73,175.831C19.73,176.054 19.55,176.234 19.327,176.234Z" fill="url(#pf_0_7_2753)"/>
<path d="M59.391,142.707L59.391,168.777C59.391,170.56 57.946,172.005 56.164,172.005L15.968,172.005C14.185,172.005 12.74,170.56 12.74,168.777L12.74,142.707C12.74,140.924 14.185,139.479 15.968,139.479L56.164,139.479C57.946,139.479 59.391,140.924 59.391,142.707Z" fill="url(#pf_0_7_2754)"/>
<path d="M21.66,161.142C20.775,160.679 20.07,160.012 19.541,159.143C19.012,158.274 18.749,157.253 18.749,156.08C18.749,154.907 19.012,153.886 19.541,153.016C20.07,152.147 20.776,151.481 21.66,151.018C22.543,150.554 23.506,150.322 24.549,150.322C25.316,150.322 25.98,150.42 26.537,150.616C27.094,150.811 27.612,151.061 28.091,151.365C28.38,151.553 28.525,151.808 28.525,152.126C28.525,152.343 28.442,152.542 28.275,152.723C28.109,152.904 27.917,152.995 27.699,152.995C27.54,152.995 27.38,152.951 27.221,152.865C26.743,152.619 26.334,152.441 25.994,152.332C25.653,152.224 25.23,152.169 24.723,152.169C23.477,152.169 22.5,152.528 21.79,153.245C21.08,153.962 20.725,154.907 20.725,156.08C20.725,157.253 21.08,158.199 21.79,158.915C22.5,159.633 23.477,159.991 24.723,159.991C25.23,159.991 25.653,159.936 25.994,159.828C26.334,159.719 26.743,159.542 27.221,159.296C27.38,159.209 27.54,159.165 27.699,159.165C27.917,159.165 28.109,159.256 28.275,159.437C28.442,159.618 28.525,159.817 28.525,160.035C28.525,160.353 28.38,160.606 28.091,160.795C27.612,161.099 27.094,161.349 26.537,161.544C25.98,161.74 25.316,161.837 24.549,161.837C23.506,161.837 22.543,161.606 21.66,161.142Z" fill="#FFFFFF"/>
<path d="M34.793,159.111C34.626,158.944 34.543,158.745 34.543,158.513L34.543,154.95L30.98,154.95C30.748,154.95 30.553,154.87 30.393,154.711C30.234,154.552 30.155,154.356 30.155,154.125C30.155,153.878 30.234,153.676 30.393,153.516C30.553,153.357 30.748,153.277 30.98,153.277L34.543,153.277L34.543,149.714C34.543,149.468 34.626,149.265 34.793,149.105C34.959,148.947 35.159,148.867 35.39,148.867C35.636,148.867 35.839,148.947 35.999,149.105C36.158,149.265 36.238,149.468 36.238,149.714L36.238,153.277L39.779,153.277C40.026,153.277 40.228,153.357 40.387,153.516C40.547,153.676 40.627,153.878 40.627,154.125C40.627,154.356 40.547,154.552 40.387,154.711C40.228,154.87 40.026,154.95 39.779,154.95L36.238,154.95L36.238,158.513C36.238,158.745 36.158,158.944 35.999,159.111C35.839,159.278 35.636,159.361 35.39,159.361C35.159,159.361 34.959,159.278 34.793,159.111Z" fill="#FFFFFF"/>
<path d="M47.003,159.111C46.837,158.944 46.753,158.745 46.753,158.513L46.753,154.95L43.19,154.95C42.958,154.95 42.763,154.87 42.603,154.711C42.444,154.552 42.365,154.356 42.365,154.125C42.365,153.878 42.444,153.676 42.603,153.516C42.763,153.357 42.958,153.277 43.19,153.277L46.753,153.277L46.753,149.714C46.753,149.468 46.837,149.265 47.003,149.105C47.169,148.947 47.369,148.867 47.6,148.867C47.847,148.867 48.049,148.947 48.209,149.105C48.368,149.265 48.448,149.468 48.448,149.714L48.448,153.277L51.99,153.277C52.236,153.277 52.438,153.357 52.598,153.516C52.757,153.676 52.837,153.878 52.837,154.125C52.837,154.356 52.757,154.552 52.598,154.711C52.438,154.87 52.236,154.95 51.99,154.95L48.448,154.95L48.448,158.513C48.448,158.745 48.368,158.944 48.209,159.111C48.049,159.278 47.847,159.361 47.6,159.361C47.369,159.361 47.169,159.278 47.003,159.111Z" fill="#FFFFFF"/>
<path d="M168.449,117.738C168.226,117.738 168.046,117.558 168.046,117.336L168.046,113.976C168.046,109.865 171.391,106.52 175.502,106.52L180.027,106.52C180.25,106.52 180.43,106.7 180.43,106.923C180.43,107.145 180.25,107.325 180.027,107.325L175.502,107.325C171.835,107.325 168.852,110.309 168.852,113.976L168.852,117.336C168.852,117.558 168.672,117.738 168.449,117.738Z" fill="url(#pf_0_7_2765)"/>
<path d="M222.753,118.903C222.53,118.903 222.35,118.723 222.35,118.501L222.35,113.976C222.35,110.309 219.366,107.325 215.699,107.325L212.339,107.325C212.116,107.325 211.936,107.145 211.936,106.923C211.936,106.7 212.116,106.52 212.339,106.52L215.699,106.52C219.81,106.52 223.155,109.865 223.155,113.976L223.155,118.501C223.155,118.723 222.975,118.903 222.753,118.903Z" fill="url(#pf_0_7_2767)"/>
<path d="M215.699,147.504L211.174,147.504C210.952,147.504 210.771,147.324 210.771,147.101C210.771,146.879 210.952,146.699 211.174,146.699L215.699,146.699C219.367,146.699 222.35,143.715 222.35,140.047L222.35,136.688C222.35,136.465 222.53,136.285 222.753,136.285C222.975,136.285 223.155,136.465 223.155,136.688L223.155,140.047C223.155,144.159 219.81,147.504 215.699,147.504Z" fill="url(#pf_0_7_2770)"/>
<path d="M178.862,147.504L175.503,147.504C171.392,147.504 168.046,144.159 168.046,140.048L168.046,135.523C168.046,135.3 168.226,135.12 168.449,135.12C168.672,135.12 168.852,135.3 168.852,135.523L168.852,140.048C168.852,143.715 171.835,146.699 175.503,146.699L178.862,146.699C179.085,146.699 179.265,146.879 179.265,147.101C179.265,147.324 179.085,147.504 178.862,147.504Z" fill="url(#pf_0_7_2772)"/>
<path d="M218.927,113.976L218.927,140.047C218.927,141.83 217.481,143.275 215.699,143.275L175.503,143.275C173.72,143.275 172.275,141.83 172.275,140.047L172.275,113.976C172.275,112.194 173.72,110.749 175.503,110.749L215.699,110.749C217.481,110.749 218.927,112.194 218.927,113.976Z" fill="url(#pf_0_7_2773)"/>
<path d="M177.809,131.155C177.695,131.04 177.637,130.899 177.637,130.731L177.637,122.557C177.637,122.39 177.695,122.246 177.809,122.127C177.924,122.008 178.065,121.948 178.233,121.948C178.401,121.948 178.545,122.008 178.664,122.127C178.783,122.246 178.843,122.39 178.843,122.557L178.843,126.081L183.864,126.081L183.864,122.557C183.864,122.39 183.921,122.246 184.036,122.127C184.15,122.008 184.292,121.948 184.46,121.948C184.628,121.948 184.771,122.008 184.89,122.127C185.01,122.246 185.069,122.39 185.069,122.557L185.069,130.731C185.069,130.899 185.01,131.04 184.89,131.155C184.771,131.27 184.628,131.327 184.46,131.327C184.292,131.327 184.15,131.27 184.036,131.155C183.921,131.04 183.864,130.899 183.864,130.731L183.864,127.207L178.843,127.207L178.843,130.731C178.843,130.899 178.783,131.04 178.664,131.155C178.545,131.27 178.401,131.327 178.233,131.327C178.065,131.327 177.924,131.27 177.809,131.155Z" fill="#FFFFFF"/>
<path d="M189.957,131.154C189.843,131.04 189.785,130.898 189.785,130.73L189.785,123.14L187.083,123.14C186.924,123.14 186.791,123.086 186.685,122.981C186.579,122.874 186.526,122.742 186.526,122.583C186.526,122.424 186.579,122.289 186.685,122.179C186.791,122.069 186.924,122.013 187.083,122.013L193.68,122.013C193.839,122.013 193.974,122.069 194.084,122.179C194.194,122.289 194.25,122.424 194.25,122.583C194.25,122.742 194.194,122.874 194.084,122.981C193.974,123.086 193.839,123.14 193.68,123.14L190.99,123.14L190.99,130.73C190.99,130.898 190.931,131.04 190.812,131.154C190.693,131.269 190.549,131.326 190.381,131.326C190.213,131.326 190.072,131.269 189.957,131.154Z" fill="#FFFFFF"/>
<path d="M195.879,131.154C195.764,131.04 195.707,130.898 195.707,130.73L195.707,122.821C195.707,122.583 195.791,122.378 195.958,122.205C196.126,122.033 196.329,121.947 196.568,121.947L197.004,121.947C197.181,121.947 197.343,122 197.488,122.106C197.634,122.212 197.742,122.344 197.813,122.503L200.82,130.001L203.827,122.503C203.898,122.344 204.006,122.212 204.152,122.106C204.298,122 204.459,121.947 204.635,121.947L205.072,121.947C205.311,121.947 205.514,122.033 205.682,122.205C205.849,122.378 205.934,122.583 205.934,122.821L205.934,130.73C205.934,130.898 205.876,131.04 205.761,131.154C205.647,131.269 205.505,131.326 205.337,131.326C205.17,131.326 205.026,131.269 204.907,131.154C204.788,131.04 204.728,130.898 204.728,130.73L204.728,123.206L201.668,130.77C201.597,130.938 201.485,131.073 201.33,131.174C201.176,131.275 201.006,131.326 200.82,131.326C200.635,131.326 200.465,131.275 200.31,131.174C200.155,131.073 200.043,130.938 199.972,130.77L196.912,123.206L196.912,130.73C196.912,130.898 196.853,131.04 196.733,131.154C196.614,131.269 196.47,131.326 196.303,131.326C196.134,131.326 195.994,131.269 195.879,131.154Z" fill="#FFFFFF"/>
<path d="M208.749,131.015C208.585,130.852 208.504,130.655 208.504,130.426L208.504,122.557C208.504,122.389 208.561,122.245 208.676,122.126C208.791,122.007 208.932,121.947 209.1,121.947C209.267,121.947 209.411,122.007 209.53,122.126C209.65,122.245 209.709,122.389 209.709,122.557L209.709,130.054L214.041,130.054C214.209,130.054 214.353,130.114 214.471,130.234C214.591,130.352 214.651,130.496 214.651,130.664C214.651,130.832 214.591,130.973 214.471,131.088C214.353,131.203 214.209,131.26 214.041,131.26L209.338,131.26C209.109,131.26 208.912,131.178 208.749,131.015Z" fill="#FFFFFF"/>
<path d="M360.129,236.616C360.129,249.25 349.888,259.482 337.263,259.482C324.638,259.482 314.397,249.25 314.397,236.616C314.397,223.991 324.638,213.759 337.263,213.759C349.888,213.759 360.129,223.991 360.129,236.616Z" fill="#ADC8F7"/>
<path d="M354.335,236.618C354.335,246.05 346.689,253.69 337.263,253.69C327.837,253.69 320.191,246.05 320.191,236.618C320.191,227.191 327.837,219.551 337.263,219.551C346.689,219.551 354.335,227.191 354.335,236.618Z" fill="url(#pf_0_7_2782)"/>
<path d="M331.948,239.821L325.551,236.951C325.368,236.866 325.227,236.751 325.125,236.606C325.024,236.462 324.973,236.299 324.973,236.117L324.973,235.989C324.973,235.807 325.024,235.644 325.125,235.5C325.227,235.356 325.368,235.241 325.551,235.155L331.948,232.285C332.034,232.253 332.119,232.237 332.204,232.237C332.386,232.237 332.539,232.299 332.661,232.422C332.784,232.544 332.846,232.697 332.846,232.879C332.846,233.007 332.806,233.127 332.726,233.239C332.646,233.351 332.541,233.434 332.413,233.488L326.641,236.053L332.413,238.619C332.541,238.673 332.646,238.755 332.726,238.867C332.806,238.979 332.846,239.1 332.846,239.228C332.846,239.41 332.784,239.562 332.661,239.685C332.539,239.808 332.386,239.87 332.204,239.87C332.119,239.87 332.034,239.853 331.948,239.821Z" fill="#FFFFFF"/>
<path d="M334.666,242.13C334.543,242.002 334.482,241.847 334.482,241.665C334.482,241.601 334.497,241.521 334.53,241.425L338.779,228.998C338.821,228.87 338.896,228.763 339.003,228.677C339.11,228.592 339.244,228.549 339.404,228.549C339.597,228.549 339.754,228.613 339.877,228.741C340,228.87 340.062,229.025 340.062,229.207C340.062,229.27 340.045,229.351 340.014,229.447L335.765,241.874C335.721,242.002 335.647,242.109 335.54,242.194C335.433,242.28 335.299,242.323 335.139,242.323C334.947,242.323 334.788,242.258 334.666,242.13Z" fill="#FFFFFF"/>
<path d="M341.865,239.685C341.743,239.562 341.681,239.41 341.681,239.228C341.681,239.1 341.722,238.979 341.801,238.867C341.881,238.755 341.986,238.673 342.114,238.619L347.887,236.053L342.114,233.488C341.986,233.434 341.881,233.351 341.801,233.239C341.722,233.127 341.681,233.007 341.681,232.879C341.681,232.697 341.743,232.544 341.865,232.422C341.988,232.299 342.141,232.237 342.322,232.237C342.418,232.237 342.504,232.253 342.579,232.285L348.977,235.155C349.159,235.241 349.3,235.356 349.402,235.5C349.503,235.644 349.554,235.807 349.554,235.989L349.554,236.117C349.554,236.299 349.503,236.462 349.402,236.606C349.3,236.751 349.159,236.866 348.977,236.951L342.579,239.821C342.504,239.853 342.418,239.87 342.322,239.87C342.141,239.87 341.988,239.808 341.865,239.685Z" fill="#FFFFFF"/>
<defs>
<linearGradient id="pf_0_7_2500" x1="304.947" y1="170.176" x2="307.919" y2="16.673" gradientUnits="userSpaceOnUse">
<stop stop-color="#E7ECFF"/>
<stop offset="1" stop-color="#C2D5FF"/>
</linearGradient>
<linearGradient id="pf_0_7_2501" x1="305.92" y1="65.724" x2="306.294" y2="28.906" gradientUnits="userSpaceOnUse">
<stop offset="0" stop-color="#B3B3FF"/>
<stop offset="1" stop-color="#8F8FEA"/>
</linearGradient>
<linearGradient id="pf_0_7_2502" x1="284.985" y1="53.247" x2="393.851" y2="53.247" gradientUnits="userSpaceOnUse">
<stop stop-color="#E7ECFF"/>
<stop offset="1" stop-color="#C2D5FF"/>
</linearGradient>
<linearGradient id="pf_0_7_2553" x1="134.898" y1="149.073" x2="99.888" y2="156.395" gradientUnits="userSpaceOnUse">
<stop stop-color="#771E24"/>
<stop offset="1" stop-color="#47090E"/>
</linearGradient>
<linearGradient id="pf_0_7_2557" x1="24.608" y1="251.174" x2="290.146" y2="251.174" gradientUnits="userSpaceOnUse">
<stop stop-color="#E7ECFF"/>
<stop offset="1" stop-color="#C2D5FF"/>
</linearGradient>
<linearGradient id="pf_0_7_2561" x1="286.027" y1="351.944" x2="257.58" y2="281.132" gradientUnits="userSpaceOnUse">
<stop stop-color="#E7ECFF"/>
<stop offset="1" stop-color="#C2D5FF"/>
</linearGradient>
<linearGradient id="pf_0_7_2562" x1="243.834" y1="354.293" x2="220.74" y2="276.752" gradientUnits="userSpaceOnUse">
<stop stop-color="#E7ECFF"/>
<stop offset="1" stop-color="#C2D5FF"/>
</linearGradient>
<linearGradient id="pf_0_7_2564" x1="19.166" y1="373.237" x2="59.828" y2="246.492" gradientUnits="userSpaceOnUse">
<stop stop-color="#E7ECFF"/>
<stop offset="1" stop-color="#C2D5FF"/>
</linearGradient>
<linearGradient id="pf_0_7_2565" x1="91.863" y1="257.802" x2="65.813" y2="349.544" gradientUnits="userSpaceOnUse">
<stop stop-color="#E7ECFF"/>
<stop offset="1" stop-color="#C2D5FF"/>
</linearGradient>
<linearGradient id="pf_0_7_2567" x1="157.315" y1="213.432" x2="239.656" y2="213.432" gradientUnits="userSpaceOnUse">
<stop offset="0" stop-color="#78A7FF"/>
<stop offset="1" stop-color="#3D79F3"/>
</linearGradient>
<linearGradient id="pf_0_7_2568" x1="205.027" y1="187.378" x2="189.58" y2="248.904" gradientUnits="userSpaceOnUse">
<stop stop-color="#E7ECFF"/>
<stop offset="1" stop-color="#C2D5FF"/>
</linearGradient>
<linearGradient id="pf_0_7_2613" x1="175.578" y1="244.09" x2="175.356" y2="250.095" gradientUnits="userSpaceOnUse">
<stop offset="0" stop-color="#78A7FF"/>
<stop offset="1" stop-color="#3D79F3"/>
</linearGradient>
<linearGradient id="pf_0_7_2614" x1="221.299" y1="246.798" x2="193.338" y2="244.994" gradientUnits="userSpaceOnUse">
<stop offset="0" stop-color="#78A7FF"/>
<stop offset="1" stop-color="#3D79F3"/>
</linearGradient>
<linearGradient id="pf_0_7_2617" x1="119.076" y1="362.454" x2="150.748" y2="362.454" gradientUnits="userSpaceOnUse">
<stop offset="0" stop-color="#FF8888"/>
<stop offset="1" stop-color="#F24E4E"/>
</linearGradient>
<linearGradient id="pf_0_7_2629" x1="110.545" y1="307.324" x2="143.11" y2="307.324" gradientUnits="userSpaceOnUse">
<stop offset="0" stop-color="#5C5CA0"/>
<stop offset="1" stop-color="#434389"/>
</linearGradient>
<linearGradient id="pf_0_7_2631" x1="98.911" y1="303.659" x2="189.606" y2="303.659" gradientUnits="userSpaceOnUse">
<stop offset="0" stop-color="#5C5CA0"/>
<stop offset="1" stop-color="#434389"/>
</linearGradient>
<linearGradient id="pf_0_7_2633" x1="165.679" y1="364.35" x2="197.351" y2="364.35" gradientUnits="userSpaceOnUse">
<stop offset="0" stop-color="#FF8888"/>
<stop offset="1" stop-color="#F24E4E"/>
</linearGradient>
<linearGradient id="pf_0_7_2645" x1="83.516" y1="222.639" x2="140.091" y2="222.639" gradientUnits="userSpaceOnUse">
<stop offset="0" stop-color="#FFBB83"/>
<stop offset="1" stop-color="#FF9D45"/>
</linearGradient>
<linearGradient id="pf_0_7_2646" x1="105.677" y1="176.555" x2="123.453" y2="177.076" gradientUnits="userSpaceOnUse">
<stop offset="0" stop-color="#FFBB83"/>
<stop offset="1" stop-color="#FF9D45"/>
</linearGradient>
<linearGradient id="pf_0_7_2648" x1="125.499" y1="211.305" x2="192.613" y2="211.305" gradientUnits="userSpaceOnUse">
<stop offset="0" stop-color="#FFBB83"/>
<stop offset="1" stop-color="#FF9D45"/>
</linearGradient>
<linearGradient id="pf_0_7_2649" x1="128.877" y1="251.405" x2="63.384" y2="253.619" gradientUnits="userSpaceOnUse">
<stop stop-color="#E7ECFF"/>
<stop offset="1" stop-color="#C2D5FF"/>
</linearGradient>
<linearGradient id="pf_0_7_2650" x1="129.284" y1="239.69" x2="89.825" y2="245.151" gradientUnits="userSpaceOnUse">
<stop stop-color="#E7ECFF"/>
<stop offset="1" stop-color="#C2D5FF"/>
</linearGradient>
<linearGradient id="pf_0_7_2652" x1="116.388" y1="332.832" x2="123.408" y2="332.832" gradientUnits="userSpaceOnUse">
<stop stop-color="#E7ECFF"/>
<stop offset="1" stop-color="#C2D5FF"/>
</linearGradient>
<linearGradient id="pf_0_7_2653" x1="119.965" y1="357.197" x2="119.888" y2="361.981" gradientUnits="userSpaceOnUse">
<stop stop-color="#E7ECFF"/>
<stop offset="1" stop-color="#C2D5FF"/>
</linearGradient>
<linearGradient id="pf_0_7_2654" x1="119.661" y1="362.709" x2="119.893" y2="369.344" gradientUnits="userSpaceOnUse">
<stop stop-color="#E7ECFF"/>
<stop offset="1" stop-color="#C2D5FF"/>
</linearGradient>
<linearGradient id="pf_0_7_2656" x1="125.342" y1="154.678" x2="128.637" y2="154.678" gradientUnits="userSpaceOnUse">
<stop stop-color="#771E24"/>
<stop offset="1" stop-color="#47090E"/>
</linearGradient>
<linearGradient id="pf_0_7_2658" x1="254.763" y1="242.859" x2="272.079" y2="242.859" gradientUnits="userSpaceOnUse">
<stop offset="0" stop-color="#A7C161"/>
<stop offset="1" stop-color="#8BA53A"/>
</linearGradient>
<linearGradient id="pf_0_7_2659" x1="256.082" y1="242.859" x2="272.079" y2="242.859" gradientUnits="userSpaceOnUse">
<stop stop-color="#E7ECFF"/>
<stop offset="1" stop-color="#C2D5FF"/>
</linearGradient>
<linearGradient id="pf_0_7_2660" x1="240.849" y1="242.859" x2="257.839" y2="242.859" gradientUnits="userSpaceOnUse">
<stop offset="0" stop-color="#A7C161"/>
<stop offset="1" stop-color="#8BA53A"/>
</linearGradient>
<linearGradient id="pf_0_7_2661" x1="240.849" y1="249.012" x2="258.166" y2="249.012" gradientUnits="userSpaceOnUse">
<stop offset="0" stop-color="#FF8888"/>
<stop offset="1" stop-color="#F24E4E"/>
</linearGradient>
<linearGradient id="pf_0_7_2662" x1="240.849" y1="249.012" x2="256.847" y2="249.012" gradientUnits="userSpaceOnUse">
<stop stop-color="#E7ECFF"/>
<stop offset="1" stop-color="#C2D5FF"/>
</linearGradient>
<linearGradient id="pf_0_7_2663" x1="255.089" y1="249.012" x2="272.079" y2="249.012" gradientUnits="userSpaceOnUse">
<stop offset="0" stop-color="#FF8888"/>
<stop offset="1" stop-color="#F24E4E"/>
</linearGradient>
<linearGradient id="pf_0_7_2665" x1="277.462" y1="313.066" x2="298.161" y2="313.066" gradientUnits="userSpaceOnUse">
<stop stop-color="#E7ECFF"/>
<stop offset="1" stop-color="#C2D5FF"/>
</linearGradient>
<linearGradient id="pf_0_7_2666" x1="252.253" y1="315.644" x2="272.952" y2="315.644" gradientUnits="userSpaceOnUse">
<stop stop-color="#E7ECFF"/>
<stop offset="1" stop-color="#C2D5FF"/>
</linearGradient>
<linearGradient id="pf_0_7_2667" x1="263.158" y1="299.458" x2="282.683" y2="299.458" gradientUnits="userSpaceOnUse">
<stop stop-color="#E7ECFF"/>
<stop offset="1" stop-color="#C2D5FF"/>
</linearGradient>
<linearGradient id="pf_0_7_2671" x1="262.603" y1="339.109" x2="286.928" y2="339.109" gradientUnits="userSpaceOnUse">
<stop stop-color="#E7ECFF"/>
<stop offset="1" stop-color="#C2D5FF"/>
</linearGradient>
<linearGradient id="pf_0_7_2684" x1="181.576" y1="28.493" x2="183.401" y2="79.098" gradientUnits="userSpaceOnUse">
<stop stop-color="#E7ECFF"/>
<stop offset="1" stop-color="#C2D5FF"/>
</linearGradient>
<linearGradient id="pf_0_7_2686" x1="181.877" y1="21.96" x2="182.463" y2="0.093" gradientUnits="userSpaceOnUse">
<stop offset="0" stop-color="#B3B3FF"/>
<stop offset="1" stop-color="#8F8FEA"/>
</linearGradient>
<linearGradient id="pf_0_7_2687" x1="171.802" y1="12.223" x2="225.07" y2="12.223" gradientUnits="userSpaceOnUse">
<stop stop-color="#E7ECFF"/>
<stop offset="1" stop-color="#C2D5FF"/>
</linearGradient>
<linearGradient id="pf_0_7_2727" x1="62.814" y1="91.757" x2="75.198" y2="91.757" gradientUnits="userSpaceOnUse">
<stop stop-color="#E7ECFF"/>
<stop offset="1" stop-color="#C2D5FF"/>
</linearGradient>
<linearGradient id="pf_0_7_2729" x1="112.314" y1="86.148" x2="112.314" y2="98.531" gradientUnits="userSpaceOnUse">
<stop stop-color="#E7ECFF"/>
<stop offset="1" stop-color="#C2D5FF"/>
</linearGradient>
<linearGradient id="pf_0_7_2732" x1="117.924" y1="121.522" x2="105.54" y2="121.522" gradientUnits="userSpaceOnUse">
<stop stop-color="#E7ECFF"/>
<stop offset="1" stop-color="#C2D5FF"/>
</linearGradient>
<linearGradient id="pf_0_7_2734" x1="68.424" y1="127.132" x2="68.424" y2="114.748" gradientUnits="userSpaceOnUse">
<stop stop-color="#E7ECFF"/>
<stop offset="1" stop-color="#C2D5FF"/>
</linearGradient>
<linearGradient id="pf_0_7_2735" x1="67.043" y1="106.64" x2="113.695" y2="106.64" gradientUnits="userSpaceOnUse">
<stop stop-color="#E7ECFF"/>
<stop offset="1" stop-color="#C2D5FF"/>
</linearGradient>
<linearGradient id="pf_0_7_2746" x1="8.511" y1="140.86" x2="20.895" y2="140.86" gradientUnits="userSpaceOnUse">
<stop stop-color="#E7ECFF"/>
<stop offset="1" stop-color="#C2D5FF"/>
</linearGradient>
<linearGradient id="pf_0_7_2748" x1="58.011" y1="135.25" x2="58.011" y2="147.633" gradientUnits="userSpaceOnUse">
<stop stop-color="#E7ECFF"/>
<stop offset="1" stop-color="#C2D5FF"/>
</linearGradient>
<linearGradient id="pf_0_7_2751" x1="63.62" y1="170.625" x2="51.237" y2="170.625" gradientUnits="userSpaceOnUse">
<stop stop-color="#E7ECFF"/>
<stop offset="1" stop-color="#C2D5FF"/>
</linearGradient>
<linearGradient id="pf_0_7_2753" x1="14.121" y1="176.234" x2="14.121" y2="163.85" gradientUnits="userSpaceOnUse">
<stop stop-color="#E7ECFF"/>
<stop offset="1" stop-color="#C2D5FF"/>
</linearGradient>
<linearGradient id="pf_0_7_2754" x1="12.74" y1="155.742" x2="59.391" y2="155.742" gradientUnits="userSpaceOnUse">
<stop stop-color="#E7ECFF"/>
<stop offset="1" stop-color="#C2D5FF"/>
</linearGradient>
<linearGradient id="pf_0_7_2765" x1="168.046" y1="112.129" x2="180.43" y2="112.129" gradientUnits="userSpaceOnUse">
<stop stop-color="#E7ECFF"/>
<stop offset="1" stop-color="#C2D5FF"/>
</linearGradient>
<linearGradient id="pf_0_7_2767" x1="217.546" y1="106.52" x2="217.546" y2="118.903" gradientUnits="userSpaceOnUse">
<stop stop-color="#E7ECFF"/>
<stop offset="1" stop-color="#C2D5FF"/>
</linearGradient>
<linearGradient id="pf_0_7_2770" x1="223.156" y1="141.895" x2="210.772" y2="141.895" gradientUnits="userSpaceOnUse">
<stop stop-color="#E7ECFF"/>
<stop offset="1" stop-color="#C2D5FF"/>
</linearGradient>
<linearGradient id="pf_0_7_2772" x1="173.656" y1="147.504" x2="173.656" y2="135.12" gradientUnits="userSpaceOnUse">
<stop stop-color="#E7ECFF"/>
<stop offset="1" stop-color="#C2D5FF"/>
</linearGradient>
<linearGradient id="pf_0_7_2773" x1="172.275" y1="127.012" x2="218.926" y2="127.012" gradientUnits="userSpaceOnUse">
<stop stop-color="#E7ECFF"/>
<stop offset="1" stop-color="#C2D5FF"/>
</linearGradient>
<linearGradient id="pf_0_7_2782" x1="320.191" y1="236.621" x2="354.335" y2="236.621" gradientUnits="userSpaceOnUse">
<stop stop-color="#E7ECFF"/>
<stop offset="1" stop-color="#C2D5FF"/>
</linearGradient>
</defs>
</svg>
