<svg width="216" height="216" viewBox="0 0 216 216" fill="none" xmlns="http://www.w3.org/2000/svg" xmlns:xlink="http://www.w3.org/1999/xlink">
<path d="M108.825,15.454L112.938,23.178C113.862,24.604 114.864,25.865 116.039,27.04C119.495,30.453 122.718,34.098 125.681,37.952C132.645,47.093 137.345,57.253 140.697,68.242C142.71,74.947 143.798,81.841 143.885,88.796C144.222,109.609 137.085,127.476 122.709,142.328C120.376,144.677 117.845,146.846 115.149,148.781C113.724,148.781 113.05,147.693 112.462,146.682C111.391,144.816 110.683,142.768 110.363,140.643C109.853,138.12 109.525,135.606 109.689,133.014L109.689,131.839C109.577,131.571 108.324,16.05 108.825,15.454Z" fill="#599636"/>
<path d="M108.825,15.204C108.661,14.867 108.488,15.117 108.315,15.29C108.402,16.975 107.806,18.478 106.89,19.912C105.879,21.338 104.54,22.435 103.192,23.61C95.736,30.064 89.861,37.874 85.161,46.6C78.897,58.342 75.675,70.929 74.768,84.191C74.353,88.969 76.28,105.834 77.792,110.698C81.904,123.623 89.282,134.448 98.855,143.84C101.205,146.103 103.719,148.203 106.311,150.224C107.071,150.224 107.149,149.55 107.322,149.049C107.659,147.978 107.909,146.889 108.082,145.783L109.767,133.204L108.825,15.204Z" fill="#6CAC48"/>
<path d="M112.937,153.879C113.102,151.952 114.026,150.362 115.037,148.764C114.026,148.349 113.274,147.511 112.687,146.587C112.177,145.706 111.763,144.781 111.434,143.814C110.259,140.297 110.009,136.591 109.672,132.997L109.672,130.82C109.257,131.157 109.162,134.008 109.162,134.431C108.92,138.241 108.41,142.017 107.65,145.758C107.399,147.269 107.235,148.781 106.302,150.121C106.302,150.285 106.302,150.458 106.389,150.708C107.901,155.158 108.315,159.685 108.566,164.307L108.566,165.992C108.566,168.005 108.479,167.581 110.156,168.255C110.829,168.506 111.581,168.592 112.255,169.093C112.765,169.093 112.842,168.679 112.842,168.333L112.592,165.56L112.592,157.836C112.514,156.488 112.765,155.149 112.937,153.879Z" fill="#C2BFBF"/>
<path d="M41.412,191.362L41.412,195.094C41.412,195.244 41.412,195.394 41.439,195.535C41.483,195.976 41.757,196.249 42.153,196.373C42.524,196.47 42.903,196.541 43.283,196.593C43.503,196.62 43.574,196.717 43.6,196.955C43.627,197.793 43.556,197.89 42.745,197.837C40.857,197.74 38.96,197.714 37.072,197.837L36.896,197.837C36.304,197.864 36.26,197.811 36.26,197.22C36.26,197.123 36.287,196.999 36.287,196.902C36.287,196.726 36.41,196.629 36.578,196.629C36.975,196.585 37.337,196.479 37.707,196.408C38.219,196.285 38.519,195.967 38.563,195.447C38.634,194.882 38.634,194.291 38.634,193.726L38.66,187.145C38.678,186.757 38.466,186.395 38.122,186.21C37.681,185.963 37.204,185.769 36.719,185.619C36.569,185.575 36.428,185.548 36.304,185.469C35.943,185.292 35.934,184.975 36.278,184.781C36.402,184.71 36.551,184.657 36.693,184.631C38.182,184.41 39.645,184.041 41.06,183.528C41.351,183.431 41.43,183.457 41.457,183.748C41.483,183.925 41.457,184.145 41.43,184.313C41.386,184.631 41.386,184.948 41.386,185.248C41.386,185.372 41.412,185.495 41.536,185.566C41.66,185.636 41.783,185.566 41.898,185.495C42.409,185.098 42.93,184.736 43.495,184.419C44.306,183.978 45.162,183.581 46.097,183.457C47.226,183.307 48.206,183.607 49.07,184.34C49.423,184.657 49.741,185.019 50.005,185.416C50.252,185.778 50.279,185.786 50.596,185.539C51.531,184.851 52.511,184.243 53.569,183.793C54.672,183.325 55.801,183.254 56.931,183.643C58.086,184.057 58.872,184.869 59.339,185.972C59.736,186.854 59.904,187.771 59.904,188.724L59.904,195.305C59.904,195.747 60.08,196.02 60.521,196.241C60.989,196.417 61.501,196.514 61.995,196.611C62.312,196.682 62.312,196.682 62.312,197.008C62.268,197.82 62.189,197.864 61.404,197.82C59.435,197.705 57.461,197.705 55.493,197.82C55.096,197.846 55.096,197.846 55.078,197.449L55.078,197.326C55.052,196.664 55.052,196.664 55.696,196.514L56.331,196.338C56.772,196.232 57.09,195.835 57.09,195.376L57.16,193.532L57.116,188.724C57.098,188.292 57.01,187.868 56.842,187.471C56.225,185.972 54.875,185.433 53.578,185.583C52.599,185.68 51.734,186.078 50.923,186.642C50.746,186.766 50.632,186.916 50.649,187.154C50.87,188.724 50.72,190.294 50.746,191.865L50.746,195.279C50.746,195.897 50.993,196.188 51.584,196.338L52.714,196.585C52.89,196.611 52.987,196.682 52.987,196.876L52.987,197.052C52.961,197.74 52.917,197.767 52.228,197.767C50.261,197.67 48.303,197.696 46.362,197.767C45.7,197.793 45.647,197.723 45.674,197.052C45.7,196.655 45.744,196.638 46.115,196.558L46.926,196.408C47.641,196.258 47.906,195.994 47.959,195.226L48.029,193.576L47.985,188.645C47.941,188.027 47.809,187.445 47.473,186.88C46.979,185.972 46.212,185.504 45.162,185.46C44.103,185.389 43.177,185.778 42.286,186.272C41.668,186.633 41.404,187.057 41.448,187.771L41.448,191.353L41.412,191.362ZM87.667,191.512L87.667,194.97C87.667,195.217 87.685,195.464 87.711,195.702C87.729,196.038 87.976,196.32 88.302,196.391C88.726,196.514 89.158,196.585 89.599,196.611C89.846,196.638 89.89,196.735 89.917,196.929L89.917,197.105C89.89,197.961 89.793,198.067 88.955,198.014C87.085,197.89 85.223,197.917 83.362,198.014L82.647,198.04C82.497,198.04 82.471,197.97 82.427,197.864C82.356,197.523 82.356,197.172 82.427,196.832C82.453,196.682 82.55,196.655 82.7,196.611C83.062,196.567 83.362,196.488 83.706,196.435C84.324,196.285 84.544,196.038 84.562,195.403L84.632,193.338L84.632,187.295C84.632,186.854 84.456,186.58 84.068,186.386C83.627,186.139 83.159,185.972 82.665,185.795C82.515,185.751 82.374,185.698 82.25,185.619C81.933,185.398 81.889,185.081 82.206,184.834C82.347,184.719 82.515,184.648 82.7,184.639C84.271,184.392 85.797,184.048 87.27,183.457C87.447,183.387 87.517,183.431 87.588,183.581C87.658,183.731 87.685,183.898 87.658,184.075L87.588,185.231C87.588,185.381 87.517,185.592 87.632,185.645C87.782,185.742 87.879,185.522 88.002,185.469C88.726,184.86 89.527,184.35 90.384,183.951C91.143,183.59 91.928,183.36 92.81,183.413C94.46,183.51 95.634,184.348 96.392,185.795C96.789,186.554 96.957,187.392 97.027,188.248L97.098,190.047L97.124,195.473C97.151,195.888 97.301,196.161 97.716,196.311C98.147,196.452 98.59,196.558 99.039,196.629C99.436,196.673 99.454,196.752 99.48,197.123L99.48,197.246C99.436,198.084 99.383,198.102 98.545,198.058C96.714,197.961 94.879,197.961 93.049,198.058C92.802,198.084 92.555,198.058 92.334,198.084C92.184,198.084 92.087,198.058 92.06,197.908C92.016,197.59 91.963,197.273 92.034,196.929C92.06,196.779 92.131,196.708 92.308,196.682L93.437,196.505C93.834,196.408 94.054,196.144 94.098,195.791L94.143,195.103L94.116,189.968C94.116,189.377 94.09,188.786 93.966,188.204C93.675,186.942 92.713,186.051 91.417,185.919C90.287,185.795 89.264,186.095 88.32,186.704C87.852,186.995 87.658,187.419 87.658,187.93L87.658,191.635C87.658,191.565 87.658,191.565 87.685,191.565L87.667,191.512Z" fill="#47474A"/>
<path d="M159.559,184.569C159.285,182.778 158.624,181.181 157.468,179.779C156.462,178.544 155.165,177.582 153.683,176.982C152.14,176.347 150.49,176.144 148.822,176.1C148.134,176.073 138.756,176.223 138.068,176.1C137.892,176.073 137.777,176.126 137.671,176.276C137.548,176.453 137.424,176.647 137.354,176.841C137.062,177.502 137.062,177.458 137.768,177.555C138.359,177.652 138.924,177.705 139.489,177.873C140,178.049 140.371,178.341 140.494,178.905C140.538,179.179 140.591,187.816 140.591,191.839L140.494,194.715C140.468,194.935 140.45,195.156 140.371,195.35C140.274,195.641 140.097,195.888 139.806,196.011C139.48,196.161 139.136,196.258 138.774,196.285C138.112,196.355 138.015,196.382 137.795,197.123L137.724,197.396C137.68,197.714 137.698,197.767 138.015,197.767L145.355,197.837L148.231,197.793L150.216,197.546C152.475,197.132 154.486,196.197 156.207,194.697C157.186,193.832 157.989,192.782 158.562,191.6C159.25,190.224 159.541,188.724 159.621,187.207C159.753,186.333 159.709,185.451 159.559,184.569ZM156.004,188.054C155.907,189.624 155.589,191.15 154.777,192.518C153.745,194.309 152.272,195.561 150.234,196.003C149.352,196.179 148.469,196.276 147.543,196.152C146.882,196.082 146.246,196.003 145.629,195.782C144.526,195.385 144.129,194.706 144.111,193.629L144.085,178.826C144.085,177.944 144.482,177.749 145.117,177.723C146.079,177.652 147.058,177.679 148.011,177.767C149.034,177.864 150.031,178.111 150.984,178.482C151.69,178.773 152.342,179.179 152.925,179.682C154.248,180.811 155.13,182.231 155.615,183.899C156.012,185.248 156.083,186.625 156.012,188.001L156.004,188.054ZM179.965,190.462C179.965,190.312 179.965,190.189 179.938,190.048C179.718,188.698 179.003,187.666 177.9,186.88C177.186,186.369 176.383,186.025 175.545,185.778C175.395,185.734 175.271,185.681 175.13,185.654C175.156,185.531 175.227,185.504 175.306,185.478C175.8,185.231 176.268,184.966 176.683,184.596C177.441,183.96 177.944,183.175 178.2,182.214C178.35,181.702 178.35,181.181 178.297,180.643C178.218,179.364 177.556,178.191 176.506,177.45C175.377,176.611 174.054,176.267 172.678,176.25C170.022,176.206 167.349,176.25 164.702,176.25C163.944,176.25 163.185,176.294 162.391,176.179C162.241,176.153 162.029,176.109 161.923,176.276C161.747,176.594 161.526,176.911 161.456,177.282C161.429,177.458 161.482,177.555 161.676,177.573L163.37,177.82C164.032,177.917 164.499,178.288 164.552,178.879C164.596,179.285 164.623,179.699 164.623,180.105L164.579,184.693L164.552,193.771C164.552,194.309 164.482,194.829 164.376,195.367C164.323,195.72 164.076,196.003 163.741,196.1C163.247,196.249 162.779,196.391 162.267,196.391C161.985,196.364 161.72,196.541 161.632,196.805C161.535,197.026 161.456,197.273 161.412,197.493C161.368,197.785 161.438,197.89 161.729,197.855C161.95,197.829 170.048,198.032 171.575,197.882C172.483,197.785 173.374,197.661 174.274,197.388C175.818,196.894 177.247,196.188 178.377,194.979C179.312,194 179.85,192.818 179.894,191.442C179.965,191.124 179.965,190.806 179.965,190.462ZM168.055,180.396L168.125,178.429C168.125,178.058 168.275,177.891 168.637,177.811C169.228,177.688 169.819,177.741 170.401,177.767C170.992,177.811 171.557,177.891 172.148,178.058C173.225,178.376 174.063,178.993 174.557,180.026C174.777,180.493 174.901,181.005 174.901,181.525C174.927,182.213 174.874,182.875 174.61,183.537C174.195,184.446 173.533,185.037 172.572,185.204C171.61,185.381 168.893,185.301 168.469,185.301C168.099,185.301 168.072,185.257 168.072,184.887L168.072,182.575C168.011,181.861 168.011,181.137 168.046,180.414L168.055,180.396ZM176.03,193.603C175.615,194.706 174.848,195.473 173.771,195.888C173.18,196.108 172.589,196.249 171.972,196.205C171.213,196.179 170.454,196.205 169.687,196.056C168.655,195.835 168.187,194.856 168.116,194.141C167.993,192.888 168.072,191.609 168.046,190.683L168.046,187.445C168.046,187.048 168.09,186.933 168.513,186.933L170.825,186.96L172.395,187.136C173.498,187.383 174.504,187.798 175.289,188.654C175.924,189.342 176.268,190.171 176.347,191.08C176.418,191.936 176.374,192.774 176.056,193.585L176.03,193.603Z" fill="#C2BFBF"/>
<path d="M113.657,186.21L114.292,186.307C114.98,186.333 115.792,186.086 116.039,185.125C116.171,184.666 116.171,184.18 116.039,183.722C115.889,183.722 115.818,183.845 115.748,183.898C115.377,184.19 114.963,184.366 114.522,184.41C113.639,184.507 112.757,184.454 111.893,184.137L110.693,183.722C109.855,183.448 108.972,183.334 108.09,183.378C106.838,183.475 105.664,183.89 104.553,184.481C103.37,185.116 102.541,186.077 102.144,187.374C101.924,188.133 101.897,188.918 101.994,189.703C102.241,191.494 103.176,192.747 104.844,193.409C104.941,193.435 105.02,193.479 105.117,193.506C105.338,193.629 105.364,193.753 105.161,193.92L104.544,194.335L103.07,195.244C102.7,195.464 102.656,195.641 102.779,196.029C102.929,196.488 103.194,196.893 103.564,197.211C103.9,197.502 104.279,197.731 104.694,197.899C104.967,198.023 104.967,198.076 104.72,198.296L103.317,199.302C102.85,199.664 102.382,200.016 101.994,200.484C101.721,200.774 101.524,201.128 101.421,201.512C101.318,201.897 101.312,202.302 101.403,202.69C101.588,203.545 102.029,204.313 102.682,204.895C103.319,205.488 104.096,205.91 104.941,206.121C106.317,206.518 107.737,206.536 109.14,206.271C111.152,205.901 112.916,205.01 114.292,203.501C115.254,202.495 115.81,201.313 115.863,199.911C115.977,198.225 114.848,196.717 113.207,196.329L111.884,196.082L107.834,195.72C107.393,195.694 106.952,195.623 106.582,195.402C106.114,195.111 105.991,194.547 106.29,194.176C106.511,193.903 106.785,193.735 107.129,193.709L107.914,193.638C109.465,193.48 110.922,192.817 112.06,191.75C112.668,191.186 113.102,190.461 113.313,189.659C113.604,188.601 113.604,187.507 113.357,186.43C113.287,186.157 113.313,186.139 113.648,186.183L113.657,186.21ZM107.64,198.437C107.79,198.464 107.931,198.437 108.081,198.437C109.114,198.481 110.172,198.561 111.178,198.834C111.504,198.931 111.831,199.055 112.14,199.205C113.119,199.743 113.489,200.678 113.366,201.684C113.216,202.787 112.607,203.572 111.646,204.092C111.01,204.454 110.296,204.604 109.555,204.683C109.281,204.71 109.043,204.683 108.77,204.683C107.914,204.71 107.076,204.613 106.264,204.269C105.699,204.048 105.232,203.73 104.817,203.289C103.961,202.434 103.556,200.863 104.844,199.584C105.629,198.852 106.511,198.34 107.64,198.437ZM110.446,190.78C109.934,192.076 108.796,192.473 107.676,192.297C106.643,192.147 105.885,191.582 105.391,190.647C104.755,189.395 104.579,188.098 104.95,186.748C105.223,185.742 105.832,184.984 106.917,184.807C108.293,184.56 109.608,185.054 110.305,186.43C110.666,187.092 110.816,187.904 110.816,189.059C110.79,189.527 110.693,190.162 110.446,190.78ZM79.515,189.103C79.295,187.78 78.801,186.571 77.892,185.566C76.542,184.066 74.822,183.413 72.881,183.404C71.187,183.378 69.59,183.872 68.17,184.754C66.767,185.592 65.744,186.933 65.294,188.512C64.879,189.933 64.897,191.388 65.223,192.835C66.079,196.717 69.079,198.384 72.661,198.137C73.719,198.067 74.725,197.723 75.678,197.255C77.098,196.593 78.13,195.535 78.845,194.141C79.409,192.985 79.656,191.759 79.63,190.356L79.515,189.103ZM76.031,194.556C75.669,195.685 74.681,196.496 73.499,196.62C72.422,196.77 71.408,196.496 70.508,195.861C69.855,195.376 69.326,194.75 68.964,194.017C67.958,191.953 67.782,189.8 68.302,187.586C68.47,186.898 68.823,186.28 69.335,185.795C70.243,184.957 71.302,184.763 72.475,185.01C73.604,185.257 74.46,185.866 75.166,186.801C75.872,187.736 76.198,188.812 76.392,189.942C76.489,190.506 76.489,191.097 76.516,191.459C76.516,192.641 76.419,193.612 76.048,194.556L76.031,194.556ZM133.154,189.306C132.978,187.886 132.439,186.58 131.434,185.504C130.11,184.057 128.39,183.44 126.476,183.413C124.826,183.387 123.309,183.854 121.906,184.666C120.335,185.601 119.25,186.924 118.836,188.715C118.342,190.674 118.545,192.738 119.427,194.556C120.238,196.276 121.615,197.379 123.432,197.873C125.443,198.411 127.358,198.164 129.228,197.255C130.851,196.47 131.998,195.244 132.669,193.576C133.066,192.597 133.207,191.538 133.233,190.312C133.251,190.092 133.198,189.695 133.154,189.306ZM129.766,194.238C129.369,195.561 128.54,196.426 127.137,196.62C126.105,196.77 125.126,196.523 124.244,195.932C123.485,195.42 122.947,194.732 122.55,193.92C122.109,193.065 121.862,192.156 121.765,191.221C121.615,190.065 121.615,188.936 121.888,187.78C121.941,187.551 122.012,187.33 122.109,187.118C122.797,185.398 124.314,184.613 126.114,185.01C127.314,185.283 128.222,185.945 128.911,186.951C129.572,187.93 129.89,189.015 130.04,190.18C130.11,190.647 130.137,191.141 130.11,191.556C130.11,192.518 130.04,193.4 129.749,194.256L129.766,194.238Z" fill="#47474A"/>
</svg>
