<svg width="74" height="54" viewBox="0 0 74 54" fill="none" xmlns="http://www.w3.org/2000/svg" xmlns:xlink="http://www.w3.org/1999/xlink">
<path d="M45.236,37.5C47.492,41.184 50.427,43.891 55.618,43.891C59.979,43.891 62.765,41.712 62.765,38.7C62.765,35.091 59.902,33.813 55.102,31.714L52.471,30.585C44.876,27.349 39.831,23.296 39.831,14.727C39.831,6.833 45.846,0.825 55.245,0.825C61.936,0.825 66.747,3.153 70.213,9.251L62.018,14.514C60.213,11.278 58.267,10.003 55.245,10.003C52.162,10.003 50.208,11.959 50.208,14.514C50.208,17.671 52.164,18.949 56.679,20.905L59.31,22.032C68.253,25.866 73.301,29.776 73.301,38.565C73.301,48.041 65.858,53.232 55.861,53.232C46.087,53.232 39.772,48.574 36.683,42.469L45.236,37.5ZM8.057,38.412C9.71,41.346 11.214,43.826 14.83,43.826C18.288,43.826 20.469,42.473 20.469,37.213L20.469,1.426L30.994,1.426L30.994,37.355C30.994,48.252 24.605,53.212 15.278,53.212C6.852,53.212 1.972,48.851 -0.51,43.599L8.057,38.412Z" fill="#000000"/>
</svg>
