<svg width="72" height="72" viewBox="0 0 72 72" fill="none" xmlns="http://www.w3.org/2000/svg" xmlns:xlink="http://www.w3.org/1999/xlink">
<path d="M36,0C16.118,0 0,16.118 0,36C0,55.882 16.118,72 36,72C55.882,72 72,55.882 72,36C72,16.118 55.882,0 36,0ZM26.395,53.404L18.491,53.404L18.491,27.868L26.395,27.868L26.395,53.404ZM22.405,24.524C19.824,24.524 17.731,22.414 17.731,19.812C17.731,17.21 19.824,15.1 22.405,15.1C24.986,15.1 27.079,17.21 27.079,19.812C27.079,22.414 24.987,24.524 22.405,24.524ZM56.016,53.404L48.15,53.404L48.15,40C48.15,36.324 46.754,34.271 43.847,34.271C40.683,34.271 39.03,36.409 39.03,40L39.03,53.404L31.449,53.404L31.449,27.868L39.03,27.868L39.03,31.307C39.03,31.307 41.31,27.089 46.725,27.089C52.14,27.089 56.016,30.396 56.016,37.235L56.016,53.404Z" fill="url(#pf_0_14_98)"/>
<defs>
<linearGradient id="pf_0_14_98" x1="10.544" y1="10.544" x2="61.456" y2="61.456" gradientUnits="userSpaceOnUse">
<stop stop-color="#2489BE"/>
<stop offset="1" stop-color="#0575B3"/>
</linearGradient>
</defs>
</svg>
